<?xml version="1.0" standalone="no"?>
<!DOCTYPE svg PUBLIC "-//W3C//DTD SVG 1.1//EN" "http://www.w3.org/Graphics/SVG/1.1/DTD/svg11.dtd" >
<svg xmlns="http://www.w3.org/2000/svg" xmlns:xlink="http://www.w3.org/1999/xlink" version="1.1">
<metadata>
Created by FontForge 20170731 at Fri Jun  8 02:15:05 2018
 By Aleksey,,,
Copyright (c) 2018 by Jorge Cisterna. All rights reserved.
</metadata>
<defs>
<font id="RecoletaAlt-Thin" horiz-adv-x="600" >
  <font-face 
    font-family="Recoleta Alt Thin"
    font-weight="265"
    font-stretch="normal"
    units-per-em="1000"
    panose-1="0 0 3 0 0 0 0 0 0 0"
    ascent="800"
    descent="-200"
    x-height="480"
    cap-height="710"
    bbox="-706.9 -276.062 1351 956"
    underline-thickness="50"
    underline-position="-250"
    unicode-range="U+0020-FB02"
  />
<missing-glyph horiz-adv-x="530" 
d="M50 730h430v-730h-430v730zM115 695l150 -287l150 287h-300zM243 365l-153 292v-584zM288 365l152 -292v584zM265 322l-150 -287h300z" />
    <glyph glyph-name="fi" unicode="fi" horiz-adv-x="524" 
d="M281 720q-58 0 -99.5 -37t-41.5 -99v-104h162q9 0 9 -9v-5q0 -8 -9 -8h-162v-413q0 -17 19.5 -24t19.5 -11v-3q0 -7 -9 -7h-86q-10 0 -10 7v3q0 4 18.5 11t18.5 24v413h-95q-9 0 -9 8v5q0 9 9 9h95v100q0 74 49 117.5t125 43.5q69 0 112 -36.5t43 -63.5q0 -18 -16 -18
q-8 0 -15 10t-14.5 24t-19 28t-36 24t-58.5 11zM442 46q0 -16 17.5 -22.5t17.5 -11.5v-3q0 -9 -18 -9h-63q-17 0 -17 9v3q0 5 17 11.5t17 22.5v370q0 14 -8.5 23.5t-17 14.5t-8.5 8v2q0 2 10 9l31 14q22 10 22 -10v-431z" />
    <glyph glyph-name="fl" unicode="fl" horiz-adv-x="524" 
d="M442 44q0 -16 17.5 -22t17.5 -11v-2q0 -9 -18 -9h-63q-17 0 -17 9v2q0 5 16.5 11t16.5 22v584q-2 2 -16.5 30t-41 44.5t-73.5 17.5q-58 1 -99.5 -36.5t-41.5 -99.5v-104h162q9 0 9 -9v-5q0 -8 -9 -8h-162v-413q0 -17 19.5 -24t19.5 -11v-3q0 -7 -9 -7h-86q-10 0 -10 7v3
q0 4 18.5 11t18.5 24v413h-95q-9 0 -9 8v5q0 9 9 9h95v100q0 74 49 117.5t125 43.5q69 0 116 -40l18 11q11 6 17 3t6 -12v-659z" />
    <glyph glyph-name=".notdef" horiz-adv-x="530" 
d="M50 730h430v-730h-430v730zM115 695l150 -287l150 287h-300zM243 365l-153 292v-584zM288 365l152 -292v584zM265 322l-150 -287h300z" />
    <glyph glyph-name=".null" horiz-adv-x="0" 
 />
    <glyph glyph-name="nonmarkingreturn" horiz-adv-x="333" 
 />
    <glyph glyph-name="space" unicode=" " horiz-adv-x="244" 
 />
    <glyph glyph-name="exclam" unicode="!" horiz-adv-x="219" 
d="M98 147q-3 417 -8 562q0 12 11 18t21.5 1t10.5 -18q-12 -333 -15 -563q0 -6 -5 -9t-10 -0.5t-5 9.5zM111 -10q-15 0 -25 10t-10 25q0 17 10 28t25 11q16 0 25.5 -11t9.5 -28q0 -15 -9.5 -25t-25.5 -10z" />
    <glyph glyph-name="quotedbl" unicode="&#x22;" horiz-adv-x="299" 
d="M69 473q-2 19 -4.5 114t-3.5 121q-1 10 6 16t15 6q22 0 21 -21q-10 -200 -13 -236q-2 -10 -11 -10.5t-10 10.5zM207 473q0 1 -8 235q-1 10 6 16t15 6q22 0 21 -21q-10 -200 -13 -236q-2 -10 -11 -10.5t-10 10.5z" />
    <glyph glyph-name="numbersign" unicode="#" horiz-adv-x="677" 
d="M638 480q8 0 8 -7v-8q0 -8 -8 -8h-147l-48 -184h154q9 0 9 -6v-11q0 -6 -9 -6h-160l-64 -245q-1 -5 -11 -5h-8q-9 0 -6 11l64 239h-218l-64 -245q-1 -5 -10 -5h-9q-8 0 -5 11l64 239h-129q-8 0 -8 6v11q0 6 8 6h135l49 184h-143q-9 0 -9 8v8q0 7 9 7h149l48 179q2 6 11 6
h5q9 0 5 -11l-46 -174h219l48 179q2 6 10 6h6q11 0 5 -11l-45 -174h141zM418 273l49 184h-219l-48 -184h218z" />
    <glyph glyph-name="dollar" unicode="$" horiz-adv-x="522" 
d="M484 175q0 -65 -60 -117t-144 -57v-93q0 -9 -6 -9h-13q-6 0 -6 9v92q-55 2 -100.5 22t-70.5 46.5t-38.5 49t-13.5 34.5q0 19 17 19q8 0 16.5 -15t20.5 -36.5t30.5 -43.5t54.5 -38t84 -17v334q-39 13 -59.5 20.5t-51.5 23.5t-46.5 33t-27.5 44.5t-12 62.5q0 71 56 120
t141 51v72q0 9 7 9h12q7 0 7 -9v-73q85 -5 136 -49.5t51 -85.5q0 -23 -18 -23q-10 0 -19.5 20t-20 44.5t-44 47t-85.5 25.5v-310q48 -16 76 -28t61.5 -35t49.5 -57.5t16 -82.5zM88 542q0 -34 12.5 -60t39 -44t51 -28.5t64.5 -23.5v303q-71 -2 -119 -44t-48 -103zM280 22
q70 5 121.5 50t51.5 101q0 39 -13 68t-40.5 49t-53 31.5t-66.5 25.5v-325z" />
    <glyph glyph-name="percent" unicode="%" horiz-adv-x="847" 
d="M193 340q-70 0 -115.5 56t-45.5 137q0 82 42 134.5t114 52.5q66 0 111 -56.5t45 -134.5q0 -84 -42 -136.5t-109 -52.5zM210 0q-11 0 -5 11l413 694q5 5 11 5h10q11 0 5 -11l-410 -694q-4 -5 -11 -5h-13zM196 361q53 0 86 45.5t33 114.5q0 76 -37 127t-95 51
q-55 0 -89 -45.5t-34 -114.5q0 -76 37.5 -127t98.5 -51zM664 -10q-70 0 -115.5 56t-45.5 137q0 82 42 134.5t114 52.5q66 0 111 -56.5t45 -134.5q0 -84 -42 -136.5t-109 -52.5zM667 11q53 0 86 45.5t33 114.5q0 76 -37 127t-95 51q-55 0 -89 -45.5t-34 -114.5
q0 -76 37.5 -127t98.5 -51z" />
    <glyph glyph-name="ampersand" unicode="&#x26;" horiz-adv-x="693" 
d="M666 20q10 0 10 -7v-3q0 -7 -10.5 -13.5t-27.5 -6.5q-37 0 -90 57l-54 58q-90 -115 -227 -115q-103 0 -164.5 51.5t-61.5 133.5q0 57 44.5 106.5t147.5 104.5q-51 54 -75.5 94.5t-24.5 91.5q0 63 51 105.5t121 42.5t126 -39t56 -68q0 -21 -17 -21q-8 0 -16 11t-18.5 26.5
t-26 31t-45 26.5t-69.5 11q-55 0 -93.5 -35.5t-38.5 -88.5q0 -50 25 -89.5t83 -101.5l222 -238q82 126 82 298q0 16 -19 21.5t-19 8.5v4q0 10 18 10h67q17 0 17 -10v-4q0 -3 -18.5 -8.5t-18.5 -21.5q0 -85 -23.5 -168.5t-67.5 -148.5l60 -64q40 -42 73 -42h22zM268 11
q126 0 210 112l-230 247q-95 -50 -136 -96t-41 -100q0 -70 55.5 -116.5t141.5 -46.5z" />
    <glyph glyph-name="quotesingle" unicode="'" horiz-adv-x="161" 
d="M69 473q-2 19 -4.5 114t-3.5 121q-1 10 6 16t15 6q22 0 21 -21q-10 -200 -13 -236q-2 -10 -11 -10.5t-10 10.5z" />
    <glyph glyph-name="parenleft" unicode="(" horiz-adv-x="235" 
d="M198 -86q-152 174 -152 423t153 423q11 12 17.5 5t-2.5 -19q-138 -177 -138 -409t138 -409q9 -12 2 -19t-18 5z" />
    <glyph glyph-name="parenright" unicode=")" horiz-adv-x="236" 
d="M37 -86q-11 -12 -18 -5t2 19q139 176 139 409t-139 409q-5 7 -4.5 13.5t5.5 7t13 -6.5q155 -176 155 -423q0 -248 -153 -423z" />
    <glyph glyph-name="asterisk" unicode="*" horiz-adv-x="366" 
d="M130 421q-12 -21 -33 -8q-19 12 -11 29q2 2 4 5l80 87l-112 27q-22 4 -18 24q4 18 21 17l12 -3l101 -48l-14 116q-3 28 23 28q12 0 18.5 -8t4.5 -20l-14 -116l101 48q19 10 30 -7q10 -18 -5 -28q-4 -2 -9 -3l-113 -27l80 -87q15 -17 -1.5 -32.5t-32.5 -1.5q-3 3 -6 8
l-53 101z" />
    <glyph glyph-name="plus" unicode="+" 
d="M293 69q-7 0 -7 8v167h-164q-9 0 -9 5v13q0 5 9 5h164v167q0 8 7 8h14q7 0 7 -8v-167h164q9 0 9 -5v-13q0 -5 -9 -5h-164v-167q0 -8 -7 -8h-14z" />
    <glyph glyph-name="comma" unicode="," horiz-adv-x="168" 
d="M47 -124q-6 -5 -11.5 1t1.5 12q18 16 29.5 33.5t15 26.5t10.5 31q3 10 -6 10q-16 0 -26 10.5t-10 26.5q0 17 9.5 27t25.5 10q15 0 25 -11.5t10 -30.5q0 -86 -73 -146z" />
    <glyph glyph-name="hyphen" unicode="-" horiz-adv-x="456" 
d="M71 297q-8 0 -8 7v10q0 5 8 5h314q8 0 8 -5v-10q0 -7 -8 -7h-314z" />
    <glyph glyph-name="period" unicode="." horiz-adv-x="191" 
d="M96 -10q-15 0 -25 10t-10 25q0 17 9.5 28t25.5 11q15 0 24.5 -11t9.5 -28q0 -15 -9.5 -25t-24.5 -10z" />
    <glyph glyph-name="slash" unicode="/" horiz-adv-x="342" 
d="M42 -109q-13 0 -8 10l249 893q1 6 10 6h10q8 0 5 -11l-246 -890q-2 -8 -12 -8h-8z" />
    <glyph glyph-name="zero" unicode="0" horiz-adv-x="637" 
d="M329 -10q-122 0 -200 101.5t-78 272.5q0 168 71 262t197 94q114 0 190.5 -102t76.5 -261q0 -173 -70 -270t-187 -97zM334 12q98 0 160 89t62 244q0 162 -69 257.5t-179 95.5q-102 0 -164.5 -86.5t-62.5 -236.5q0 -168 70 -265.5t183 -97.5z" />
    <glyph glyph-name="one" unicode="1" horiz-adv-x="251" 
d="M89 0q-14 0 -14 7v2q0 4 9.5 6t19.5 9t10 23v580q0 19 -9 26t-20 4t-20 -2.5t-9 8.5v3q0 7 13 11l85 33q17 6 17 -6q0 -4 -13.5 -19t-13.5 -36v-602q0 -16 10 -23t20.5 -9t10.5 -6v-2q0 -7 -15 -7h-81z" />
    <glyph glyph-name="two" unicode="2" horiz-adv-x="534" 
d="M491 117q7 0 10.5 -4t1.5 -11l-26 -83q-7 -19 -24 -19h-400q-15 0 -15 14v5q0 46 29 93t72 84.5t93.5 81t93.5 82t72 86.5t29 95q0 71 -48.5 114t-115.5 43q-49 0 -84.5 -16t-52 -38.5t-26.5 -45t-16.5 -38.5t-14.5 -16q-20 0 -20 19q0 18 13 43t37.5 51.5t67.5 44.5
t95 18q82 0 138.5 -49.5t56.5 -130.5q0 -43 -21 -85.5t-54.5 -78t-74.5 -70.5t-82.5 -68.5t-76 -66.5t-57.5 -71t-25 -76h349q20 0 34 23t23 46.5t17 23.5h2z" />
    <glyph glyph-name="three" unicode="3" horiz-adv-x="530" 
d="M237 414q107 -2 176.5 -60.5t69.5 -156.5q0 -91 -63 -149t-172 -58q-53 0 -95.5 13t-65 31.5t-34 35.5t-11.5 29q0 18 18 18q8 0 15 -11t17 -26t26 -30.5t50 -26.5t81 -11q92 0 148 51.5t56 131.5q0 93 -64.5 145t-162.5 52h-5q-11 0 -14 10t3 16l230 267h-387
q-11 0 -11 11v5q0 9 11 9h402q16 0 16 -12v-6q0 -8 -8 -17z" />
    <glyph glyph-name="four" unicode="4" horiz-adv-x="541" 
d="M508 191q10 0 10 -8v-6q0 -8 -10 -8h-98v-122q0 -16 10 -23t20 -9.5t10 -6.5v-1q0 -7 -14 -7h-80q-15 0 -15 7v1q0 4 9.5 6.5t19.5 9.5t10 23v122h-356q-13 0 -13 11v3q0 8 4 15l355 495q12 17 22 17h7q12 0 12 -13l-1 -506h98zM40 191h340l1 478z" />
    <glyph glyph-name="five" unicode="5" horiz-adv-x="541" 
d="M272 434q101 0 164 -60.5t63 -148.5q0 -103 -65 -169t-173 -66q-59 0 -105 12.5t-69.5 31t-35.5 35.5t-12 30q0 18 17 18q8 0 15.5 -11t18 -26t28 -30.5t54.5 -26.5t89 -11q92 0 150 60.5t58 151.5q0 78 -54 133t-145 55q-48 0 -87 -14t-89 -44q-8 -5 -16 2t-7 19l48 329
q0 6 8 6h345q6 0 6 -7v-11q0 -7 -6 -7h-330l-46 -303q81 52 176 52z" />
    <glyph glyph-name="six" unicode="6" horiz-adv-x="578" 
d="M306 446q102 0 162.5 -67t60.5 -163t-64.5 -161t-163.5 -65q-120 0 -184.5 96t-64.5 266q0 98 26.5 179t86 135t144.5 54q56 0 100.5 -20t67.5 -47.5t35 -51.5t12 -39q0 -19 -16 -19q-11 0 -19.5 16t-18.5 38.5t-26.5 45.5t-51.5 39t-85 16q-56 0 -100.5 -30t-71 -81
t-40 -110.5t-13.5 -123.5q0 -27 1 -39q25 61 84.5 96.5t138.5 35.5zM297 12q90 0 146 57.5t56 148.5q0 87 -53.5 146.5t-150.5 59.5q-83 0 -142 -55t-63 -124q18 -110 72 -171.5t135 -61.5z" />
    <glyph glyph-name="seven" unicode="7" horiz-adv-x="492" 
d="M469 710q13 0 13 -11v-6q0 -8 -7 -22l-299 -662q-3 -9 -12 -9h-12q-11 0 -7 10l312 676h-362q-18 0 -31 -23t-21.5 -46.5t-16.5 -23.5h-4q-11 0 -7 14l21 85q5 18 20 18h413z" />
    <glyph glyph-name="eight" unicode="8" horiz-adv-x="595" 
d="M354 370q44 -16 74 -30.5t60 -37t45 -53.5t15 -71q0 -80 -66.5 -134t-168.5 -54q-119 0 -193.5 52.5t-74.5 133.5q0 141 205 203q-79 30 -123 70t-44 108q0 69 60.5 116t157.5 47q95 0 157 -48t62 -118q0 -123 -166 -184zM112 559q0 -22 6.5 -41t15.5 -33t27.5 -28
t32.5 -22.5t40 -19.5t41.5 -16.5t45.5 -16.5q170 56 170 174q0 60 -54 101t-137 41q-81 0 -134.5 -40.5t-53.5 -98.5zM314 12q89 0 147 47t58 117q0 32 -13.5 58.5t-29.5 43t-51 34t-55 25t-66 23.5q-13 5 -20 7q-209 -60 -209 -192q0 -70 67 -116.5t172 -46.5z" />
    <glyph glyph-name="nine" unicode="9" horiz-adv-x="578" 
d="M272 720q121 0 187.5 -99t66.5 -263q0 -167 -62 -267.5t-190 -100.5q-59 0 -104 20t-66.5 48t-31.5 51t-10 38q0 19 18 19q9 0 15.5 -16t15.5 -38.5t25 -45t52 -38.5t88 -16q59 0 102.5 26.5t68.5 75t37 108.5t12 135q0 30 -1 44q-22 -62 -81.5 -98t-146.5 -36
q-102 0 -162 67t-60 163q0 89 65.5 156t161.5 67zM279 288q90 0 148 51.5t60 128.5q-19 107 -73.5 168.5t-137.5 61.5q-88 0 -145 -59.5t-57 -148.5q0 -82 54.5 -142t150.5 -60z" />
    <glyph glyph-name="colon" unicode=":" horiz-adv-x="198" 
d="M99 376q-16 0 -25.5 10t-9.5 25q0 17 9.5 27.5t25.5 10.5q15 0 25 -10.5t10 -27.5q0 -15 -10 -25t-25 -10zM99 -10q-15 0 -25 10t-10 25q0 17 9.5 28t25.5 11q15 0 25 -11t10 -28q0 -14 -10 -24.5t-25 -10.5z" />
    <glyph glyph-name="semicolon" unicode=";" horiz-adv-x="229" 
d="M118 376q-15 0 -25 10t-10 25q0 17 10 27.5t25 10.5q16 0 25.5 -10.5t9.5 -27.5q0 -15 -9.5 -25t-25.5 -10zM81 -124q-6 -5 -11.5 1t1.5 12q18 16 29.5 33.5t15 26.5t10.5 31q3 10 -6 10q-16 0 -26 10.5t-10 26.5q0 17 9.5 27t25.5 10q15 0 25 -11.5t10 -30.5
q0 -86 -73 -146z" />
    <glyph glyph-name="less" unicode="&#x3c;" 
d="M447 105q9 -4 9 -10v-12q0 -11 -13 -6l-311 159q-13 6 -13 16v15q0 7 13 15l311 179q4 2 6.5 -1t2.5 -8v-14q0 -6 -9 -11l-301 -170z" />
    <glyph glyph-name="equal" unicode="=" 
d="M122 333q-8 0 -8 5v13q0 5 8 5h356q8 0 8 -5v-13q0 -5 -8 -5h-356zM122 162q-8 0 -8 5v13q0 5 8 5h356q8 0 8 -5v-13q0 -5 -8 -5h-356z" />
    <glyph glyph-name="greater" unicode="&#x3e;" 
d="M467 282q13 -8 13 -15v-15q0 -10 -13 -16l-311 -159q-13 -6 -13 6v12q0 6 9 10l306 153l-298 169q-9 5 -9 11v14q0 5 2.5 8t6.5 1z" />
    <glyph glyph-name="question" unicode="?" horiz-adv-x="472" 
d="M190 161q0 52 22 94.5t53.5 72.5t63.5 59t54 68t22 86q0 71 -48.5 114t-115.5 43q-49 0 -84.5 -16t-52 -38.5t-26.5 -45t-16.5 -38.5t-13.5 -16q-20 0 -20 19q0 18 13 43t37 51.5t67 44.5t95 18q84 0 139.5 -47t55.5 -132q0 -49 -22.5 -90.5t-54.5 -71.5t-64.5 -60
t-55 -70t-22.5 -88q0 -13 -12.5 -12.5t-13.5 12.5zM204 -10q-16 0 -25.5 10t-9.5 25q0 17 9.5 27.5t25.5 10.5q15 0 24.5 -10.5t9.5 -27.5q0 -15 -9.5 -25t-24.5 -10z" />
    <glyph glyph-name="at" unicode="@" horiz-adv-x="901" 
d="M506 740q164 0 265.5 -99t101.5 -241q0 -118 -47.5 -198t-130.5 -80q-40 0 -67.5 23.5t-30.5 66.5q-30 -42 -79.5 -67t-108.5 -25q-75 0 -122.5 49t-47.5 122q0 105 68 179t177 74q50 0 92.5 -21.5t61.5 -58.5l14 67q2 8 8 8h11q10 0 7 -10l-51 -287q-8 -47 15.5 -72.5
t58.5 -25.5q63 0 104 75.5t41 175.5q0 134 -96.5 228.5t-248.5 94.5q-120 0 -220 -57t-156.5 -152t-56.5 -204q0 -143 96 -240.5t258 -97.5q110 0 203 41q7 3 9 -0.5t0 -10.5l-2 -6q-1 -4 -13 -9q-86 -37 -204 -37q-171 0 -272.5 101.5t-101.5 254.5q0 120 58.5 220
t166 159.5t240.5 59.5zM414 141q65 0 120.5 40t69.5 95h1l22 128q3 53 -40.5 86t-103.5 33q-91 0 -152 -70t-62 -160q0 -63 41 -107.5t104 -44.5z" />
    <glyph glyph-name="A" unicode="A" horiz-adv-x="645" 
d="M28 0q-17 0 -17 7v2q0 4 17 11.5t23 22.5l245 623q4 12 -12 20.5t-16 14.5v2q0 7 11 7h72q11 0 11 -7v-2q0 -6 -17 -14.5t-13 -19.5l267 -624q6 -15 24 -22.5t18 -11.5v-2q0 -7 -18 -7h-64q-17 0 -17 7v2q0 3 17 10.5t11 23.5l-68 157h-363l-61 -157q-6 -16 11 -23.5
t17 -10.5v-2q0 -7 -18 -7h-60zM147 222h347l-181 426z" />
    <glyph glyph-name="B" unicode="B" horiz-adv-x="627" 
d="M370 381q107 -13 161.5 -63.5t54.5 -129.5q0 -95 -67.5 -141.5t-173.5 -46.5h-255q-17 0 -17 7v3q0 3 16.5 10.5t16.5 22.5v623q0 16 -16.5 23.5t-16.5 11.5v2q0 7 17 7h169q114 0 185.5 -48t71.5 -126q0 -59 -38.5 -100t-107.5 -55zM136 666l-1 -248q0 -13 8 -21.5
t20 -8.5l131 1q86 1 139.5 40t53.5 98q0 75 -62 118.5t-165 42.5l-106 -1q-18 0 -18 -21zM341 22q90 0 152.5 39t62.5 118q0 88 -67 138t-193 50h-160v-323q0 -22 20 -22h185z" />
    <glyph glyph-name="C" unicode="C" horiz-adv-x="689" 
d="M378 -10q-129 0 -230.5 108t-101.5 263q0 159 94.5 259t236.5 100q56 0 107.5 -21t84 -51t51.5 -60t19 -51q0 -19 -18 -19q-11 0 -21 18.5t-24.5 45t-36.5 53t-67.5 45t-108.5 18.5q-117 0 -202 -93.5t-85 -233.5q0 -152 93 -254t221 -102q95 0 155.5 60t90.5 146
q3 9 11 11.5t13 -3t1 -17.5q-30 -91 -101.5 -156.5t-181.5 -65.5z" />
    <glyph glyph-name="D" unicode="D" horiz-adv-x="723" 
d="M90 0q-18 0 -18 7v2q0 3 17 11t17 23v623q0 17 -17 24.5t-17 10.5v2q0 7 18 7h217q65 0 129.5 -22t119 -63.5t88 -108.5t33.5 -148q0 -115 -50 -200t-129 -126.5t-174 -41.5h-234zM155 22h166q62 0 119.5 22t103.5 63t74 107t28 148q0 80 -32.5 145t-84 103t-110 58
t-115.5 20h-152q-16 0 -16 -22v-621q0 -23 19 -23z" />
    <glyph glyph-name="E" unicode="E" horiz-adv-x="585" 
d="M89 0q-17 0 -17 7v2q0 4 8.5 6.5t17 9t8.5 20.5v619q0 19 -17 27t-17 11v2q0 6 13 6h402q15 0 20 -17l24 -80q4 -15 -5 -15h-4q-6 0 -15 22.5t-23 45t-32 22.5h-300q-17 0 -17 -24v-287h240q15 0 20.5 22t11.5 22h2q9 0 9 -12v-85q0 -13 -9 -13h-2q-6 0 -11.5 22
t-20.5 22h-240l-1 -309q0 -24 22 -24h327q18 0 31.5 22t23 44.5t16.5 22.5h3q10 0 6 -13l-24 -81q-5 -17 -20 -17h-430z" />
    <glyph glyph-name="F" unicode="F" horiz-adv-x="538" 
d="M90 0q-18 0 -18 7v2q0 3 17 10.5t17 23.5v623q0 17 -17 24.5t-17 10.5v2q0 7 14 7h388q15 0 20 -17l24 -81q4 -14 -6 -14h-3q-6 0 -15 22.5t-23 45t-32 22.5h-286q-17 0 -17 -22l-1 -324h240q15 0 20 22.5t11 22.5h3q8 0 8 -13v-85q0 -13 -8 -13h-3q-6 0 -11 22t-20 22
h-239v-277q0 -16 17.5 -23.5t17.5 -10.5v-2q0 -7 -18 -7h-63z" />
    <glyph glyph-name="G" unicode="G" horiz-adv-x="731" 
d="M693 324q17 0 17 -7v-2q0 -4 -16 -7t-32.5 -10t-16.5 -22v-277q0 -9 -8 -9q-10 0 -12 8l-6 82q-39 -42 -102 -66t-137 -24q-127 0 -231 109.5t-104 261.5q0 153 98.5 256t235.5 103q59 0 111.5 -21t84 -51.5t49.5 -60.5t18 -51q0 -19 -18 -19q-10 0 -19.5 18.5
t-23.5 45.5t-37 53.5t-69 45t-110 18.5q-112 0 -201 -96t-89 -231q0 -150 97 -253.5t222 -103.5q144 0 221 97v165q0 20 -37.5 27.5t-37.5 11.5v2q0 7 17 7h136z" />
    <glyph glyph-name="H" unicode="H" horiz-adv-x="749" 
d="M90 0q-17 0 -17 7v2q0 3 16.5 10.5t16.5 23.5v624q0 16 -16.5 23.5t-16.5 10.5v2q0 7 17 7h63q17 0 17 -7v-2q0 -3 -17 -10.5t-17 -23.5l-1 -291h479l-1 291q0 16 -17 23.5t-17 10.5v2q0 7 18 7h63q17 0 17 -7v-2q0 -3 -17 -10.5t-17 -23.5v-624q0 -16 17 -23.5t17 -10.5
v-2q0 -7 -17 -7h-63q-18 0 -18 7v2q0 3 17 10.5t17 23.5l1 311h-478v-311q0 -16 17 -23.5t17 -10.5v-2q0 -7 -17 -7h-63z" />
    <glyph glyph-name="I" unicode="I" horiz-adv-x="242" 
d="M73 7v1q0 3 16.5 10.5t16.5 23.5v625q0 16 -16.5 23.5t-16.5 10.5v2q0 7 17 7h63q17 0 17 -7v-2q0 -3 -17 -10.5t-17 -23.5v-625q0 -16 17 -23.5t17 -10.5v-1q0 -8 -17 -8h-63q-17 0 -17 8z" />
    <glyph glyph-name="J" unicode="J" horiz-adv-x="480" 
d="M354 667q0 16 -17 23.5t-17 10.5v2q0 7 18 7h63q17 0 17 -7v-2q0 -3 -17 -10.5t-17 -23.5l-2 -454q-1 -119 -53 -171t-134 -52q-84 0 -133.5 50t-49.5 97q0 18 17 18q10 0 16.5 -10.5t10 -26.5t13 -34.5t23 -34.5t43 -26.5t70.5 -10.5q63 0 106 52t43 153v450z" />
    <glyph glyph-name="K" unicode="K" horiz-adv-x="660" 
d="M615 46q0 -16 20 -25.5t20 -12.5v-1q0 -7 -18 -7h-66q-18 0 -18 7v1q0 3 15.5 12t15.5 25q0 103 -63.5 219.5t-174.5 186.5l-210 -206v-200q0 -16 17.5 -25t17.5 -12v-1q0 -7 -18 -7h-63q-17 0 -17 7v1q0 3 16.5 12t16.5 25v621q0 16 -16.5 23.5t-16.5 10.5v3q0 7 17 7
h63q18 0 18 -7v-3q0 -3 -17.5 -10.5t-17.5 -23.5v-389l396 385q12 14 7.5 19t-15.5 10.5t-11 8.5v3q0 7 17 7h65q18 0 18 -7v-3q0 -4 -6.5 -8t-20 -12t-24.5 -18l-198 -194q114 -73 182 -195t69 -227z" />
    <glyph glyph-name="L" unicode="L" horiz-adv-x="553" 
d="M90 0q-17 0 -17 7v2q0 3 16.5 11t16.5 24v622q0 18 -16.5 24.5t-16.5 10.5v2q0 7 17 7h63q18 0 18 -7v-2q0 -4 -17.5 -10.5t-17.5 -24.5v-623q0 -21 20 -21h302q17 0 30.5 22t24 44t20.5 22h5q9 0 5 -13l-24 -80q-5 -17 -19 -17h-410z" />
    <glyph glyph-name="M" unicode="M" horiz-adv-x="892" 
d="M827 48q3 -17 21.5 -26t18.5 -13v-2q0 -7 -18 -7h-67q-17 0 -17 7v2q0 4 9 8t17 11t6 20l-108 628l-233 -659q-6 -17 -18 -17t-18 16l-223 660l-106 -628q-3 -16 18 -26t21 -13v-2q0 -7 -18 -7h-67q-18 0 -18 7v2q0 4 18 14t21 25l110 615q3 16 -12 25t-15 12v2q0 8 11 8
h77q11 0 11 -8v-2q0 -3 -15 -11t-10 -24l218 -628l225 629q5 15 -8.5 22.5t-13.5 11.5v2q0 8 12 8h78q10 0 10 -6v-2q0 -5 -5.5 -9t-11.5 -7.5t-9.5 -12.5t-1.5 -22z" />
    <glyph glyph-name="N" unicode="N" horiz-adv-x="743" 
d="M658 710q17 0 17 -6v-2q0 -3 -18.5 -11.5t-18.5 -24.5v-652q0 -14 -11 -14h-4q-8 0 -22 21l-469 652v-625q0 -16 19.5 -26t19.5 -13v-2q0 -7 -18 -7h-66q-17 0 -17 7v2q0 3 18 13t18 26v617q0 16 -18 24.5t-18 11.5v2q0 7 17 7h92q11 0 11 -6v-2q0 -4 -10 -8t-15 -9
t4 -20l443 -614v615q0 16 -19 24.5t-19 11.5v2q0 6 18 6h66z" />
    <glyph glyph-name="O" unicode="O" horiz-adv-x="780" 
d="M401 -10q-151 0 -253.5 112t-102.5 258q0 152 98 256t248 104q146 0 245 -107t99 -261q0 -142 -97 -252t-237 -110zM403 12q85 0 155.5 49t108.5 125.5t38 159.5q0 148 -91.5 250t-231.5 102q-132 0 -219.5 -97t-87.5 -237q0 -89 41.5 -169.5t118 -131.5t168.5 -51z" />
    <glyph glyph-name="P" unicode="P" horiz-adv-x="576" 
d="M89 0q-18 0 -18 8v2q0 2 17.5 9.5t17.5 23.5v623q0 14 -17.5 22.5t-17.5 11.5v3q0 7 18 7h145q84 0 152 -22.5t114 -76t46 -132.5q0 -227 -295 -227h-117v-209q0 -16 18 -23.5t18 -9.5v-2q0 -8 -18 -8h-63zM163 274h88q124 0 194.5 49.5t70.5 147.5q0 75 -40.5 125.5
t-101.5 71t-140 20.5h-81q-19 0 -19 -22v-365q0 -27 29 -27z" />
    <glyph glyph-name="Q" unicode="Q" horiz-adv-x="780" 
d="M790 -71q7 3 13 1t5.5 -9t-9.5 -13q-26 -17 -73 -30t-87 -13q-186 0 -281 128q-135 17 -224 124.5t-89 242.5q0 152 98 256t248 104q146 0 245 -107t99 -261q0 -142 -97 -252t-237 -110h-18q39 -45 105.5 -73t152.5 -28q39 0 81.5 12.5t67.5 27.5zM75 364
q0 -89 41.5 -169.5t118 -131.5t168.5 -51q85 0 155.5 49t108.5 125.5t38 159.5q0 148 -91.5 250t-231.5 102q-132 0 -219.5 -97t-87.5 -237z" />
    <glyph glyph-name="R" unicode="R" horiz-adv-x="622" 
d="M555 42q1 -16 20.5 -23t19.5 -10v-2q0 -7 -17 -7h-67q-17 0 -17 7v2q0 3 16 9.5t15 23.5q-2 81 -49.5 150.5t-125.5 97.5q-45 -8 -92 -8h-122v-239q0 -16 17.5 -23.5t17.5 -10.5v-2q0 -7 -18 -7h-63q-17 0 -17 7v2q0 3 16.5 10.5t16.5 23.5v624q0 16 -16.5 23.5
t-16.5 10.5v2q0 7 17 7h162q132 0 216.5 -54t85.5 -161q1 -72 -44 -123t-126 -74q73 -31 120 -104.5t51 -151.5zM164 303h95q120 0 192.5 50.5t72.5 131.5q0 104 -76 153.5t-195 49.5h-99q-18 0 -18 -22v-335q0 -28 28 -28z" />
    <glyph glyph-name="S" unicode="S" horiz-adv-x="590" 
d="M306 -10q-68 0 -123.5 20.5t-85 50.5t-45 56.5t-15.5 44.5q0 19 16 19q9 0 17.5 -17.5t22 -42.5t36 -49.5t68.5 -42t109 -17.5q92 0 150 45t58 115q0 58 -25 94t-64.5 51t-87.5 22.5t-96.5 16t-88 24.5t-64.5 54t-25 99q0 84 62 135t169 51q114 0 177.5 -51t63.5 -101
q0 -18 -17 -18q-9 0 -15.5 11t-12 27.5t-19.5 35.5t-33 35.5t-57 27.5t-88 11q-94 0 -147 -45.5t-53 -121.5q0 -54 25 -86.5t64.5 -46t87.5 -20.5t96.5 -16.5t88 -27t64.5 -59t25 -105.5q0 -78 -67.5 -128.5t-170.5 -50.5z" />
    <glyph glyph-name="T" unicode="T" horiz-adv-x="585" 
d="M256 0q-17 0 -17 7v2q0 3 16.5 10.5t16.5 23.5v645h-192q-14 0 -24 -15.5t-14.5 -34t-10 -34t-10.5 -15.5h-4q-8 0 -5 14l14 90q3 17 19 17h486q14 0 19 -17l24 -91q4 -13 -4 -13h-5q-6 0 -15 24.5t-23 49.5t-31 25h-194v-645q0 -16 17.5 -23.5t17.5 -10.5v-2
q0 -7 -18 -7h-63z" />
    <glyph glyph-name="U" unicode="U" horiz-adv-x="729" 
d="M616 69q0 -28 17 -37t34 -10t17 -10q0 -18 -45 -18q-14 0 -19.5 1t-15.5 7t-13.5 22t-3.5 43v58q-29 -64 -91 -100t-146 -36q-117 0 -185.5 77.5t-68.5 207.5v378q0 14 -8.5 22t-17 12.5t-8.5 8.5v2q0 7 9 10l40 14q15 5 15 -7v-439q0 -120 60 -192t163 -72
q107 0 172.5 61.5t65.5 160.5v419q0 14 -9.5 22t-18.5 12.5t-9 8.5v2q0 7 9 10l42 13q16 5 16 -6z" />
    <glyph glyph-name="V" unicode="V" horiz-adv-x="683" 
d="M661 710q15 0 15 -6v-2q0 -4 -16 -11.5t-23 -23.5l-276 -656q-4 -11 -13 -11q-10 0 -14 11l-294 654q-5 11 -11.5 18t-12 8.5t-9.5 3.5t-4 6v2q0 7 19 7h64q18 0 18 -7v-2q0 -3 -20 -11t-13 -25l280 -628l260 630q6 16 -16.5 24t-22.5 11v2q0 6 17 6h72z" />
    <glyph glyph-name="W" unicode="W" horiz-adv-x="945" 
d="M921 710q15 0 15 -6v-3q0 -6 -15.5 -12.5t-21.5 -22.5l-236 -656q-3 -10 -20 -10q-6 0 -13 11l-142 359l-156 -360q-4 -10 -20 -10q-8 0 -13 11l-258 653q-7 17 -23 23.5t-16 12.5v3q0 7 15 7h71q15 0 15 -7v-3q0 -5 -10.5 -7.5t-18 -8.5t-2.5 -20l249 -627l155 362
l-106 267q-7 20 -23 25.5t-16 9.5v3q0 6 12 6h29q14 0 18 -13l102 -261l112 261q6 13 18 13h18q15 0 15 -6v-3q0 -6 -16 -12.5t-23 -21.5l-113 -261l144 -369l227 629q6 17 -14 23t-20 11v2q0 8 17 8h64z" />
    <glyph glyph-name="X" unicode="X" horiz-adv-x="620" 
d="M575 43q8 -11 19 -17t17.5 -9.5t6.5 -7.5v-2q0 -7 -17 -7h-65q-17 0 -17 7v2q0 3 17.5 11t6.5 23l-232 307l-241 -307q-7 -13 -3 -17.5t13 -8.5t9 -8v-2q0 -7 -17 -7h-61q-18 0 -18 7v2q0 4 8 7.5t21 9.5t21 17l256 322l-229 302q-7 9 -15.5 15t-15 8t-11 4.5t-4.5 6.5v2
q0 7 17 7h64q18 0 18 -7v-2q0 -3 -16.5 -11t-5.5 -23l216 -284l218 284q11 15 -5 23t-16 11v2q0 7 17 7h59q18 0 18 -7v-2q0 -4 -7 -7t-19 -9.5t-21 -17.5l-232 -301z" />
    <glyph glyph-name="Y" unicode="Y" horiz-adv-x="637" 
d="M607 710q17 0 17 -6v-2q0 -5 -6.5 -7.5t-17.5 -8.5t-19 -19l-244 -379v-245q0 -16 17 -23.5t17 -10.5v-2q0 -7 -17 -7h-64q-17 0 -17 7v2q0 3 16.5 10.5t16.5 23.5v243l-250 381q-7 11 -19 17t-20 9.5t-8 7.5v2q0 7 18 7h68q17 0 17 -7v-2q0 -3 -16 -11t-7 -23l235 -363
l233 363q11 16 -9 23.5t-20 10.5v2q0 7 15 7h64z" />
    <glyph glyph-name="Z" unicode="Z" horiz-adv-x="585" 
d="M561 111q15 0 11 -14l-26 -78q-7 -19 -23 -19h-482q-15 0 -15 14v2q0 7 7 17l476 655h-396q-17 0 -30.5 -22t-23 -44.5t-15.5 -22.5h-3q-10 0 -6 15l25 79q5 17 19 17h445q16 0 16 -14v-6q0 -4 -7 -15l-474 -653h428q19 0 33 22t23.5 44.5t16.5 22.5h1z" />
    <glyph glyph-name="bracketleft" unicode="[" horiz-adv-x="267" 
d="M105 -104q-11 0 -11 10v862q0 10 11 10h143q9 0 9 -7v-8q0 -7 -9 -7h-125v-838h125q9 0 9 -7v-8q0 -7 -9 -7h-143z" />
    <glyph glyph-name="backslash" unicode="\" horiz-adv-x="341" 
d="M291 -109q-9 0 -12 8l-245 890q-5 11 5 11h9q8 0 10 -6l249 -893q3 -10 -8 -10h-8z" />
    <glyph glyph-name="bracketright" unicode="]" horiz-adv-x="267" 
d="M19 -104q-9 0 -9 7v8q0 7 9 7h125v838h-125q-9 0 -9 7v8q0 7 9 7h144q10 0 10 -10v-862q0 -10 -10 -10h-144z" />
    <glyph glyph-name="asciicircum" unicode="^" 
d="M433 648q9 -11 2 -18q-6 -6 -14 3l-121 133l-120 -133q-8 -10 -15 -1q-5 7 2 16l110 140q7 10 19 10h7q12 0 19 -10z" />
    <glyph glyph-name="underscore" unicode="_" horiz-adv-x="506" 
d="M42 -23q-7 0 -7 7v10q0 6 7 6h422q7 0 7 -6v-10q0 -7 -7 -7h-422z" />
    <glyph glyph-name="grave" unicode="`" 
d="M324 563l-187 107q-13 8 -7 17l5 8q7 13 20 3l180 -120q7 -7 4 -12q-5 -9 -15 -3z" />
    <glyph glyph-name="a" unicode="a" horiz-adv-x="561" 
d="M476 44q0 -17 17.5 -25t17.5 -11v-2q0 -6 -9 -6h-45q-10 0 -10 10v95q-23 -55 -72 -85t-105 -30q-94 0 -161.5 72.5t-67.5 179.5q0 108 65.5 178t169.5 70q54 0 101.5 -30t70.5 -75v93q0 9 5 12t15 -2l32 -17q10 -6 10 -11v-2q0 -3 -17 -13.5t-17 -27.5v-373zM279 12
q60 0 114 48t54 128v133q-1 52 -54.5 100t-126.5 48q-84 0 -139.5 -63.5t-55.5 -157.5q0 -103 59 -169.5t149 -66.5z" />
    <glyph glyph-name="b" unicode="b" horiz-adv-x="552" 
d="M285 490q97 0 161.5 -70t64.5 -174q0 -107 -64.5 -181.5t-160.5 -74.5q-57 0 -104.5 29.5t-72.5 78.5v-88q0 -10 -9 -10h-45q-10 0 -10 6v2q0 3 17.5 11.5t17.5 25.5v630q0 13 -5 21t-11.5 11t-11.5 6t-5 7v2q0 4 9 9l32 14q20 9 20 -8v-343q25 43 73 69.5t104 26.5z
M277 11q90 0 147 67t57 170q0 95 -57.5 158t-147.5 63q-63 0 -113.5 -44t-54.5 -100l1 -138q0 -69 51.5 -122.5t116.5 -53.5z" />
    <glyph glyph-name="c" unicode="c" horiz-adv-x="499" 
d="M278 -10q-97 0 -166.5 71t-69.5 183q0 109 66 177.5t169 68.5q70 0 126 -39t56 -69q0 -20 -17 -20q-7 0 -15 11t-19 26.5t-26.5 31t-45.5 27t-69 11.5q-82 1 -138.5 -62t-56.5 -156q0 -107 61 -172t153 -65q56 0 97 32.5t60 84.5q5 12 18 9q10 -2 6 -14
q-18 -55 -67.5 -95.5t-121.5 -40.5z" />
    <glyph glyph-name="d" unicode="d" horiz-adv-x="553" 
d="M475 44q0 -17 17.5 -25t17.5 -11v-2q0 -6 -9 -6h-45q-10 0 -10 10v89q-25 -52 -73.5 -80.5t-102.5 -28.5q-94 0 -161.5 72.5t-67.5 179.5q0 108 65 178t168 70q55 0 102 -28.5t71 -72.5v286q0 17 -8.5 25.5t-17 11.5t-8.5 7v2q0 6 10 10l31 14q21 10 21 -9v-692zM279 12
q56 0 108.5 43t58.5 115l1 157q-4 51 -57.5 96.5t-125.5 45.5q-82 0 -137.5 -64t-55.5 -157q0 -103 59 -169.5t149 -66.5z" />
    <glyph glyph-name="e" unicode="e" horiz-adv-x="496" 
d="M443 130q2 7 9 9t12 -1.5t3 -11.5q-16 -55 -68.5 -95.5t-134.5 -40.5q-95 0 -158.5 71t-63.5 184q0 107 64 176t169 69q69 0 114 -34t45 -92q1 -47 -39 -87.5t-109 -52.5q-93 -16 -213 -8q9 -92 63 -147t136 -55q66 0 108.5 32t62.5 84zM264 469q-85 0 -139 -64t-54 -154
v-13q130 -9 209 7q62 12 94 44t31 75q-1 50 -40 77.5t-101 27.5z" />
    <glyph glyph-name="f" unicode="f" horiz-adv-x="310" 
d="M245 741q44 0 78 -23.5t34 -55.5q0 -18 -17 -18q-11 0 -16.5 11.5t-7.5 25.5t-19.5 26t-50.5 13q-47 1 -77 -36t-29 -95v-109h162q9 0 9 -9v-5q0 -8 -9 -8h-162v-413q0 -17 20 -24t20 -11v-3q0 -7 -10 -7h-86q-10 0 -10 7v3q0 4 18.5 11t18.5 24v413h-95q-9 0 -9 8v5
q0 9 9 9h95v112q0 66 37 107.5t97 41.5z" />
    <glyph glyph-name="g" unicode="g" horiz-adv-x="556" 
d="M502 471q10 -6 10 -11v-2q0 -3 -17 -13.5t-17 -27.5v-377q0 -119 -52.5 -181t-142.5 -62q-88 0 -140 51.5t-52 97.5q0 17 20 17q8 0 13.5 -15t14 -36t23.5 -42.5t48.5 -36.5t82.5 -15q72 0 114 57t42 166v74q-23 -55 -72.5 -85t-105.5 -30q-93 0 -160.5 71t-67.5 171
q0 108 65.5 178t169.5 70q55 0 102.5 -30.5t70.5 -76.5l-1 95q0 9 5 12t15 -2zM281 22q60 0 114 48t54 128v123q-1 52 -54.5 100t-126.5 48q-84 0 -139.5 -63.5t-55.5 -157.5q0 -96 59 -161t149 -65z" />
    <glyph glyph-name="h" unicode="h" horiz-adv-x="542" 
d="M473 47q1 -13 10 -19t17.5 -9t8.5 -8v-4q0 -7 -18 -7h-66q-17 0 -17 7v4q0 5 9 8t17.5 8.5t8.5 18.5l-9 214q-4 100 -48.5 154t-111.5 54q-65 0 -111 -41t-53 -104v-279q0 -16 18 -22t18 -11v-2q0 -9 -19 -9h-63q-17 0 -17 9v2q0 5 16.5 11t16.5 22v632q0 15 -8 23.5
t-16 12.5t-8 7v2q0 5 9 10l31 14q11 5 17 2t6 -11l-2 -351q23 47 67.5 76t98.5 29q81 0 132 -59t56 -170z" />
    <glyph glyph-name="i" unicode="i" horiz-adv-x="198" 
d="M94 599q-36 0 -36 36q0 18 9.5 28.5t26.5 10.5q15 0 24 -10.5t9 -28.5q0 -36 -33 -36zM69 0q-17 0 -17 9v3q0 5 17 11.5t17 22.5v370q0 20 -16.5 32t-16.5 14v2q0 3 10 9l30 14q22 10 22 -10v-431q0 -16 18 -22.5t18 -11.5v-3q0 -9 -19 -9h-63z" />
    <glyph glyph-name="j" unicode="j" horiz-adv-x="204" 
d="M107 599q-36 0 -36 36q0 18 9.5 28.5t26.5 10.5q15 0 24 -10.5t9 -28.5q0 -36 -33 -36zM48 -174q-34 0 -56.5 18.5t-22.5 44.5q0 17 17 17q9 0 14 -9t7.5 -20.5t12.5 -20.5t28 -9q23 0 37 17t14 45q0 15 -1 49t-1 51v407q0 20 -16.5 30.5t-16.5 14.5v2q0 5 9 10l32 14
q22 11 22 -10v-467q0 -65 -2 -101q-2 -37 -22.5 -60t-54.5 -23z" />
    <glyph glyph-name="k" unicode="k" horiz-adv-x="477" 
d="M438 41q7 -10 25 -16t18 -14v-2q0 -9 -9 -9h-77q-9 0 -9 9v3q0 5 12.5 11.5t4.5 17.5l-158 219q-56 -24 -137 -25v-187q0 -15 18.5 -21.5t18.5 -13.5v-4q0 -9 -19 -9h-63q-17 0 -17 9v4q0 7 17 13.5t17 21.5v624q0 18 -16.5 31t-16.5 17v1q0 7 10 11l32 14q19 10 19 -10
v-478q70 1 120 18.5t73 43.5t37.5 55.5t17.5 55t10 42.5t18 17q17 0 17 -18q0 -15 -5 -37t-18 -52.5t-41.5 -61t-68.5 -51.5z" />
    <glyph glyph-name="l" unicode="l" horiz-adv-x="194" 
d="M66 0q-17 0 -17 9v2q0 5 16.5 11t16.5 22v632q0 15 -8 23.5t-16.5 12.5t-8.5 7v2q0 5 9 10l31 14q11 5 17 2t6 -11v-692q0 -16 17.5 -22t17.5 -11v-2q0 -9 -18 -9h-63z" />
    <glyph glyph-name="m" unicode="m" horiz-adv-x="887" 
d="M819 46q1 -17 19 -24.5t18 -11.5v-4q0 -6 -17 -6h-67q-18 0 -18 6v4q0 4 18 11t17 24l-10 205q-11 218 -161 218q-62 0 -108.5 -45t-48.5 -113q4 -21 4 -51v-215q0 -16 17.5 -23t17.5 -11v-4q0 -6 -17 -6h-64q-18 0 -18 6v4q0 4 17 11t17 23v215q0 94 -46.5 151.5
t-113.5 57.5q-66 0 -112.5 -48t-49.5 -118l1 -258q0 -16 17.5 -23t17.5 -11v-4q0 -6 -18 -6h-63q-18 0 -18 6v4q0 4 17 11t17 23v374q0 15 -8 23t-16 12t-8 8v2q0 5 9 10l31 14q22 10 22 -10v-99q21 50 64.5 81t95.5 31q59 0 107 -35.5t69 -98.5q15 61 61.5 97.5t105.5 36.5
q181 0 192 -239z" />
    <glyph glyph-name="n" unicode="n" horiz-adv-x="546" 
d="M478 47q1 -17 18.5 -24.5t17.5 -11.5v-4q0 -7 -19 -7h-66q-17 0 -17 7v4q0 5 9 8t17.5 8.5t8.5 18.5l-9 214q-4 100 -48.5 154t-111.5 54q-65 0 -111 -41t-53 -104v-278q0 -16 18 -22.5t18 -11.5v-4q0 -7 -19 -7h-63q-18 0 -18 7v4q0 5 17.5 11.5t17.5 22.5v373
q0 17 -8.5 25.5t-17 11t-8.5 6.5v2q0 6 10 10l32 14q21 9 21 -10v-91q23 47 67.5 75.5t97.5 28.5q81 0 132 -59t57 -170z" />
    <glyph glyph-name="o" unicode="o" horiz-adv-x="550" 
d="M282 -9q-101 0 -171 76t-70 184q0 101 66 169.5t168 68.5q99 0 166.5 -73.5t67.5 -182.5q0 -105 -64 -173.5t-163 -68.5zM289 12q81 0 135.5 62t54.5 152q0 106 -58.5 174t-151.5 68q-84 0 -141 -61.5t-57 -149.5q0 -103 61.5 -174t156.5 -71z" />
    <glyph glyph-name="p" unicode="p" horiz-adv-x="556" 
d="M289 490q95 0 160 -70.5t65 -173.5q0 -107 -64.5 -181.5t-159.5 -74.5q-58 0 -106.5 30t-73.5 81v-294q0 -13 9 -18.5t18 -8.5t9 -8v-2q0 -9 -18 -9h-64q-18 0 -18 9v2q0 5 9 8t17.5 8.5t8.5 18.5v612q0 16 -17 25.5t-17 14.5v2q0 8 10 12l32 14q20 7 20 -10v-89
q24 46 73 74t107 28zM281 11q89 0 146 67t57 170q0 95 -57.5 158t-146.5 63q-66 0 -118 -46.5t-52 -104.5v-131q0 -69 52.5 -122.5t118.5 -53.5z" />
    <glyph glyph-name="q" unicode="q" horiz-adv-x="555" 
d="M476 -194q0 -16 18 -23.5t18 -12.5v-1q0 -8 -19 -8h-64q-18 0 -18 7v2q0 5 18 12.5t18 23.5v299q-23 -55 -72 -85t-105 -30q-94 0 -161.5 72.5t-67.5 179.5q0 108 65.5 178t169.5 70q54 0 101.5 -30t70.5 -75v93q0 9 5 12t16 -2l31 -17q10 -5 10 -11v-2q0 -3 -17 -13.5
t-17 -27.5v-611zM279 12q60 0 114 48t54 128v133q-1 52 -54.5 100t-126.5 48q-84 0 -139.5 -63.5t-55.5 -157.5q0 -103 59 -169.5t149 -66.5z" />
    <glyph glyph-name="r" unicode="r" horiz-adv-x="333" 
d="M237 490q43 0 66.5 -18t23.5 -44q0 -17 -16 -17q-8 0 -13.5 8.5t-10 19.5t-19 19.5t-38.5 8.5q-51 0 -84 -47.5t-33 -119.5v-256q0 -16 18 -22.5t18 -10.5v-4q0 -7 -18 -7h-64q-18 0 -18 7v4q0 4 17.5 10.5t17.5 22.5v373q0 11 -5 18.5t-11.5 11t-11.5 7t-5 7.5v2
q0 6 10 10l32 14q19 9 19 -10v-85q16 47 49 72.5t76 25.5z" />
    <glyph glyph-name="s" unicode="s" horiz-adv-x="455" 
d="M229 -10q-92 0 -142.5 39.5t-50.5 73.5q0 18 18 18q10 0 16 -11.5t13.5 -27.5t21 -32t45.5 -27.5t79 -11.5q67 0 111.5 29.5t44.5 79.5q0 47 -34.5 71.5t-83.5 33.5t-98 18.5t-83.5 38.5t-34.5 81q0 53 48.5 90t122.5 37q83 0 133.5 -38t50.5 -78q0 -18 -15 -18
q-8 0 -14 11.5t-14 28t-21.5 33.5t-44.5 28.5t-76 11.5q-57 0 -98.5 -30.5t-41.5 -76.5q0 -44 34.5 -67t83.5 -31t98 -18t83.5 -40.5t34.5 -86.5q0 -55 -51.5 -92t-134.5 -37z" />
    <glyph glyph-name="t" unicode="t" horiz-adv-x="325" 
d="M206 -9q-49 0 -77 31.5t-28 95.5v340h-86q-10 0 -10 10v2q0 10 10 10h48q27 0 36 22.5t9 68.5q0 17 10 17h2q9 0 9 -17l2 -91h160q10 0 10 -10v-2q0 -10 -10 -10h-160v-339q0 -51 19.5 -77.5t54.5 -26.5t57 20.5t22 53.5q0 7 6.5 10t12.5 0t6 -11q0 -41 -28.5 -69
t-74.5 -28z" />
    <glyph glyph-name="u" unicode="u" horiz-adv-x="544" 
d="M453 69q0 -23 10 -35t22 -13t22 -3.5t10 -9.5q0 -9 -7 -11.5t-27 -2.5q-25 0 -42.5 17.5t-16.5 55.5v30q-23 -50 -66.5 -78.5t-99.5 -28.5q-86 0 -135.5 66.5t-49.5 182.5v183q0 18 -17 28t-17 14v1q0 7 10 10l40 12q14 5 14 -7v-241q0 -105 41 -166t113 -61t119.5 51.5
t47.5 134.5v224q0 18 -18.5 27.5t-18.5 14.5v1q0 7 9 10l43 12q14 5 14 -7v-411z" />
    <glyph glyph-name="v" unicode="v" horiz-adv-x="508" 
d="M195 -10q-58 0 -88 38.5t-30 106.5v287q0 18 -17 28t-17 14v1q0 7 9 10l41 12q14 5 14 -7v-346q0 -122 87 -122q92 0 165 80.5t73 226.5q0 40 -8.5 67.5t-18.5 38.5t-18.5 23t-8.5 23q0 19 20 19q6 0 13 -3t16 -13.5t15.5 -27.5t11.5 -49t5 -73q0 -153 -81 -243.5
t-183 -90.5z" />
    <glyph glyph-name="w" unicode="w" horiz-adv-x="781" 
d="M672 490q6 0 13 -3t16 -14t15.5 -28t11 -48.5t4.5 -72.5q0 -77 -23 -143t-58 -106t-75 -62.5t-77 -22.5q-54 0 -84 34.5t-34 95.5q-26 -59 -75 -94.5t-111 -35.5q-58 0 -88 38.5t-30 106.5v287q0 18 -17 28t-17 14v1q0 7 9 10l41 12q14 5 14 -7v-347q0 -121 86 -121
q81 0 134.5 63.5t53.5 157.5v189q0 18 -17 28t-17 14v1q0 7 10 10l40 12q14 5 14 -7v-347q0 -121 86 -121q32 0 67 19t67.5 55t53.5 97t21 136q0 39 -8.5 67t-18.5 39t-18.5 22.5t-8.5 23.5q0 19 20 19z" />
    <glyph glyph-name="x" unicode="x" horiz-adv-x="465" 
d="M450 470q0 -4 -3.5 -7t-14.5 -12t-24 -24l-157 -184l154 -193q10 -12 21 -20t16.5 -11.5t5.5 -8.5v-3q0 -7 -9 -7h-75q-9 0 -9 8v2q0 4 8.5 9.5t11.5 11t-5 19.5l-140 178l-146 -177q-13 -19 -9.5 -24.5t15 -9.5t11.5 -7v-2q0 -8 -11 -8h-79q-9 0 -9 7v3q0 3 6.5 5.5
t20 11.5t27.5 26l160 192l-143 182q-9 11 -18.5 19t-15.5 10.5t-10 5.5t-4 8v3q0 7 10 7h68q10 0 10 -7v-3q0 -5 -8 -10.5t-10 -10.5t9 -22l135 -169l142 169q11 16 8.5 22t-11.5 12t-9 9v3q0 7 10 7h61q10 0 10 -7v-3z" />
    <glyph glyph-name="y" unicode="y" horiz-adv-x="528" 
d="M439 487q15 5 15 -7v-450q0 -114 -51.5 -173.5t-144.5 -59.5q-90 0 -140.5 51t-50.5 97q0 18 20 18q8 0 13 -15t13 -36t22.5 -42.5t48.5 -36.5t84 -15q75 0 115.5 54t40.5 160v77q-23 -51 -66.5 -80t-99.5 -29q-85 0 -135 65.5t-50 173.5v183q0 18 -17 28t-17 14v1
q0 7 10 10l40 12q14 5 14 -7v-241q0 -98 41 -157.5t113 -59.5t119.5 51.5t47.5 134.5v214q0 18 -18.5 27.5t-18.5 14.5v1q0 7 9 10z" />
    <glyph glyph-name="z" unicode="z" horiz-adv-x="451" 
d="M430 112q11 0 6 -15l-25 -78q-7 -19 -24 -19h-344q-15 0 -15 14v2q0 8 6 17l339 426h-252q-18 0 -31.5 -22.5t-23 -45.5t-15.5 -23h-3q-10 0 -6 14l24 81q5 17 20 17h299q15 0 15 -14v-6q0 -7 -7 -15l-335 -424h293q19 0 33 22.5t23.5 45.5t18.5 23h4z" />
    <glyph glyph-name="braceleft" unicode="{" horiz-adv-x="245" 
d="M125 470q0 -67 -19 -99t-43 -39q62 -18 62 -144v-136q1 -50 26 -82t63 -32q16 0 16.5 -11t-14.5 -11q-55 0 -87.5 36.5t-32.5 100.5v134q0 64 -17.5 96t-38.5 32q-13 0 -14 18t14 18q21 0 38 31t18 90v157q0 64 33.5 101t90.5 36q8 0 12 -5t0 -10.5t-12 -5.5
q-41 0 -67.5 -32.5t-27.5 -83.5v-159z" />
    <glyph glyph-name="bar" unicode="|" horiz-adv-x="215" 
d="M100 -90q-6 0 -6 9v783q0 9 6 9h15q6 0 6 -9v-783q0 -9 -6 -9h-15z" />
    <glyph glyph-name="braceright" unicode="}" horiz-adv-x="246" 
d="M206 351q15 0 14 -18t-14 -18q-21 0 -38.5 -32t-17.5 -96v-134q0 -64 -32.5 -100.5t-87.5 -36.5q-15 0 -14.5 11t16.5 11q38 0 63 32t26 82v136q0 126 62 144q-24 7 -43 39t-19 99v159q-1 51 -27.5 83.5t-67.5 32.5q-8 0 -12 5.5t0 10.5t12 5q57 1 90.5 -36t33.5 -101
v-157q1 -59 18 -90t38 -31z" />
    <glyph glyph-name="asciitilde" unicode="~" 
d="M190 354q40 0 108 -36.5t106 -36.5q27 0 52 13.5t33 44.5q3 11 12 11h6q10 0 7 -12q-9 -38 -40.5 -60t-70.5 -22q-51 0 -116.5 37t-96.5 37q-27 0 -48 -16t-30 -46q-4 -13 -11 -13h-7q-10 0 -7 14q10 37 36.5 61t66.5 24z" />
    <glyph glyph-name="exclamdown" unicode="&#xa1;" horiz-adv-x="191" 
d="M96 355q-15 0 -25 10.5t-10 25.5q0 17 9.5 27.5t25.5 10.5q15 0 24.5 -10.5t9.5 -27.5q0 -15 -9.5 -25.5t-24.5 -10.5zM119 -182q0 -14 -10.5 -19t-21 1t-10.5 19q1 29 3.5 201t4.5 260q0 7 5 9t10 -0.5t5 -8.5q2 -74 7 -246.5t7 -215.5z" />
    <glyph glyph-name="cent" unicode="&#xa2;" horiz-adv-x="510" 
d="M451 257q4 12 18 9q10 -3 6 -14q-50 -151 -191 -156v-85q0 -11 -8 -11h-9q-9 0 -9 11v86q-86 9 -150.5 83t-64.5 180t61.5 177.5t153.5 78.5v86q0 9 8 9h11q7 0 7 -9v-85q68 -3 121.5 -42t53.5 -72q0 -18 -17 -18q-10 0 -18.5 10.5t-17.5 25.5t-21.5 30.5t-38.5 28
t-62 15.5v-475h4q113 0 163 137zM73 372q0 -102 53.5 -169.5t131.5 -80.5v474q-72 -2 -128.5 -68.5t-56.5 -155.5z" />
    <glyph glyph-name="sterling" unicode="&#xa3;" horiz-adv-x="635" 
d="M576 122q2 6 9.5 7.5t12 -3t1.5 -12.5q-49 -124 -188 -124q-21 0 -41 3.5t-42 12.5t-32.5 14t-36.5 19.5t-30 16.5q-35 -66 -97 -66q-33 0 -53 16.5t-20 43.5q0 24 22 40.5t56 16.5q36 0 77 -17q9 27 9 60t-8.5 66.5t-15.5 49t-25 52.5h-133q-8 0 -8 5v12q0 5 8 5h122
q-36 80 -36 153q0 101 60 164t176 63q79 0 141.5 -40.5t62.5 -76.5q0 -22 -21 -22q-8 0 -16.5 12t-20 29.5t-28.5 34.5t-51.5 29t-80.5 12q-94 0 -143 -59t-49 -146q0 -69 39 -153h222q9 0 9 -6v-11q0 -5 -9 -5h-211q43 -88 44 -168q0 -38 -12 -71q6 -3 39 -20.5t46.5 -23.5
t40.5 -13.5t52 -7.5q58 0 100.5 29.5t58.5 78.5zM131 12q49 0 75 56q-37 17 -69 17q-24 0 -38 -10.5t-14 -25.5t13 -26t33 -11z" />
    <glyph glyph-name="currency" unicode="&#xa4;" horiz-adv-x="626" 
d="M560 138q7 -5 0 -10l-11 -10q-5 -4 -11 0l-75 76q-65 -52 -153 -52t-147 50l-74 -74q-5 -5 -11 0l-10 10q-8 6 0 10l73 74q-51 57 -51 134q0 75 50 130l-72 72q-2 2 -2.5 5t2.5 5l11 10q6 6 10 0l72 -72q61 53 149 53q92 0 156 -53l72 72q6 6 11 0l11 -10q7 -3 0 -10
l-73 -72q50 -56 50 -130t-53 -132zM311 165q84 0 141 53.5t57 128.5q0 74 -57 126.5t-141 52.5q-82 0 -137 -52.5t-55 -126.5q0 -75 55 -128.5t137 -53.5z" />
    <glyph glyph-name="yen" unicode="&#xa5;" horiz-adv-x="682" 
d="M625 710q16 0 16 -6v-2q0 -5 -6.5 -7.5t-17.5 -8.5t-19 -19l-233 -363h248q8 0 8 -6v-11q0 -5 -8 -5h-259v-72h239q9 0 9 -6v-10q0 -6 -9 -6h-239v-145q0 -16 17 -23.5t17 -10.5v-2q0 -7 -17 -7h-63q-18 0 -18 7v2q0 3 17 10.5t17 23.5v145h-206q-8 0 -8 6v10q0 6 8 6
h206v72h-226q-8 0 -8 5v11q0 6 8 6h213l-237 363q-7 11 -19 17t-20 9.5t-8 7.5v2q0 7 17 7h68q17 0 17 -7v-2q0 -3 -16 -11t-7 -23l235 -363l233 363q11 16 -9 23.5t-20 10.5v2q0 7 15 7h65z" />
    <glyph glyph-name="brokenbar" unicode="&#xa6;" horiz-adv-x="215" 
d="M100 341q-6 0 -6 8v352q0 9 6 9h15q6 0 6 -9v-352q0 -8 -6 -8h-15zM100 -90q-6 0 -6 9v317q0 9 6 9h15q6 0 6 -9v-317q0 -9 -6 -9h-15z" />
    <glyph glyph-name="section" unicode="&#xa7;" horiz-adv-x="588" 
d="M461 147q70 -40 70 -124q0 -67 -64.5 -117t-162.5 -50q-68 0 -123.5 20.5t-85.5 50t-45.5 56.5t-15.5 45t17 18q8 0 16.5 -17.5t22 -42.5t36 -49.5t69 -42t110.5 -17.5q82 0 139 44.5t57 99.5q0 45 -24 74.5t-62.5 43.5t-85 23t-93.5 19t-85.5 26t-62.5 49.5t-24 83.5
q0 44 22 76.5t53 47.5q-65 43 -65 118q0 76 63.5 120t155.5 44q60 0 109 -16t76.5 -40.5t41.5 -50t14 -46.5q0 -18 -17 -18q-10 0 -17.5 15.5t-18 37.5t-28.5 43.5t-59.5 37t-101.5 15.5q-75 0 -131.5 -39.5t-56.5 -100.5q0 -43 24 -72t62.5 -44.5t85 -26.5t93.5 -22.5
t85.5 -28t62.5 -48t24 -77.5q0 -69 -80 -118zM94 343q0 -44 22.5 -73t62.5 -43.5t81 -23t93 -19.5t84 -25q38 25 56 48.5t18 56.5q0 48 -38 79t-86.5 43t-117 29t-106.5 36q-26 -10 -47.5 -42t-21.5 -66z" />
    <glyph glyph-name="dieresis" unicode="&#xa8;" 
d="M196 600q-16 0 -25.5 9.5t-9.5 25.5q0 17 9.5 27t25.5 10q32 0 32 -37q0 -35 -32 -35zM347 600q-34 0 -34 35q0 37 34 37q15 0 24 -10t9 -27q0 -16 -9 -25.5t-24 -9.5z" />
    <glyph glyph-name="copyright" unicode="&#xa9;" horiz-adv-x="883" 
d="M442 -58q-167 0 -284.5 117t-117.5 284t117.5 283.5t284.5 116.5t284.5 -117t117.5 -283q0 -167 -117.5 -284t-284.5 -117zM442 -36q154 0 264.5 112t110.5 267t-110.5 266.5t-264.5 111.5t-264.5 -111.5t-110.5 -266.5q0 -156 110 -267.5t265 -111.5zM449 122
q-93 0 -158 69t-65 160q0 99 60.5 160t161.5 61q66 0 123.5 -39.5t57.5 -71.5q0 -15 -13 -15q-9 0 -21 16.5t-26 36t-48.5 36t-82.5 16.5q-81 0 -131.5 -54.5t-50.5 -134.5q0 -92 57 -154t148 -62q55 0 93.5 31t56.5 82q3 9 13.5 7t7.5 -13q-15 -55 -61 -93t-122 -38z" />
    <glyph glyph-name="ordfeminine" unicode="&#xaa;" horiz-adv-x="402" 
d="M324 421q1 -14 8 -21t14 -7.5t13 -3t6 -9.5q0 -13 -33 -13q-16 0 -24.5 9.5t-8.5 41.5q-31 -57 -114 -57q-61 0 -98 31.5t-37 78.5q0 48 36.5 77.5t99.5 29.5q65 0 98 -37l-2 26q-12 132 -112 132q-32 0 -51 -11.5t-23.5 -24.5t-10.5 -24.5t-16 -11.5q-16 0 -16 18
q0 26 33.5 50.5t83.5 24.5q126 0 140 -154zM185 381q45 0 75 23t31 59l-3 40q-9 23 -37.5 38.5t-65.5 15.5q-48 0 -77 -22.5t-29 -58.5q0 -41 29.5 -68t76.5 -27z" />
    <glyph glyph-name="guillemotleft" unicode="&#xab;" horiz-adv-x="500" 
d="M208 476q3 5 9.5 5t11 -4t1.5 -10q-22 -47 -57 -84.5t-99 -91.5q4 -4 18 -17.5t18.5 -18t17 -16.5t17.5 -17t15 -15.5t15 -16.5t13 -15.5t13 -16.5t10.5 -15.5t10.5 -16.5q2 -3 -3 -7.5t-11.5 -5t-14.5 6.5q-4 5 -23 28.5t-24.5 30t-21.5 25t-25.5 28t-24 22.5t-28.5 23
q-6 4 -5.5 15t5.5 15q100 66 162 169zM445 467q-23 -47 -57.5 -84t-98.5 -92q4 -4 18 -17.5t18.5 -18t17 -16.5t17.5 -17t15 -15.5t15 -16.5t13 -15.5t13 -16.5t10.5 -15.5t10.5 -16.5q1 -3 -3.5 -7.5t-11 -5t-14.5 6.5q-4 5 -23 28.5t-24.5 30t-21.5 25t-25.5 28t-24 22.5
t-28.5 23q-6 4 -5.5 15t5.5 15q46 31 89.5 76t72.5 93q3 5 9.5 5t11 -4t1.5 -10z" />
    <glyph glyph-name="registered" unicode="&#xae;" horiz-adv-x="883" 
d="M442 743q167 0 284.5 -117t117.5 -283q0 -167 -117.5 -285t-284.5 -118t-284.5 118t-117.5 285t117.5 283.5t284.5 116.5zM442 -34q154 0 264.5 111t110.5 266t-110.5 266.5t-264.5 111.5t-264.5 -111.5t-110.5 -266.5t110 -266t265 -111zM590 174q5 -7 11.5 -11.5
t10.5 -6t7 -3.5t3 -5v-3q0 -7 -11 -7h-58q-11 0 -11 7v3q0 3 12 8.5t4 17.5l-101 142q-4 -1 -12 -1l-98 -3v-140q0 -10 13 -15t13 -8v-4q0 -7 -11 -7h-59q-11 0 -11 7v4q0 3 13 8t13 15v373q0 11 -13 15.5t-13 8.5v4q0 7 11 7h136q75 0 123 -37t49 -94q1 -48 -33 -84
t-94 -46zM444 336q60 0 99 30.5t39 76.5q0 51 -39.5 83t-102.5 32h-77q-16 0 -16 -15v-190q0 -17 22 -17h75z" />
    <glyph glyph-name="macron" unicode="&#xaf;" 
d="M173 623q-13 0 -13 10v6q0 9 13 9h250q12 0 12 -9v-6q0 -10 -12 -10h-250z" />
    <glyph glyph-name="degree" unicode="&#xb0;" horiz-adv-x="395" 
d="M196 395q-67 0 -110.5 47.5t-43.5 114.5q0 68 43.5 115.5t111.5 47.5t111.5 -47.5t43.5 -114.5q0 -68 -43.5 -115.5t-112.5 -47.5zM197 416q56 0 92 41.5t36 100.5q0 58 -36 99.5t-92 41.5t-91.5 -41.5t-35.5 -99.5q0 -59 35.5 -100.5t91.5 -41.5z" />
    <glyph glyph-name="plusminus" unicode="&#xb1;" 
d="M293 111q-7 0 -7 9v166h-164q-9 0 -9 6v12q0 6 9 6h164v166q0 9 7 9h14q7 0 7 -9v-166h164q9 0 9 -6v-12q0 -6 -9 -6h-164v-166q0 -9 -7 -9h-14zM122 0q-9 0 -9 5v13q0 5 9 5h356q9 0 9 -5v-13q0 -5 -9 -5h-356z" />
    <glyph glyph-name="acute" unicode="&#xb4;" horiz-adv-x="319" 
d="M67 564q-11 -5 -15 2q-3 6 4 13l180 120q12 10 20 -3l5 -9q6 -7 -7 -16z" />
    <glyph glyph-name="paragraph" unicode="&#xb6;" horiz-adv-x="587" 
d="M300 -177q-83 0 -135.5 51t-52.5 94q0 22 20 22q11 0 17.5 -15t13.5 -36t20 -42.5t45.5 -36.5t81.5 -15q62 0 105 50t43 149v644h-100v-423q0 -16 -16 -16h-78q-100 0 -166.5 65.5t-66.5 170.5q0 100 66.5 162.5t166.5 62.5h246q18 0 18 -10v-1q0 -8 -20 -12.5t-20 -25.5
l-1 -614q0 -113 -52.5 -168.5t-134.5 -55.5z" />
    <glyph glyph-name="periodcentered" unicode="&#xb7;" horiz-adv-x="199" 
d="M100 349q-17 0 -27 10t-10 26q0 18 10 28.5t27 10.5q16 0 26 -10.5t10 -28.5q0 -16 -10 -26t-26 -10z" />
    <glyph glyph-name="cedilla" unicode="&#xb8;" 
d="M320 -58q42 -1 66.5 -19.5t24.5 -46.5t-25.5 -46.5t-64.5 -18.5q-43 0 -78 23q-6 4 -5.5 10.5t5 9.5t11.5 -1q29 -21 64 -21q26 0 46 12t19 33q-1 23 -23 33t-48 10q-25 0 -19 30l11 50h19z" />
    <glyph glyph-name="ordmasculine" unicode="&#xba;" horiz-adv-x="420" 
d="M217 361q-76 0 -126 53.5t-50 131.5q0 75 46 124.5t123 49.5q69 0 118.5 -55t49.5 -131q0 -75 -46.5 -124t-114.5 -49zM219 382q55 0 92.5 42.5t37.5 105.5q0 71 -42 120t-103 49q-59 0 -96.5 -42.5t-37.5 -105.5q0 -73 41.5 -121t107.5 -48z" />
    <glyph glyph-name="guillemotright" unicode="&#xbb;" horiz-adv-x="504" 
d="M240 307q5 -4 5 -15t-5 -15q-17 -12 -32.5 -26t-32 -32t-26 -29t-30 -36t-27.5 -34q-7 -7 -13.5 -6.5t-11.5 5t-3 7.5q6 11 13.5 22t19 24.5t18 21.5t23 24.5l22 22t26.5 26t25 24.5q-64 55 -98.5 92t-57.5 84q-3 6 1.5 10t11 4t9.5 -5q64 -104 163 -169zM459 307
q5 -4 5.5 -15t-5.5 -15q-14 -10 -28.5 -23t-24 -22.5t-25.5 -28t-21.5 -25t-24.5 -30t-23 -28.5q-8 -7 -14.5 -6.5t-11 5t-3.5 7.5q5 8 10.5 16.5t10.5 15.5t13 16.5t13 15.5t15 16.5t15 15.5t17.5 17t17 16.5t18.5 18t18 17.5q-63 53 -98 91t-58 85q-3 6 1.5 10t11 4
t9.5 -5q29 -48 72.5 -93t89.5 -76z" />
    <glyph glyph-name="onequarter" unicode="&#xbc;" horiz-adv-x="649" 
d="M159 368q0 -8 -18 -8h-68q-18 0 -18 8v4q0 3 18.5 9.5t18.5 25.5v231q0 18 -9 23.5t-19 1.5t-19 -4.5t-9 6.5v2q0 7 12 12l84 31q14 7 14 -4v-3q0 -4 -6.5 -8t-13 -13.5t-6.5 -26.5v-248q0 -19 19.5 -25.5t19.5 -9.5v-4zM508 547q6 -6 -1 -14l-369 -343q-9 -7 -16 -2
l-6 5q-8 8 -1 13l373 345q9 6 16 0zM610 122q10 0 10 -7v-7q0 -8 -10 -8h-65v-55q0 -14 9 -19.5t18 -8t9 -8.5v-2q0 -7 -13 -7h-72q-14 0 -14 7v2q0 6 9 8.5t18 8t9 19.5v55h-191q-12 0 -12 10v1q0 8 6 15l189 244q10 12 18 12h9q8 0 8 -12v-248h65zM348 122h170v227z" />
    <glyph glyph-name="onehalf" unicode="&#xbd;" horiz-adv-x="683" 
d="M150 368q0 -8 -18 -8h-58q-18 0 -18 8v4q0 3 16 9.5t16 25.5v235q0 17 -8 21.5t-18 0t-18 -5t-8 6.5v2q0 7 12 12l79 31q14 7 14 -4v-3q0 -3 -13 -13.5t-13 -30.5v-252q0 -19 17.5 -25.5t17.5 -9.5v-4zM503 547q6 -6 -1 -14l-369 -343q-8 -8 -16 -2l-6 5q-7 7 -1 13
l373 345q9 7 16 0zM646 91q10 0 7 -8l-25 -72q-4 -9 -12 -9h-241q-7 0 -7 7v2q0 29 23 56.5t56 49t66.5 42.5t56.5 47.5t23 53.5q0 36 -24 57t-63 21q-32 0 -54 -13.5t-29.5 -29t-15 -29t-15.5 -13.5q-13 0 -13 17q0 31 37.5 60t88.5 29q52 0 83.5 -28t31.5 -71
q0 -36 -32.5 -70t-72.5 -56t-77.5 -52t-45.5 -58h190q14 0 25.5 16.5t19.5 33.5t15 17h4z" />
    <glyph glyph-name="threequarters" unicode="&#xbe;" horiz-adv-x="675" 
d="M307 458q0 -43 -38 -75t-96 -32q-63 0 -103.5 33t-40.5 62q0 14 11 14q8 0 13.5 -9t12.5 -22t17.5 -26.5t33.5 -22.5t56 -9q45 0 76 25.5t31 60.5q0 39 -32.5 62.5t-85.5 23.5h-6q-8 0 -10.5 6t2.5 13l113 126h-194q-10 0 -10 8v6q0 8 10 8h224q8 0 8 -6v-3q0 -4 -4 -8
l-123 -133q57 -2 96 -29.5t39 -72.5zM596 547q6 -6 -1 -14l-369 -343q-9 -7 -16 -2l-6 5q-7 7 -1 13l373 345q9 6 16 0zM630 122q10 0 10 -7v-7q0 -8 -10 -8h-65v-55q0 -14 8.5 -19.5t17.5 -8t9 -8.5v-2q0 -7 -13 -7h-71q-14 0 -14 7v2q0 6 9 8.5t17.5 8t8.5 19.5v55h-190
q-13 0 -13 10v1q0 8 6 15l189 244q10 12 18 12h9q9 0 9 -12v-248h65zM367 122h170v226z" />
    <glyph glyph-name="questiondown" unicode="&#xbf;" horiz-adv-x="465" 
d="M260 408q-15 0 -25 10.5t-10 25.5q0 17 9.5 27.5t25.5 10.5q15 0 24.5 -10.5t9.5 -27.5q0 -15 -9.5 -25.5t-24.5 -10.5zM228 -241q-84 0 -139.5 47t-55.5 133q0 42 16 78t40.5 61t53 52.5t53 52t40.5 60t16 75.5q0 13 12.5 12.5t12.5 -12.5q1 -52 -21 -94.5t-53.5 -72.5
t-63.5 -58.5t-54 -68t-22 -86.5q0 -71 48.5 -114t115.5 -43q49 0 84.5 16t52 38.5t26.5 45.5t16.5 39t14.5 16q19 0 19 -20q0 -18 -13 -43t-37 -51.5t-67 -44.5t-95 -18z" />
    <glyph glyph-name="Agrave" unicode="&#xc0;" horiz-adv-x="646" 
d="M396 795l-202 72q-14 5 -11 15l4 9q5 14 19 7l198 -87q9 -4 7 -11q-3 -9 -15 -5zM28 0q-17 0 -17 7v2q0 4 17 11.5t23 22.5l245 623q4 12 -12 20.5t-16 14.5v2q0 7 11 7h72q11 0 11 -7v-2q0 -6 -17 -14.5t-13 -19.5l267 -624q6 -15 24 -22.5t18 -11.5v-2q0 -7 -18 -7h-64
q-17 0 -17 7v2q0 3 17 10.5t11 23.5l-68 157h-363l-61 -157q-6 -16 11 -23.5t17 -10.5v-2q0 -7 -18 -7h-60zM147 222h347l-181 426z" />
    <glyph glyph-name="Aacute" unicode="&#xc1;" horiz-adv-x="646" 
d="M233 789q-12 -2 -15 6q-1 7 7 11l202 77q15 6 19 -7l3 -10q3 -10 -11 -14zM28 0q-17 0 -17 7v2q0 4 17 11.5t23 22.5l245 623q4 12 -12 20.5t-16 14.5v2q0 7 11 7h72q11 0 11 -7v-2q0 -6 -17 -14.5t-13 -19.5l267 -624q6 -15 24 -22.5t18 -11.5v-2q0 -7 -18 -7h-64
q-17 0 -17 7v2q0 3 17 10.5t11 23.5l-68 157h-363l-61 -157q-6 -16 11 -23.5t17 -10.5v-2q0 -7 -18 -7h-60zM147 222h347l-181 426z" />
    <glyph glyph-name="Acircumflex" unicode="&#xc2;" horiz-adv-x="646" 
d="M206 768q-6 -4 -11.5 -2.5t-6 6.5t4.5 10l110 91q12 10 19 10h7q7 0 19 -10l111 -91q6 -5 5.5 -10.5t-5 -7t-12.5 3.5l-121 88zM599 43q6 -15 24 -22.5t18 -11.5v-2q0 -7 -18 -7h-64q-17 0 -17 7v2q0 3 17 10.5t11 23.5l-68 157h-363l-61 -157q-6 -16 11 -23.5t17 -10.5
v-2q0 -7 -18 -7h-60q-17 0 -17 7v2q0 4 17 11.5t23 22.5l245 623q4 12 -12 20.5t-16 14.5v2q0 7 11 7h72q11 0 11 -7v-2q0 -6 -17 -14.5t-13 -19.5zM147 222h347l-181 426z" />
    <glyph glyph-name="Atilde" unicode="&#xc3;" horiz-adv-x="646" 
d="M254 879q32 0 81 -32t67 -32q40 0 59 49q3 11 12 11h4q9 0 6 -13q-18 -71 -83 -71q-30 0 -77 32t-70 32q-20 0 -36 -14t-24 -38q-3 -13 -8 -13h-6q-10 0 -7 14q18 75 82 75zM28 0q-17 0 -17 7v2q0 4 17 11.5t23 22.5l245 623q4 12 -12 20.5t-16 14.5v2q0 7 11 7h72
q11 0 11 -7v-2q0 -6 -17 -14.5t-13 -19.5l267 -624q6 -15 24 -22.5t18 -11.5v-2q0 -7 -18 -7h-64q-17 0 -17 7v2q0 3 17 10.5t11 23.5l-68 157h-363l-61 -157q-6 -16 11 -23.5t17 -10.5v-2q0 -7 -18 -7h-60zM147 222h347l-181 426z" />
    <glyph glyph-name="Adieresis" unicode="&#xc4;" horiz-adv-x="646" 
d="M251 807q-35 0 -35 36q0 17 9.5 27t25.5 10q32 0 32 -37q0 -36 -32 -36zM402 807q-34 0 -34 36q0 37 34 37q15 0 24 -10t9 -27t-9 -26.5t-24 -9.5zM28 0q-17 0 -17 7v2q0 4 17 11.5t23 22.5l245 623q4 12 -12 20.5t-16 14.5v2q0 7 11 7h72q11 0 11 -7v-2q0 -6 -17 -14.5
t-13 -19.5l267 -624q6 -15 24 -22.5t18 -11.5v-2q0 -7 -18 -7h-64q-17 0 -17 7v2q0 3 17 10.5t11 23.5l-68 157h-363l-61 -157q-6 -16 11 -23.5t17 -10.5v-2q0 -7 -18 -7h-60zM147 222h347l-181 426z" />
    <glyph glyph-name="Aring" unicode="&#xc5;" horiz-adv-x="646" 
d="M325 771q-41 0 -68 27t-27 65t27 65.5t69 27.5t69 -27t27 -65q0 -39 -27 -66t-70 -27zM326 792q31 0 50 21t19 51q0 29 -19.5 50t-49.5 21t-49.5 -21t-19.5 -50q0 -30 19 -51t50 -21zM28 0q-17 0 -17 7v2q0 4 17 11.5t23 22.5l245 623q4 12 -12 20.5t-16 14.5v2q0 7 11 7
h72q11 0 11 -7v-2q0 -6 -17 -14.5t-13 -19.5l267 -624q6 -15 24 -22.5t18 -11.5v-2q0 -7 -18 -7h-64q-17 0 -17 7v2q0 3 17 10.5t11 23.5l-68 157h-363l-61 -157q-6 -16 11 -23.5t17 -10.5v-2q0 -7 -18 -7h-60zM147 222h347l-181 426z" />
    <glyph glyph-name="AE" unicode="&#xc6;" horiz-adv-x="905" 
d="M874 111q10 0 6 -13l-24 -82q-4 -16 -20 -16h-398q-18 0 -18 7v2q0 6 17.5 13t17.5 23v157h-286l-98 -159q-9 -15 9 -23t18 -10v-2q0 -8 -18 -8h-66q-18 0 -18 8v2q0 4 6.5 6t17.5 8.5t19 19.5l379 612q9 19 5 25t-13.5 11t-9.5 9v2q0 7 14 7h392q14 0 19 -17l24 -81
q5 -14 -5 -14h-4q-6 0 -15.5 22.5t-23.5 45t-31 22.5h-269q-17 0 -17 -26v-285h265q15 0 22 22t12 22h1q10 0 10 -18v-74q0 -18 -10 -18h-1q-5 0 -12 22t-22 22h-265v-309q0 -12 6 -18.5t15 -6.5h297q17 0 30.5 22.5t23 45t15.5 22.5h3zM182 224h273v444z" />
    <glyph glyph-name="Ccedilla" unicode="&#xc7;" horiz-adv-x="689" 
d="M636 221q3 9 11 11.5t13 -3t1 -17.5q-18 -56 -51 -103t-91 -82t-130 -37l-3 -48q42 -1 66.5 -19.5t24.5 -46.5t-25 -46.5t-64 -18.5q-44 0 -79 23q-5 4 -5 10.5t4.5 9.5t11.5 -1q29 -21 65 -21q26 0 45.5 12t18.5 33q-1 23 -23 33t-48 10q-25 0 -19 30l9 40
q-127 5 -224.5 112t-97.5 259q0 159 94.5 259t236.5 100q56 0 107.5 -21t84 -51t51.5 -60t19 -51q0 -19 -18 -19q-11 0 -21 18.5t-24.5 45t-36.5 53t-67.5 45t-108.5 18.5q-117 0 -202 -93.5t-85 -233.5q0 -152 93 -254t221 -102q95 0 155.5 60t90.5 146z" />
    <glyph glyph-name="Egrave" unicode="&#xc8;" horiz-adv-x="585" 
d="M368 795l-203 72q-14 5 -10 15l3 9q6 13 20 7l198 -87q8 -4 6 -11q-3 -9 -14 -5zM89 0q-17 0 -17 7v2q0 4 8.5 6.5t17 9t8.5 20.5v619q0 19 -17 27t-17 11v2q0 6 13 6h402q15 0 20 -17l24 -80q4 -15 -5 -15h-4q-6 0 -15 22.5t-23 45t-32 22.5h-300q-17 0 -17 -24v-287
h240q15 0 20.5 22t11.5 22h2q9 0 9 -12v-85q0 -13 -9 -13h-2q-6 0 -11.5 22t-20.5 22h-240l-1 -309q0 -24 22 -24h327q18 0 31.5 22t23 44.5t16.5 22.5h3q10 0 6 -13l-24 -81q-5 -17 -20 -17h-430z" />
    <glyph glyph-name="Eacute" unicode="&#xc9;" horiz-adv-x="585" 
d="M204 789q-12 -2 -14 6q-1 7 7 11l202 77q14 7 19 -7l3 -10q3 -10 -11 -14zM89 0q-17 0 -17 7v2q0 4 8.5 6.5t17 9t8.5 20.5v619q0 19 -17 27t-17 11v2q0 6 13 6h402q15 0 20 -17l24 -80q4 -15 -5 -15h-4q-6 0 -15 22.5t-23 45t-32 22.5h-300q-17 0 -17 -24v-287h240
q15 0 20.5 22t11.5 22h2q9 0 9 -12v-85q0 -13 -9 -13h-2q-6 0 -11.5 22t-20.5 22h-240l-1 -309q0 -24 22 -24h327q18 0 31.5 22t23 44.5t16.5 22.5h3q10 0 6 -13l-24 -81q-5 -17 -20 -17h-430z" />
    <glyph glyph-name="Ecircumflex" unicode="&#xca;" horiz-adv-x="585" 
d="M177 768q-6 -4 -11.5 -2.5t-5.5 6.5t5 10l110 91q12 10 19 10h7q7 0 19 -10l110 -91q6 -5 5.5 -10.5t-5 -7t-12.5 3.5l-121 88zM557 111q10 0 6 -13l-24 -81q-5 -17 -20 -17h-430q-17 0 -17 7v2q0 4 8.5 6.5t17 9t8.5 20.5v619q0 19 -17 27t-17 11v2q0 6 13 6h402
q15 0 20 -17l24 -80q4 -15 -5 -15h-4q-6 0 -15 22.5t-23 45t-32 22.5h-300q-17 0 -17 -24v-287h240q15 0 20.5 22t11.5 22h2q9 0 9 -12v-85q0 -13 -9 -13h-2q-6 0 -11.5 22t-20.5 22h-240l-1 -309q0 -24 22 -24h327q18 0 31.5 22t23 44.5t16.5 22.5h3z" />
    <glyph glyph-name="Edieresis" unicode="&#xcb;" horiz-adv-x="585" 
d="M219 807q-35 0 -35 36q0 17 9.5 27t25.5 10q31 0 31 -37q0 -36 -31 -36zM370 807q-34 0 -34 36q0 37 34 37q14 0 23 -10t9 -27t-9 -26.5t-23 -9.5zM89 0q-17 0 -17 7v2q0 4 8.5 6.5t17 9t8.5 20.5v619q0 19 -17 27t-17 11v2q0 6 13 6h402q15 0 20 -17l24 -80
q4 -15 -5 -15h-4q-6 0 -15 22.5t-23 45t-32 22.5h-300q-17 0 -17 -24v-287h240q15 0 20.5 22t11.5 22h2q9 0 9 -12v-85q0 -13 -9 -13h-2q-6 0 -11.5 22t-20.5 22h-240l-1 -309q0 -24 22 -24h327q18 0 31.5 22t23 44.5t16.5 22.5h3q10 0 6 -13l-24 -81q-5 -17 -20 -17h-430z
" />
    <glyph glyph-name="Igrave" unicode="&#xcc;" horiz-adv-x="242" 
d="M187 795l-203 72q-14 5 -11 15l4 9q6 13 20 7l198 -87q7 -5 6 -11q-3 -9 -14 -5zM73 7v1q0 3 16.5 10.5t16.5 23.5v625q0 16 -16.5 23.5t-16.5 10.5v2q0 7 17 7h63q17 0 17 -7v-2q0 -3 -17 -10.5t-17 -23.5v-625q0 -16 17 -23.5t17 -10.5v-1q0 -8 -17 -8h-63q-17 0 -17 8
z" />
    <glyph glyph-name="Iacute" unicode="&#xcd;" horiz-adv-x="242" 
d="M23 789q-12 -2 -14 6q-1 7 7 11l202 77q14 7 19 -7l3 -10q3 -10 -11 -14zM73 7v1q0 3 16.5 10.5t16.5 23.5v625q0 16 -16.5 23.5t-16.5 10.5v2q0 7 17 7h63q17 0 17 -7v-2q0 -3 -17 -10.5t-17 -23.5v-625q0 -16 17 -23.5t17 -10.5v-1q0 -8 -17 -8h-63q-17 0 -17 8z" />
    <glyph glyph-name="Icircumflex" unicode="&#xce;" horiz-adv-x="242" 
d="M249 782q6 -5 5.5 -10.5t-5 -7t-12.5 3.5l-121 88l-120 -88q-6 -4 -11.5 -2.5t-6 6.5t4.5 10l110 91q13 10 20 10h7q7 0 19 -10zM153 710q17 0 17 -7v-2q0 -3 -17 -10.5t-17 -23.5v-625q0 -16 17 -23.5t17 -10.5v-1q0 -8 -17 -8h-63q-17 0 -17 8v1q0 3 16.5 10.5
t16.5 23.5v625q0 16 -16.5 23.5t-16.5 10.5v2q0 7 17 7h63z" />
    <glyph glyph-name="Idieresis" unicode="&#xcf;" horiz-adv-x="242" 
d="M41 807q-15 0 -24.5 9.5t-9.5 26.5t9.5 27t24.5 10q32 0 32 -37q0 -36 -32 -36zM192 807q-33 0 -33 36q0 17 9 27t24 10t24 -10t9 -27t-9 -26.5t-24 -9.5zM73 7v1q0 3 16.5 10.5t16.5 23.5v625q0 16 -16.5 23.5t-16.5 10.5v2q0 7 17 7h63q17 0 17 -7v-2q0 -3 -17 -10.5
t-17 -23.5v-625q0 -16 17 -23.5t17 -10.5v-1q0 -8 -17 -8h-63q-17 0 -17 8z" />
    <glyph glyph-name="Eth" unicode="&#xd0;" horiz-adv-x="726" 
d="M310 710q65 0 129.5 -22t119 -63.5t88 -108.5t33.5 -148q0 -115 -50 -200t-129 -126.5t-174 -41.5h-234q-18 0 -18 7v2q0 3 17 11t17 23v301h-62q-13 0 -13 10v5q0 7 13 7h62v300q0 17 -17 24.5t-17 10.5v2q0 7 18 7h217zM324 22q62 0 119.5 22t103.5 63t74 107t28 148
q0 80 -32.5 145t-84 103t-110 58t-115.5 20h-152q-16 0 -16 -22v-300h168q12 0 12 -8v-4q0 -10 -12 -10h-168v-299q0 -23 19 -23h166z" />
    <glyph glyph-name="Ntilde" unicode="&#xd1;" horiz-adv-x="743" 
d="M239 790q-10 0 -7 14q18 75 82 75q31 0 80 -32t68 -32q40 0 59 49q3 11 11 11h4q10 0 7 -13q-20 -71 -83 -71q-30 0 -77 32t-70 32q-43 0 -60 -52q-3 -13 -9 -13h-5zM658 710q17 0 17 -6v-2q0 -3 -18.5 -11.5t-18.5 -24.5v-652q0 -14 -11 -14h-4q-8 0 -22 21l-469 652
v-625q0 -16 19.5 -26t19.5 -13v-2q0 -7 -18 -7h-66q-17 0 -17 7v2q0 3 18 13t18 26v617q0 16 -18 24.5t-18 11.5v2q0 7 17 7h92q11 0 11 -6v-2q0 -4 -10 -8t-15 -9t4 -20l443 -614v615q0 16 -19 24.5t-19 11.5v2q0 6 18 6h66z" />
    <glyph glyph-name="Ograve" unicode="&#xd2;" horiz-adv-x="780" 
d="M460 795l-203 72q-14 5 -10 15l3 9q6 13 20 7l198 -87q8 -4 6 -11q-3 -9 -14 -5zM401 -10q-151 0 -253.5 112t-102.5 258q0 152 98 256t248 104q146 0 245 -107t99 -261q0 -142 -97 -252t-237 -110zM403 12q85 0 155.5 49t108.5 125.5t38 159.5q0 148 -91.5 250
t-231.5 102q-132 0 -219.5 -97t-87.5 -237q0 -89 41.5 -169.5t118 -131.5t168.5 -51z" />
    <glyph glyph-name="Oacute" unicode="&#xd3;" horiz-adv-x="780" 
d="M296 789q-12 -2 -14 6q-1 7 7 11l202 77q14 7 19 -7l3 -10q3 -10 -11 -14zM401 -10q-151 0 -253.5 112t-102.5 258q0 152 98 256t248 104q146 0 245 -107t99 -261q0 -142 -97 -252t-237 -110zM403 12q85 0 155.5 49t108.5 125.5t38 159.5q0 148 -91.5 250t-231.5 102
q-132 0 -219.5 -97t-87.5 -237q0 -89 41.5 -169.5t118 -131.5t168.5 -51z" />
    <glyph glyph-name="Ocircumflex" unicode="&#xd4;" horiz-adv-x="780" 
d="M269 768q-6 -4 -11.5 -2.5t-5.5 6.5t5 10l110 91q12 10 19 10h7q7 0 19 -10l110 -91q6 -5 5.5 -10.5t-5 -7t-12.5 3.5l-121 88zM391 720q146 0 245 -107t99 -261q0 -142 -97 -252t-237 -110q-151 0 -253.5 112t-102.5 258q0 152 98 256t248 104zM403 12q85 0 155.5 49
t108.5 125.5t38 159.5q0 148 -91.5 250t-231.5 102q-132 0 -219.5 -97t-87.5 -237q0 -89 41.5 -169.5t118 -131.5t168.5 -51z" />
    <glyph glyph-name="Otilde" unicode="&#xd5;" horiz-adv-x="780" 
d="M319 879q31 0 80 -32t67 -32q41 0 60 49q3 11 11 11h4q10 0 7 -13q-20 -71 -83 -71q-30 0 -77 32t-70 32q-43 0 -60 -52q-3 -13 -9 -13h-5q-4 0 -6.5 4t-1.5 10q18 75 83 75zM401 -10q-151 0 -253.5 112t-102.5 258q0 152 98 256t248 104q146 0 245 -107t99 -261
q0 -142 -97 -252t-237 -110zM403 12q85 0 155.5 49t108.5 125.5t38 159.5q0 148 -91.5 250t-231.5 102q-132 0 -219.5 -97t-87.5 -237q0 -89 41.5 -169.5t118 -131.5t168.5 -51z" />
    <glyph glyph-name="Odieresis" unicode="&#xd6;" horiz-adv-x="780" 
d="M315 807q-35 0 -35 36q0 17 9.5 27t25.5 10q31 0 31 -37q0 -36 -31 -36zM465 807q-33 0 -33 36q0 17 9 27t24 10t24 -10t9 -27t-9 -26.5t-24 -9.5zM401 -10q-151 0 -253.5 112t-102.5 258q0 152 98 256t248 104q146 0 245 -107t99 -261q0 -142 -97 -252t-237 -110z
M403 12q85 0 155.5 49t108.5 125.5t38 159.5q0 148 -91.5 250t-231.5 102q-132 0 -219.5 -97t-87.5 -237q0 -89 41.5 -169.5t118 -131.5t168.5 -51z" />
    <glyph glyph-name="multiply" unicode="&#xd7;" 
d="M173 119l-9 9q-4 4 2 10l116 117l-116 118q-6 6 -2 10l9 9q3 4 9 -2l119 -116l117 116q6 6 9 2l9 -9q4 -4 -2 -10l-116 -116l116 -119q6 -6 2 -10l-9 -9q-4 -4 -9 3l-119 115l-117 -115q-5 -7 -9 -3z" />
    <glyph glyph-name="Oslash" unicode="&#xd8;" horiz-adv-x="799" 
d="M665 591q81 -102 81 -239q0 -142 -97 -252t-237 -110q-153 0 -259 118l-85 -81q-7 -5 -11 -1l-8 8q-3 4 4 11l85 80q-82 104 -82 235q0 152 97.5 256t247.5 104q149 0 250 -112l63 60q8 8 14 3l5 -5q5 -6 -3 -14zM86 364q0 -119 73 -219l471 444q-93 109 -237 109
q-132 0 -219.5 -97t-87.5 -237zM414 12q85 0 155.5 49t108.5 125.5t38 159.5q0 129 -71 225l-471 -444q97 -115 240 -115z" />
    <glyph glyph-name="Ugrave" unicode="&#xd9;" horiz-adv-x="729" 
d="M234 867q-14 5 -11 15l4 9q5 14 19 7l199 -87q7 -5 6 -11q-3 -9 -15 -5zM616 69q0 -28 17 -37t34 -10t17 -10q0 -18 -45 -18q-14 0 -19.5 1t-15.5 7t-13.5 22t-3.5 43v58q-29 -64 -91 -100t-146 -36q-117 0 -185.5 77.5t-68.5 207.5v378q0 14 -8.5 22t-17 12.5t-8.5 8.5
v2q0 7 9 10l40 14q15 5 15 -7v-439q0 -120 60 -192t163 -72q107 0 172.5 61.5t65.5 160.5v419q0 14 -9.5 22t-18.5 12.5t-9 8.5v2q0 7 9 10l42 13q16 5 16 -6z" />
    <glyph glyph-name="Uacute" unicode="&#xda;" horiz-adv-x="729" 
d="M273 789q-12 -2 -14 6q-2 6 6 11l202 77q14 6 20 -7l3 -10q3 -10 -11 -14zM616 69q0 -28 17 -37t34 -10t17 -10q0 -18 -45 -18q-14 0 -19.5 1t-15.5 7t-13.5 22t-3.5 43v58q-29 -64 -91 -100t-146 -36q-117 0 -185.5 77.5t-68.5 207.5v378q0 14 -8.5 22t-17 12.5
t-8.5 8.5v2q0 7 9 10l40 14q15 5 15 -7v-439q0 -120 60 -192t163 -72q107 0 172.5 61.5t65.5 160.5v419q0 14 -9.5 22t-18.5 12.5t-9 8.5v2q0 7 9 10l42 13q16 5 16 -6z" />
    <glyph glyph-name="Ucircumflex" unicode="&#xdb;" horiz-adv-x="729" 
d="M246 768q-6 -4 -11.5 -2.5t-6 6.5t4.5 10l110 91q13 10 19 10h8q6 0 19 -10l110 -91q6 -5 5.5 -10.5t-5 -7t-12.5 3.5l-121 88zM616 69q0 -28 17 -37t34 -10t17 -10q0 -18 -45 -18q-14 0 -19.5 1t-15.5 7t-13.5 22t-3.5 43v58q-29 -64 -91 -100t-146 -36
q-117 0 -185.5 77.5t-68.5 207.5v378q0 14 -8.5 22t-17 12.5t-8.5 8.5v2q0 7 9 10l40 14q15 5 15 -7v-439q0 -120 60 -192t163 -72q107 0 172.5 61.5t65.5 160.5v419q0 14 -9.5 22t-18.5 12.5t-9 8.5v2q0 7 9 10l42 13q16 5 16 -6z" />
    <glyph glyph-name="Udieresis" unicode="&#xdc;" horiz-adv-x="729" 
d="M291 807q-15 0 -24.5 9.5t-9.5 26.5t9.5 27t24.5 10q32 0 32 -37q0 -36 -32 -36zM442 807q-15 0 -24.5 9.5t-9.5 26.5t9.5 27t24.5 10t24 -10t9 -27t-9 -26.5t-24 -9.5zM616 69q0 -28 17 -37t34 -10t17 -10q0 -18 -45 -18q-14 0 -19.5 1t-15.5 7t-13.5 22t-3.5 43v58
q-29 -64 -91 -100t-146 -36q-117 0 -185.5 77.5t-68.5 207.5v378q0 14 -8.5 22t-17 12.5t-8.5 8.5v2q0 7 9 10l40 14q15 5 15 -7v-439q0 -120 60 -192t163 -72q107 0 172.5 61.5t65.5 160.5v419q0 14 -9.5 22t-18.5 12.5t-9 8.5v2q0 7 9 10l42 13q16 5 16 -6z" />
    <glyph glyph-name="Yacute" unicode="&#xdd;" horiz-adv-x="637" 
d="M232 789q-11 -2 -14 6q-1 7 7 11l202 77q14 7 19 -7l3 -10q3 -10 -11 -14zM607 710q17 0 17 -6v-2q0 -5 -6.5 -7.5t-17.5 -8.5t-19 -19l-244 -379v-245q0 -16 17 -23.5t17 -10.5v-2q0 -7 -17 -7h-64q-17 0 -17 7v2q0 3 16.5 10.5t16.5 23.5v243l-250 381q-7 11 -19 17
t-20 9.5t-8 7.5v2q0 7 18 7h68q17 0 17 -7v-2q0 -3 -16 -11t-7 -23l235 -363l233 363q11 16 -9 23.5t-20 10.5v2q0 7 15 7h64z" />
    <glyph glyph-name="Thorn" unicode="&#xde;" horiz-adv-x="597" 
d="M90 0q-17 0 -17 9v2q0 3 16.5 10.5t16.5 23.5v620q0 19 -16.5 26t-16.5 10v2q0 7 17 7h63q18 0 18 -7v-2q0 -3 -17.5 -10t-17.5 -26v-66h120q129 0 215.5 -58t86.5 -165q0 -114 -75 -176t-210 -62h-137v-93q0 -16 17.5 -23.5t17.5 -10.5v-2q0 -9 -18 -9h-63zM161 160h112
q117 0 186 55t69 153q0 102 -77.5 155t-194.5 53h-95q-12 0 -18.5 -8t-6.5 -20v-363q0 -25 25 -25z" />
    <glyph glyph-name="germandbls" unicode="&#xdf;" horiz-adv-x="529" 
d="M329 394q69 -14 114.5 -67t45.5 -136q0 -89 -56.5 -140t-143.5 -51q-7 0 -10 5.5t-0.5 11t9.5 5.5q73 0 122 42.5t49 127.5q0 79 -49 134t-132 55q-7 0 -7 11t7 11q45 0 87 47.5t42 114.5q0 70 -41.5 112.5t-109.5 43.5q-66 0 -106 -45t-40 -119v-509q0 -19 19 -27.5
t19 -12.5v-2q0 -6 -9 -6h-86q-10 0 -10 6v2q0 4 18.5 12.5t18.5 27.5v511q0 81 49 132t127 51t129.5 -49t51.5 -126q0 -56 -31.5 -104t-76.5 -69z" />
    <glyph glyph-name="agrave" unicode="&#xe0;" horiz-adv-x="561" 
d="M184 670q-13 7 -8 17l6 8q7 13 20 3l180 -120q7 -7 4 -12q-5 -9 -15 -3zM476 44q0 -17 17.5 -25t17.5 -11v-2q0 -6 -9 -6h-45q-10 0 -10 10v95q-23 -55 -72 -85t-105 -30q-94 0 -161.5 72.5t-67.5 179.5q0 108 65.5 178t169.5 70q54 0 101.5 -30t70.5 -75v93q0 9 5 12
t15 -2l32 -17q10 -6 10 -11v-2q0 -3 -17 -13.5t-17 -27.5v-373zM279 12q60 0 114 48t54 128v133q-1 52 -54.5 100t-126.5 48q-84 0 -139.5 -63.5t-55.5 -157.5q0 -103 59 -169.5t149 -66.5z" />
    <glyph glyph-name="aacute" unicode="&#xe1;" horiz-adv-x="561" 
d="M201 564q-10 -5 -15 3q-5 6 4 12l180 120q12 11 20 -3l5 -8q6 -9 -7 -17zM476 44q0 -17 17.5 -25t17.5 -11v-2q0 -6 -9 -6h-45q-10 0 -10 10v95q-23 -55 -72 -85t-105 -30q-94 0 -161.5 72.5t-67.5 179.5q0 108 65.5 178t169.5 70q54 0 101.5 -30t70.5 -75v93q0 9 5 12
t15 -2l32 -17q10 -6 10 -11v-2q0 -3 -17 -13.5t-17 -27.5v-373zM279 12q60 0 114 48t54 128v133q-1 52 -54.5 100t-126.5 48q-84 0 -139.5 -63.5t-55.5 -157.5q0 -103 59 -169.5t149 -66.5z" />
    <glyph glyph-name="acircumflex" unicode="&#xe2;" horiz-adv-x="561" 
d="M161 566q-6 -4 -11.5 -2t-6 7t4.5 10l110 91q12 9 19 9h7q8 0 20 -9l110 -91q9 -8 4 -15t-16 0l-121 88zM476 44q0 -17 17.5 -25t17.5 -11v-2q0 -6 -9 -6h-45q-10 0 -10 10v95q-23 -55 -72 -85t-105 -30q-94 0 -161.5 72.5t-67.5 179.5q0 108 65.5 178t169.5 70
q54 0 101.5 -30t70.5 -75v93q0 9 5 12t15 -2l32 -17q10 -6 10 -11v-2q0 -3 -17 -13.5t-17 -27.5v-373zM279 12q60 0 114 48t54 128v133q-1 52 -54.5 100t-126.5 48q-84 0 -139.5 -63.5t-55.5 -157.5q0 -103 59 -169.5t149 -66.5z" />
    <glyph glyph-name="atilde" unicode="&#xe3;" horiz-adv-x="561" 
d="M124 604q-11 0 -8 14q18 75 83 75q31 0 80 -32t67 -32q42 0 59 49q4 11 12 11h4q10 0 7 -13q-20 -71 -84 -71q-30 0 -76.5 32t-69.5 32q-43 0 -60 -52q-4 -13 -9 -13h-5zM476 44q0 -17 17.5 -25t17.5 -11v-2q0 -6 -9 -6h-45q-10 0 -10 10v95q-23 -55 -72 -85t-105 -30
q-94 0 -161.5 72.5t-67.5 179.5q0 108 65.5 178t169.5 70q54 0 101.5 -30t70.5 -75v93q0 9 5 12t15 -2l32 -17q10 -6 10 -11v-2q0 -3 -17 -13.5t-17 -27.5v-373zM279 12q60 0 114 48t54 128v133q-1 52 -54.5 100t-126.5 48q-84 0 -139.5 -63.5t-55.5 -157.5
q0 -103 59 -169.5t149 -66.5z" />
    <glyph glyph-name="adieresis" unicode="&#xe4;" horiz-adv-x="561" 
d="M208 600q-16 0 -25.5 9.5t-9.5 25.5q0 17 9.5 27t25.5 10q32 0 32 -37q0 -35 -32 -35zM359 600q-34 0 -34 35q0 37 34 37q15 0 24 -10t9 -27q0 -16 -9 -25.5t-24 -9.5zM476 44q0 -17 17.5 -25t17.5 -11v-2q0 -6 -9 -6h-45q-10 0 -10 10v95q-23 -55 -72 -85t-105 -30
q-94 0 -161.5 72.5t-67.5 179.5q0 108 65.5 178t169.5 70q54 0 101.5 -30t70.5 -75v93q0 9 5 12t15 -2l32 -17q10 -6 10 -11v-2q0 -3 -17 -13.5t-17 -27.5v-373zM279 12q60 0 114 48t54 128v133q-1 52 -54.5 100t-126.5 48q-84 0 -139.5 -63.5t-55.5 -157.5
q0 -103 59 -169.5t149 -66.5z" />
    <glyph glyph-name="aring" unicode="&#xe5;" horiz-adv-x="561" 
d="M280 553q-41 0 -68 27t-27 66q0 38 27 65.5t69 27.5t69 -27.5t27 -65.5q0 -39 -27 -66t-70 -27zM281 718q-30 0 -49.5 -21.5t-19.5 -50.5q0 -30 19 -51t50 -21t50 21t19 51q0 29 -19.5 50.5t-49.5 21.5zM476 44q0 -17 17.5 -25t17.5 -11v-2q0 -6 -9 -6h-45q-10 0 -10 10
v95q-23 -55 -72 -85t-105 -30q-94 0 -161.5 72.5t-67.5 179.5q0 108 65.5 178t169.5 70q54 0 101.5 -30t70.5 -75v93q0 9 5 12t15 -2l32 -17q10 -6 10 -11v-2q0 -3 -17 -13.5t-17 -27.5v-373zM279 12q60 0 114 48t54 128v133q-1 52 -54.5 100t-126.5 48q-84 0 -139.5 -63.5
t-55.5 -157.5q0 -103 59 -169.5t149 -66.5z" />
    <glyph glyph-name="ae" unicode="&#xe6;" horiz-adv-x="823" 
d="M765 149q4 11 15.5 8t8.5 -15q-17 -69 -69 -110.5t-130 -41.5q-66 0 -116 37t-77 97q-9 -56 -55.5 -95t-112.5 -39q-82 0 -133.5 42t-51.5 108q0 67 49.5 106.5t136.5 39.5q92 0 140 -53l-4 41q-17 195 -159 195q-43 0 -70.5 -16t-36 -35t-17.5 -35t-19 -16q-18 0 -18 20
q0 34 48.5 68.5t112.5 34.5q140 0 178 -155q22 71 77 113t133 42q73 0 129 -51t56 -109q0 -28 -31 -35l-348 -95q15 -82 68.5 -134t129.5 -52q56 0 102.5 35.5t63.5 99.5zM585 469q-81 0 -134.5 -65t-53.5 -153q0 -10 2 -30l330 90q22 7 22 27q0 42 -50 86.5t-116 44.5z
M229 11q64 0 106 42.5t42 95.5l-2 27q-7 36 -47 62.5t-99 26.5q-69 0 -112 -32.5t-43 -84.5q0 -62 42.5 -99.5t112.5 -37.5z" />
    <glyph glyph-name="ccedilla" unicode="&#xe7;" horiz-adv-x="499" 
d="M443 131q5 12 18 9q10 -2 6 -14q-18 -55 -67.5 -95.5t-120.5 -40.5l-3 -48q42 -1 66 -19.5t24 -46.5t-25 -46.5t-64 -18.5q-45 0 -78 23q-10 7 -4 17q5 8 14 2q29 -21 65 -21q26 0 45.5 12t18.5 33q-1 23 -23 33t-48 10q-24 0 -18 30l9 41q-91 8 -153.5 77.5t-62.5 175.5
q0 109 66 177.5t169 68.5q70 0 126 -39t56 -69q0 -20 -17 -20q-7 0 -15 11t-19 26.5t-26.5 31t-45.5 27t-69 11.5q-82 1 -138.5 -62t-56.5 -156q0 -107 61 -172t153 -65q56 0 97 32.5t60 84.5z" />
    <glyph glyph-name="egrave" unicode="&#xe8;" horiz-adv-x="496" 
d="M166 670q-13 7 -8 17l5 8q8 12 21 3l180 -120q7 -7 4 -12q-5 -9 -15 -3zM443 130q2 7 9 9t12 -1.5t3 -11.5q-16 -55 -68.5 -95.5t-134.5 -40.5q-95 0 -158.5 71t-63.5 184q0 107 64 176t169 69q69 0 114 -34t45 -92q1 -47 -39 -87.5t-109 -52.5q-93 -16 -213 -8
q9 -92 63 -147t136 -55q66 0 108.5 32t62.5 84zM264 469q-85 0 -139 -64t-54 -154v-13q130 -9 209 7q62 12 94 44t31 75q-1 50 -40 77.5t-101 27.5z" />
    <glyph glyph-name="eacute" unicode="&#xe9;" horiz-adv-x="496" 
d="M183 564q-10 -5 -15 3q-5 7 4 12l179 120q14 10 21 -3l5 -8q5 -10 -8 -17zM443 130q2 7 9 9t12 -1.5t3 -11.5q-16 -55 -68.5 -95.5t-134.5 -40.5q-95 0 -158.5 71t-63.5 184q0 107 64 176t169 69q69 0 114 -34t45 -92q1 -47 -39 -87.5t-109 -52.5q-93 -16 -213 -8
q9 -92 63 -147t136 -55q66 0 108.5 32t62.5 84zM264 469q-85 0 -139 -64t-54 -154v-13q130 -9 209 7q62 12 94 44t31 75q-1 50 -40 77.5t-101 27.5z" />
    <glyph glyph-name="ecircumflex" unicode="&#xea;" horiz-adv-x="496" 
d="M143 566q-6 -4 -11.5 -2t-6 7t4.5 10l110 91q10 9 19 9h7q8 0 19 -9l111 -91q9 -8 4 -15t-16 0l-121 88zM443 130q2 7 9 9t12 -1.5t3 -11.5q-16 -55 -68.5 -95.5t-134.5 -40.5q-95 0 -158.5 71t-63.5 184q0 107 64 176t169 69q69 0 114 -34t45 -92q1 -47 -39 -87.5
t-109 -52.5q-93 -16 -213 -8q9 -92 63 -147t136 -55q66 0 108.5 32t62.5 84zM264 469q-85 0 -139 -64t-54 -154v-13q130 -9 209 7q62 12 94 44t31 75q-1 50 -40 77.5t-101 27.5z" />
    <glyph glyph-name="edieresis" unicode="&#xeb;" horiz-adv-x="496" 
d="M190 600q-16 0 -25.5 9.5t-9.5 25.5q0 17 9.5 27t25.5 10q32 0 32 -37q0 -35 -32 -35zM341 600q-34 0 -34 35q0 37 34 37q15 0 24 -10t9 -27q0 -16 -9 -25.5t-24 -9.5zM443 130q2 7 9 9t12 -1.5t3 -11.5q-16 -55 -68.5 -95.5t-134.5 -40.5q-95 0 -158.5 71t-63.5 184
q0 107 64 176t169 69q69 0 114 -34t45 -92q1 -47 -39 -87.5t-109 -52.5q-93 -16 -213 -8q9 -92 63 -147t136 -55q66 0 108.5 32t62.5 84zM264 469q-85 0 -139 -64t-54 -154v-13q130 -9 209 7q62 12 94 44t31 75q-1 50 -40 77.5t-101 27.5z" />
    <glyph glyph-name="igrave" unicode="&#xec;" horiz-adv-x="198" 
d="M195 563l-187 107q-13 8 -7 17l5 8q8 14 20 3l180 -120q7 -7 4 -12q-5 -9 -15 -3zM69 0q-17 0 -17 9v3q0 5 17 11.5t17 22.5v370q0 20 -16.5 32t-16.5 14v2q0 3 10 9l30 14q22 10 22 -10v-431q0 -16 18 -22.5t18 -11.5v-3q0 -9 -19 -9h-63z" />
    <glyph glyph-name="iacute" unicode="&#xed;" horiz-adv-x="198" 
d="M25 564q-10 -6 -15 3q-4 7 4 12l180 120q12 11 20 -3l5 -8q6 -9 -7 -17zM69 0q-17 0 -17 9v3q0 5 17 11.5t17 22.5v370q0 20 -16.5 32t-16.5 14v2q0 3 10 9l30 14q22 10 22 -10v-431q0 -16 18 -22.5t18 -11.5v-3q0 -9 -19 -9h-63z" />
    <glyph glyph-name="icircumflex" unicode="&#xee;" horiz-adv-x="198" 
d="M238 581q9 -8 4 -15t-16 0l-121 88l-120 -88q-6 -4 -11.5 -2t-6 7t4.5 10l110 91q12 9 20 9h7q7 0 19 -9zM115 46q0 -16 18 -22.5t18 -11.5v-3q0 -9 -19 -9h-63q-17 0 -17 9v3q0 5 17 11.5t17 22.5v370q0 20 -16.5 32t-16.5 14v2q0 3 10 9l30 14q22 10 22 -10v-431z" />
    <glyph glyph-name="idieresis" unicode="&#xef;" horiz-adv-x="198" 
d="M32 600q-15 0 -25 9.5t-10 25.5q0 17 10 27t25 10q32 0 32 -37q0 -35 -32 -35zM183 600q-15 0 -24.5 9.5t-9.5 25.5q0 17 9.5 27t24.5 10t24 -10t9 -27q0 -16 -9 -25.5t-24 -9.5zM69 0q-17 0 -17 9v3q0 5 17 11.5t17 22.5v370q0 20 -16.5 32t-16.5 14v2q0 3 10 9l30 14
q22 10 22 -10v-431q0 -16 18 -22.5t18 -11.5v-3q0 -9 -19 -9h-63z" />
    <glyph glyph-name="eth" unicode="&#xf0;" horiz-adv-x="553" 
d="M339 608q82 -78 125.5 -178.5t43.5 -196.5q0 -108 -66 -175.5t-160 -67.5q-97 0 -169 77t-72 184q0 102 65.5 170.5t169.5 68.5q117 0 176 -102q-40 121 -140 212l-147 -48q-10 -3 -13 3l-3 7q-5 10 7 13l134 43q-62 50 -130 77q-8 3 -9.5 11t4 12.5t13.5 1.5
q87 -38 150 -93l103 33q11 4 14 -2l3 -7q4 -10 -8 -13zM478 225v27q-11 103 -67.5 160t-142.5 57q-84 0 -140.5 -61.5t-56.5 -150.5q0 -103 63.5 -174.5t156.5 -71.5q77 0 131.5 62.5t55.5 151.5z" />
    <glyph glyph-name="ntilde" unicode="&#xf1;" horiz-adv-x="546" 
d="M112 604q-10 0 -7 14q18 75 82 75q32 0 81 -32t67 -32q40 0 59 49q3 11 11 11h5q9 0 6 -13q-18 -71 -83 -71q-30 0 -77 32t-70 32q-20 0 -36 -14t-24 -38q-3 -13 -9 -13h-5zM478 47q1 -17 18.5 -24.5t17.5 -11.5v-4q0 -7 -19 -7h-66q-17 0 -17 7v4q0 5 9 8t17.5 8.5
t8.5 18.5l-9 214q-4 100 -48.5 154t-111.5 54q-65 0 -111 -41t-53 -104v-278q0 -16 18 -22.5t18 -11.5v-4q0 -7 -19 -7h-63q-18 0 -18 7v4q0 5 17.5 11.5t17.5 22.5v373q0 17 -8.5 25.5t-17 11t-8.5 6.5v2q0 6 10 10l32 14q21 9 21 -10v-91q23 47 67.5 75.5t97.5 28.5
q81 0 132 -59t57 -170z" />
    <glyph glyph-name="ograve" unicode="&#xf2;" horiz-adv-x="550" 
d="M363 563l-187 107q-13 7 -8 17l5 8q8 12 21 3l179 -120q8 -6 5 -12q-5 -9 -15 -3zM282 -9q-101 0 -171 76t-70 184q0 101 66 169.5t168 68.5q99 0 166.5 -73.5t67.5 -182.5q0 -105 -64 -173.5t-163 -68.5zM289 12q81 0 135.5 62t54.5 152q0 106 -58.5 174t-151.5 68
q-84 0 -141 -61.5t-57 -149.5q0 -103 61.5 -174t156.5 -71z" />
    <glyph glyph-name="oacute" unicode="&#xf3;" horiz-adv-x="550" 
d="M193 564q-10 -5 -16 3q-4 8 5 12l179 120q14 10 21 -3l5 -8q5 -10 -8 -17zM282 -9q-101 0 -171 76t-70 184q0 101 66 169.5t168 68.5q99 0 166.5 -73.5t67.5 -182.5q0 -105 -64 -173.5t-163 -68.5zM289 12q81 0 135.5 62t54.5 152q0 106 -58.5 174t-151.5 68
q-84 0 -141 -61.5t-57 -149.5q0 -103 61.5 -174t156.5 -71z" />
    <glyph glyph-name="ocircumflex" unicode="&#xf4;" horiz-adv-x="550" 
d="M153 566q-6 -4 -11.5 -2t-6 7t4.5 10l110 91q10 9 19 9h7q8 0 19 -9l111 -91q9 -8 4 -15t-16 0l-121 88zM275 489q99 0 166.5 -73.5t67.5 -182.5q0 -105 -64 -173.5t-163 -68.5q-101 0 -171 76t-70 184q0 101 66 169.5t168 68.5zM289 12q81 0 135.5 62t54.5 152
q0 106 -58.5 174t-151.5 68q-84 0 -141 -61.5t-57 -149.5q0 -103 61.5 -174t156.5 -71z" />
    <glyph glyph-name="otilde" unicode="&#xf5;" horiz-adv-x="550" 
d="M190 693q32 0 81 -32t67 -32q40 0 59 49q3 11 12 11h4q9 0 6 -13q-18 -71 -83 -71q-30 0 -77 32t-70 32q-20 0 -36 -14t-24 -38q-3 -13 -8 -13h-6q-10 0 -7 14q18 75 82 75zM282 -9q-101 0 -171 76t-70 184q0 101 66 169.5t168 68.5q99 0 166.5 -73.5t67.5 -182.5
q0 -105 -64 -173.5t-163 -68.5zM289 12q81 0 135.5 62t54.5 152q0 106 -58.5 174t-151.5 68q-84 0 -141 -61.5t-57 -149.5q0 -103 61.5 -174t156.5 -71z" />
    <glyph glyph-name="odieresis" unicode="&#xf6;" horiz-adv-x="550" 
d="M200 600q-16 0 -25.5 9.5t-9.5 25.5q0 17 9.5 27t25.5 10q14 0 23 -10t9 -27q0 -16 -9 -25.5t-23 -9.5zM351 600q-34 0 -34 35q0 37 34 37q14 0 23.5 -10t9.5 -27q0 -16 -9.5 -25.5t-23.5 -9.5zM282 -9q-101 0 -171 76t-70 184q0 101 66 169.5t168 68.5q99 0 166.5 -73.5
t67.5 -182.5q0 -105 -64 -173.5t-163 -68.5zM289 12q81 0 135.5 62t54.5 152q0 106 -58.5 174t-151.5 68q-84 0 -141 -61.5t-57 -149.5q0 -103 61.5 -174t156.5 -71z" />
    <glyph glyph-name="divide" unicode="&#xf7;" 
d="M302 406q-18 0 -28.5 10.5t-10.5 29.5t10.5 30.5t28.5 11.5q17 0 26.5 -11.5t9.5 -30.5t-9.5 -29.5t-26.5 -10.5zM122 244q-8 0 -8 5v13q0 5 8 5h356q8 0 8 -5v-13q0 -5 -8 -5h-356zM302 -10q-18 0 -28.5 10.5t-10.5 29.5t10.5 30.5t28.5 11.5q17 0 26.5 -11.5t9.5 -30.5
t-9.5 -29.5t-26.5 -10.5z" />
    <glyph glyph-name="oslash" unicode="&#xf8;" horiz-adv-x="563" 
d="M522 465q7 -7 -2 -16l-56 -53q51 -70 51 -163q0 -105 -64 -173.5t-163 -68.5q-100 0 -169 74l-66 -63q-5 -7 -11 0l-6 5q-5 5 3 13l65 62q-57 73 -57 169q0 101 66 169.5t168 68.5q99 0 167 -74l54 52q9 9 17 1zM77 257q0 -89 47 -155l305 295q-60 71 -154 71
q-84 0 -141 -61.5t-57 -149.5zM485 226q0 87 -41 150l-306 -293q61 -71 157 -71q81 0 135.5 62t54.5 152z" />
    <glyph glyph-name="ugrave" unicode="&#xf9;" horiz-adv-x="544" 
d="M170 670q-13 8 -7 17l5 8q8 14 20 3l180 -120q7 -7 4 -12q-4 -8 -15 -3zM453 69q0 -23 10 -35t22 -13t22 -3.5t10 -9.5q0 -9 -7 -11.5t-27 -2.5q-25 0 -42.5 17.5t-16.5 55.5v30q-23 -50 -66.5 -78.5t-99.5 -28.5q-86 0 -135.5 66.5t-49.5 182.5v183q0 18 -17 28t-17 14
v1q0 7 10 10l40 12q14 5 14 -7v-241q0 -105 41 -166t113 -61t119.5 51.5t47.5 134.5v224q0 18 -18.5 27.5t-18.5 14.5v1q0 7 9 10l43 12q14 5 14 -7v-411z" />
    <glyph glyph-name="uacute" unicode="&#xfa;" horiz-adv-x="544" 
d="M187 564q-10 -6 -15 3q-4 7 4 12l180 120q12 11 20 -3l5 -8q6 -9 -7 -17zM453 69q0 -23 10 -35t22 -13t22 -3.5t10 -9.5q0 -9 -7 -11.5t-27 -2.5q-25 0 -42.5 17.5t-16.5 55.5v30q-23 -50 -66.5 -78.5t-99.5 -28.5q-86 0 -135.5 66.5t-49.5 182.5v183q0 18 -17 28t-17 14
v1q0 7 10 10l40 12q14 5 14 -7v-241q0 -105 41 -166t113 -61t119.5 51.5t47.5 134.5v224q0 18 -18.5 27.5t-18.5 14.5v1q0 7 9 10l43 12q14 5 14 -7v-411z" />
    <glyph glyph-name="ucircumflex" unicode="&#xfb;" horiz-adv-x="544" 
d="M147 566q-9 -7 -15 0.5t3 14.5l110 91q11 9 19 9h7q9 0 19 -9l110 -91q9 -8 4 -15t-16 0l-121 88zM453 69q0 -23 10 -35t22 -13t22 -3.5t10 -9.5q0 -9 -7 -11.5t-27 -2.5q-25 0 -42.5 17.5t-16.5 55.5v30q-23 -50 -66.5 -78.5t-99.5 -28.5q-86 0 -135.5 66.5t-49.5 182.5
v183q0 18 -17 28t-17 14v1q0 7 10 10l40 12q14 5 14 -7v-241q0 -105 41 -166t113 -61t119.5 51.5t47.5 134.5v224q0 18 -18.5 27.5t-18.5 14.5v1q0 7 9 10l43 12q14 5 14 -7v-411z" />
    <glyph glyph-name="udieresis" unicode="&#xfc;" horiz-adv-x="544" 
d="M194 600q-15 0 -24.5 9.5t-9.5 25.5q0 17 9.5 27t24.5 10q32 0 32 -37q0 -35 -32 -35zM345 600q-33 0 -33 35q0 17 9 27t24 10t24 -10t9 -27q0 -16 -9 -25.5t-24 -9.5zM453 69q0 -23 10 -35t22 -13t22 -3.5t10 -9.5q0 -9 -7 -11.5t-27 -2.5q-25 0 -42.5 17.5t-16.5 55.5
v30q-23 -50 -66.5 -78.5t-99.5 -28.5q-86 0 -135.5 66.5t-49.5 182.5v183q0 18 -17 28t-17 14v1q0 7 10 10l40 12q14 5 14 -7v-241q0 -105 41 -166t113 -61t119.5 51.5t47.5 134.5v224q0 18 -18.5 27.5t-18.5 14.5v1q0 7 9 10l43 12q14 5 14 -7v-411z" />
    <glyph glyph-name="yacute" unicode="&#xfd;" horiz-adv-x="528" 
d="M183 564q-10 -6 -15 3q-4 7 4 12l180 120q13 9 21 -3l5 -8q5 -10 -8 -17zM439 487q15 5 15 -7v-450q0 -114 -51.5 -173.5t-144.5 -59.5q-90 0 -140.5 51t-50.5 97q0 18 20 18q8 0 13 -15t13 -36t22.5 -42.5t48.5 -36.5t84 -15q75 0 115.5 54t40.5 160v77
q-23 -51 -66.5 -80t-99.5 -29q-85 0 -135 65.5t-50 173.5v183q0 18 -17 28t-17 14v1q0 7 10 10l40 12q14 5 14 -7v-241q0 -98 41 -157.5t113 -59.5t119.5 51.5t47.5 134.5v214q0 18 -18.5 27.5t-18.5 14.5v1q0 7 9 10z" />
    <glyph glyph-name="thorn" unicode="&#xfe;" horiz-adv-x="549" 
d="M279 490q97 0 163 -71t66 -171q0 -104 -66 -181t-162 -77q-52 0 -100.5 30t-73.5 81v-294q0 -16 18 -23t18 -12v-2q0 -9 -18 -9h-64q-18 0 -18 9v2q0 5 17.5 12t17.5 23v868q0 16 -17 26t-17 15v2q0 7 10 11l32 14q22 12 22 -9v-341q24 45 72 71t100 26zM270 12
q92 0 150 68t58 169q0 93 -59.5 156.5t-149.5 63.5q-55 0 -106 -41t-56 -98l-1 -155q5 -68 56 -115.5t108 -47.5z" />
    <glyph glyph-name="ydieresis" unicode="&#xff;" horiz-adv-x="528" 
d="M191 600q-16 0 -25.5 9.5t-9.5 25.5q0 17 9.5 27t25.5 10q31 0 31 -37q0 -35 -31 -35zM342 600q-34 0 -34 35q0 37 34 37q14 0 23 -10t9 -27q0 -16 -9 -25.5t-23 -9.5zM439 487q15 5 15 -7v-450q0 -114 -51.5 -173.5t-144.5 -59.5q-90 0 -140.5 51t-50.5 97q0 18 20 18
q8 0 13 -15t13 -36t22.5 -42.5t48.5 -36.5t84 -15q75 0 115.5 54t40.5 160v77q-23 -51 -66.5 -80t-99.5 -29q-85 0 -135 65.5t-50 173.5v183q0 18 -17 28t-17 14v1q0 7 10 10l40 12q14 5 14 -7v-241q0 -98 41 -157.5t113 -59.5t119.5 51.5t47.5 134.5v214q0 18 -18.5 27.5
t-18.5 14.5v1q0 7 9 10z" />
    <glyph glyph-name="Amacron" unicode="&#x100;" horiz-adv-x="646" 
d="M200 826q-12 0 -12 9v6q0 9 12 9h251q12 0 12 -9v-6q0 -9 -12 -9h-251zM28 0q-17 0 -17 7v2q0 4 17 11.5t23 22.5l245 623q4 12 -12 20.5t-16 14.5v2q0 7 11 7h72q11 0 11 -7v-2q0 -6 -17 -14.5t-13 -19.5l267 -624q6 -15 24 -22.5t18 -11.5v-2q0 -7 -18 -7h-64
q-17 0 -17 7v2q0 3 17 10.5t11 23.5l-68 157h-363l-61 -157q-6 -16 11 -23.5t17 -10.5v-2q0 -7 -18 -7h-60zM147 222h347l-181 426z" />
    <glyph glyph-name="amacron" unicode="&#x101;" horiz-adv-x="561" 
d="M156 623q-13 0 -13 10v6q0 9 13 9h250q12 0 12 -9v-6q0 -10 -12 -10h-250zM476 44q0 -17 17.5 -25t17.5 -11v-2q0 -6 -9 -6h-45q-10 0 -10 10v95q-23 -55 -72 -85t-105 -30q-94 0 -161.5 72.5t-67.5 179.5q0 108 65.5 178t169.5 70q54 0 101.5 -30t70.5 -75v93q0 9 5 12
t15 -2l32 -17q10 -6 10 -11v-2q0 -3 -17 -13.5t-17 -27.5v-373zM279 12q60 0 114 48t54 128v133q-1 52 -54.5 100t-126.5 48q-84 0 -139.5 -63.5t-55.5 -157.5q0 -103 59 -169.5t149 -66.5z" />
    <glyph glyph-name="Abreve" unicode="&#x102;" horiz-adv-x="646" 
d="M326 793q-54 0 -93 31.5t-47 76.5q-3 13 8 16q10 2 11 -7q10 -41 43 -67t78 -26q44 0 77.5 26t44.5 67q3 10 12 6q9 -3 7 -15q-7 -45 -46.5 -76.5t-94.5 -31.5zM28 0q-17 0 -17 7v2q0 4 17 11.5t23 22.5l245 623q4 12 -12 20.5t-16 14.5v2q0 7 11 7h72q11 0 11 -7v-2
q0 -6 -17 -14.5t-13 -19.5l267 -624q6 -15 24 -22.5t18 -11.5v-2q0 -7 -18 -7h-64q-17 0 -17 7v2q0 3 17 10.5t11 23.5l-68 157h-363l-61 -157q-6 -16 11 -23.5t17 -10.5v-2q0 -7 -18 -7h-60zM147 222h347l-181 426z" />
    <glyph glyph-name="abreve" unicode="&#x103;" horiz-adv-x="561" 
d="M281 583q-54 0 -93 31.5t-47 76.5q-3 14 10 15q8 1 9 -6q10 -41 43 -67t78 -26q44 0 77.5 26t44.5 67q3 10 12 6q8 -4 7 -15q-7 -45 -46.5 -76.5t-94.5 -31.5zM476 44q0 -17 17.5 -25t17.5 -11v-2q0 -6 -9 -6h-45q-10 0 -10 10v95q-23 -55 -72 -85t-105 -30
q-94 0 -161.5 72.5t-67.5 179.5q0 108 65.5 178t169.5 70q54 0 101.5 -30t70.5 -75v93q0 9 5 12t15 -2l32 -17q10 -6 10 -11v-2q0 -3 -17 -13.5t-17 -27.5v-373zM279 12q60 0 114 48t54 128v133q-1 52 -54.5 100t-126.5 48q-84 0 -139.5 -63.5t-55.5 -157.5
q0 -103 59 -169.5t149 -66.5z" />
    <glyph glyph-name="Aogonek" unicode="&#x104;" horiz-adv-x="646" 
d="M599 43q6 -15 24 -22.5t18 -11.5v-2q0 -7 -18 -7h-17q-33 -27 -56.5 -61.5t-23.5 -65.5q0 -23 13 -37t34 -14q12 0 33 7q6 3 9.5 -1t3 -9.5t-3.5 -7.5q-18 -11 -43 -11q-31 0 -52 19.5t-21 49.5q0 34 24.5 70.5t57.5 60.5h-22q-17 0 -17 7v2q0 3 17 10.5t11 23.5l-68 157
h-363l-61 -157q-6 -16 11 -23.5t17 -10.5v-2q0 -7 -18 -7h-60q-17 0 -17 7v2q0 4 17 11.5t23 22.5l245 623q4 12 -12 20.5t-16 14.5v2q0 7 11 7h72q11 0 11 -7v-2q0 -6 -17 -14.5t-13 -19.5zM147 222h347l-181 426z" />
    <glyph glyph-name="aogonek" unicode="&#x105;" horiz-adv-x="561" 
d="M476 44q0 -17 17.5 -25t17.5 -11v-2q0 -6 -9 -6h-31q-71 -61 -71 -119q0 -23 13 -37t34 -14q14 0 33 8q10 4 12 -6t-3 -13q-18 -11 -43 -11q-31 0 -52 19.5t-21 49.5q0 65 76 127q-2 2 -2 6v95q-23 -55 -72 -85t-105 -30q-94 0 -161.5 72.5t-67.5 179.5q0 108 65.5 178
t169.5 70q54 0 101.5 -30t70.5 -75v93q0 9 5 12t15 -2l32 -17q10 -6 10 -11v-2q0 -3 -17 -13.5t-17 -27.5v-373zM279 12q60 0 114 48t54 128v133q-1 52 -54.5 100t-126.5 48q-84 0 -139.5 -63.5t-55.5 -157.5q0 -103 59 -169.5t149 -66.5z" />
    <glyph glyph-name="Cacute" unicode="&#x106;" horiz-adv-x="689" 
d="M272 789q-12 -2 -14 6q-2 6 6 11l202 77q14 6 20 -7l3 -10q3 -10 -11 -14zM378 -10q-129 0 -230.5 108t-101.5 263q0 159 94.5 259t236.5 100q56 0 107.5 -21t84 -51t51.5 -60t19 -51q0 -19 -18 -19q-11 0 -21 18.5t-24.5 45t-36.5 53t-67.5 45t-108.5 18.5
q-117 0 -202 -93.5t-85 -233.5q0 -152 93 -254t221 -102q95 0 155.5 60t90.5 146q3 9 11 11.5t13 -3t1 -17.5q-30 -91 -101.5 -156.5t-181.5 -65.5z" />
    <glyph glyph-name="cacute" unicode="&#x107;" horiz-adv-x="499" 
d="M188 564q-10 -6 -15 3q-3 7 4 12l180 120q13 9 21 -3l5 -8q5 -10 -8 -17zM278 -10q-97 0 -166.5 71t-69.5 183q0 109 66 177.5t169 68.5q70 0 126 -39t56 -69q0 -20 -17 -20q-7 0 -15 11t-19 26.5t-26.5 31t-45.5 27t-69 11.5q-82 1 -138.5 -62t-56.5 -156
q0 -107 61 -172t153 -65q56 0 97 32.5t60 84.5q5 12 18 9q10 -2 6 -14q-18 -55 -67.5 -95.5t-121.5 -40.5z" />
    <glyph glyph-name="Cdotaccent" unicode="&#x10a;" horiz-adv-x="689" 
d="M367 793q-16 0 -26 9.5t-10 27.5t10 28t26 10q15 0 24.5 -10t9.5 -28q0 -37 -34 -37zM378 -10q-129 0 -230.5 108t-101.5 263q0 159 94.5 259t236.5 100q56 0 107.5 -21t84 -51t51.5 -60t19 -51q0 -19 -18 -19q-11 0 -21 18.5t-24.5 45t-36.5 53t-67.5 45t-108.5 18.5
q-117 0 -202 -93.5t-85 -233.5q0 -152 93 -254t221 -102q95 0 155.5 60t90.5 146q3 9 11 11.5t13 -3t1 -17.5q-30 -91 -101.5 -156.5t-181.5 -65.5z" />
    <glyph glyph-name="cdotaccent" unicode="&#x10b;" horiz-adv-x="499" 
d="M269 599q-16 0 -26 9.5t-10 26.5q0 18 10 28.5t26 10.5q15 0 24.5 -10.5t9.5 -28.5q0 -17 -9.5 -26.5t-24.5 -9.5zM278 -10q-97 0 -166.5 71t-69.5 183q0 109 66 177.5t169 68.5q70 0 126 -39t56 -69q0 -20 -17 -20q-7 0 -15 11t-19 26.5t-26.5 31t-45.5 27t-69 11.5
q-82 1 -138.5 -62t-56.5 -156q0 -107 61 -172t153 -65q56 0 97 32.5t60 84.5q5 12 18 9q10 -2 6 -14q-18 -55 -67.5 -95.5t-121.5 -40.5z" />
    <glyph glyph-name="Ccaron" unicode="&#x10c;" horiz-adv-x="689" 
d="M358 757l-119 107q-9 9 1 14q8 5 16 -2l124 -104l125 104q13 11 20 1q4 -6 -3 -13l-119 -107q-11 -9 -19 -9h-7q-9 0 -19 9zM636 221q3 9 11 11.5t13 -3t1 -17.5q-30 -91 -101.5 -156.5t-181.5 -65.5q-129 0 -230.5 108t-101.5 263q0 159 94.5 259t236.5 100
q56 0 107.5 -21t84 -51t51.5 -60t19 -51q0 -19 -18 -19q-11 0 -21 18.5t-24.5 45t-36.5 53t-67.5 45t-108.5 18.5q-117 0 -202 -93.5t-85 -233.5q0 -152 93 -254t221 -102q95 0 155.5 60t90.5 146z" />
    <glyph glyph-name="ccaron" unicode="&#x10d;" horiz-adv-x="499" 
d="M127 679q-9 8 1 14q8 5 16 -2l124 -105l125 105q13 10 20 0q2 -6 -3 -12l-119 -107q-10 -10 -19 -10h-7q-9 0 -19 10zM443 131q5 12 18 9q10 -2 6 -14q-18 -55 -67.5 -95.5t-121.5 -40.5q-97 0 -166.5 71t-69.5 183q0 109 66 177.5t169 68.5q70 0 126 -39t56 -69
q0 -20 -17 -20q-7 0 -15 11t-19 26.5t-26.5 31t-45.5 27t-69 11.5q-82 1 -138.5 -62t-56.5 -156q0 -107 61 -172t153 -65q56 0 97 32.5t60 84.5z" />
    <glyph glyph-name="Dcaron" unicode="&#x10e;" horiz-adv-x="723" 
d="M209 864q-10 9 0 14q8 5 17 -2l124 -104l125 104q12 11 19 1q5 -6 -2 -13l-119 -107q-10 -9 -19 -9h-8q-7 0 -19 9zM307 710q65 0 129.5 -22t119 -63.5t88 -108.5t33.5 -148q0 -115 -50 -200t-129 -126.5t-174 -41.5h-234q-18 0 -18 7v2q0 3 17 11t17 23v623
q0 17 -17 24.5t-17 10.5v2q0 7 18 7h217zM321 22q62 0 119.5 22t103.5 63t74 107t28 148q0 80 -32.5 145t-84 103t-110 58t-115.5 20h-152q-16 0 -16 -22v-621q0 -23 19 -23h166z" />
    <glyph glyph-name="dcaron" unicode="&#x10f;" horiz-adv-x="571" 
d="M597 813q9 0 9 -15q0 -116 -78 -208q-10 -13 -17 -6l-2 2q-6 6 4 20q65 84 65 192q0 15 9 15h10zM475 44q0 -17 17.5 -25t17.5 -11v-2q0 -6 -9 -6h-45q-10 0 -10 10v89q-25 -52 -73.5 -80.5t-102.5 -28.5q-94 0 -161.5 72.5t-67.5 179.5q0 108 65 178t168 70
q55 0 102 -28.5t71 -72.5v286q0 17 -8.5 25.5t-17 11.5t-8.5 7v2q0 6 10 10l31 14q21 10 21 -9v-692zM279 12q56 0 108.5 43t58.5 115l1 157q-4 51 -57.5 96.5t-125.5 45.5q-82 0 -137.5 -64t-55.5 -157q0 -103 59 -169.5t149 -66.5z" />
    <glyph glyph-name="Dcroat" unicode="&#x110;" horiz-adv-x="726" 
d="M310 710q65 0 129.5 -22t119 -63.5t88 -108.5t33.5 -148q0 -115 -50 -200t-129 -126.5t-174 -41.5h-234q-18 0 -18 7v2q0 3 17 11t17 23v301h-62q-13 0 -13 10v5q0 7 13 7h62v300q0 17 -17 24.5t-17 10.5v2q0 7 18 7h217zM324 22q62 0 119.5 22t103.5 63t74 107t28 148
q0 80 -32.5 145t-84 103t-110 58t-115.5 20h-152q-16 0 -16 -22v-300h168q12 0 12 -8v-4q0 -10 -12 -10h-168v-299q0 -23 19 -23h166z" />
    <glyph glyph-name="dcroat" unicode="&#x111;" horiz-adv-x="553" 
d="M536 580q13 0 13 -8v-4q0 -9 -13 -9h-61v-515q0 -17 17.5 -25t17.5 -11v-2q0 -6 -9 -6h-45q-10 0 -10 10v89q-25 -52 -73.5 -80.5t-102.5 -28.5q-94 0 -161.5 72.5t-67.5 179.5q0 108 65 178t168 70q55 0 102 -28.5t71 -72.5v170h-171q-13 0 -13 9v5q0 7 13 7h171v95
q0 17 -8.5 25.5t-17 11.5t-8.5 7v2q0 6 10 10l31 14q21 10 21 -9v-156h61zM279 12q56 0 108.5 43t58.5 115l1 157q-4 51 -57.5 96.5t-125.5 45.5q-82 0 -137.5 -64t-55.5 -157q0 -103 59 -169.5t149 -66.5z" />
    <glyph glyph-name="Emacron" unicode="&#x112;" horiz-adv-x="585" 
d="M172 826q-13 0 -13 9v6q0 9 13 9h250q13 0 13 -9v-6q0 -9 -13 -9h-250zM89 0q-17 0 -17 7v2q0 4 8.5 6.5t17 9t8.5 20.5v619q0 19 -17 27t-17 11v2q0 6 13 6h402q15 0 20 -17l24 -80q4 -15 -5 -15h-4q-6 0 -15 22.5t-23 45t-32 22.5h-300q-17 0 -17 -24v-287h240
q15 0 20.5 22t11.5 22h2q9 0 9 -12v-85q0 -13 -9 -13h-2q-6 0 -11.5 22t-20.5 22h-240l-1 -309q0 -24 22 -24h327q18 0 31.5 22t23 44.5t16.5 22.5h3q10 0 6 -13l-24 -81q-5 -17 -20 -17h-430z" />
    <glyph glyph-name="emacron" unicode="&#x113;" horiz-adv-x="496" 
d="M137 623q-12 0 -12 10v6q0 9 12 9h251q12 0 12 -9v-6q0 -10 -12 -10h-251zM443 130q2 7 9 9t12 -1.5t3 -11.5q-16 -55 -68.5 -95.5t-134.5 -40.5q-95 0 -158.5 71t-63.5 184q0 107 64 176t169 69q69 0 114 -34t45 -92q1 -47 -39 -87.5t-109 -52.5q-93 -16 -213 -8
q9 -92 63 -147t136 -55q66 0 108.5 32t62.5 84zM264 469q-85 0 -139 -64t-54 -154v-13q130 -9 209 7q62 12 94 44t31 75q-1 50 -40 77.5t-101 27.5z" />
    <glyph glyph-name="Edotaccent" unicode="&#x116;" horiz-adv-x="585" 
d="M299 793q-36 0 -36 37q0 38 36 38q33 0 33 -38q0 -37 -33 -37zM89 0q-17 0 -17 7v2q0 4 8.5 6.5t17 9t8.5 20.5v619q0 19 -17 27t-17 11v2q0 6 13 6h402q15 0 20 -17l24 -80q4 -15 -5 -15h-4q-6 0 -15 22.5t-23 45t-32 22.5h-300q-17 0 -17 -24v-287h240q15 0 20.5 22
t11.5 22h2q9 0 9 -12v-85q0 -13 -9 -13h-2q-6 0 -11.5 22t-20.5 22h-240l-1 -309q0 -24 22 -24h327q18 0 31.5 22t23 44.5t16.5 22.5h3q10 0 6 -13l-24 -81q-5 -17 -20 -17h-430z" />
    <glyph glyph-name="edotaccent" unicode="&#x117;" horiz-adv-x="496" 
d="M264 599q-36 0 -36 36q0 18 9.5 28.5t26.5 10.5q15 0 24 -10.5t9 -28.5q0 -36 -33 -36zM443 130q2 7 9 9t12 -1.5t3 -11.5q-16 -55 -68.5 -95.5t-134.5 -40.5q-95 0 -158.5 71t-63.5 184q0 107 64 176t169 69q69 0 114 -34t45 -92q1 -47 -39 -87.5t-109 -52.5
q-93 -16 -213 -8q9 -92 63 -147t136 -55q66 0 108.5 32t62.5 84zM264 469q-85 0 -139 -64t-54 -154v-13q130 -9 209 7q62 12 94 44t31 75q-1 50 -40 77.5t-101 27.5z" />
    <glyph glyph-name="Eogonek" unicode="&#x118;" horiz-adv-x="585" 
d="M557 111q10 0 6 -13l-24 -81q-3 -11 -10 -15q-34 -26 -58 -60.5t-24 -66.5q0 -24 13 -38t33 -14q15 0 33 8q6 3 10 -1.5t3 -10.5t-4 -7q-18 -11 -43 -11q-31 0 -52 19.5t-21 49.5q0 34 24 69.5t58 60.5h-412q-17 0 -17 7v2q0 4 8.5 6.5t17 9t8.5 20.5v619q0 19 -17 27
t-17 11v2q0 6 13 6h402q15 0 20 -17l24 -80q4 -15 -5 -15h-4q-6 0 -15 22.5t-23 45t-32 22.5h-300q-17 0 -17 -24v-287h240q15 0 20.5 22t11.5 22h2q9 0 9 -12v-85q0 -13 -9 -13h-2q-6 0 -11.5 22t-20.5 22h-240l-1 -309q0 -24 22 -24h327q18 0 31.5 22t23 44.5t16.5 22.5h3
z" />
    <glyph glyph-name="eogonek" unicode="&#x119;" horiz-adv-x="496" 
d="M443 130q2 7 9 9t12 -1.5t3 -11.5q-24 -78 -100 -114q-32 -26 -55 -60t-23 -64q0 -23 13 -37.5t33 -14.5q15 0 34 8q10 4 12 -6t-3 -13q-18 -11 -44 -11q-30 0 -51.5 19.5t-21.5 49.5q0 58 61 113q-27 -6 -58 -6q-95 0 -158.5 71t-63.5 184q0 107 64 176t169 69
q69 0 114 -34t45 -92q1 -47 -39 -87.5t-109 -52.5q-93 -16 -213 -8q9 -92 63 -147t136 -55q66 0 108.5 32t62.5 84zM264 469q-85 0 -139 -64t-54 -154v-13q130 -9 209 7q62 12 94 44t31 75q-1 50 -40 77.5t-101 27.5z" />
    <glyph glyph-name="Ecaron" unicode="&#x11a;" horiz-adv-x="585" 
d="M275 757l-119 107q-9 9 0 14q8 5 17 -2l124 -104l125 104q13 11 20 1q4 -6 -3 -13l-119 -107q-10 -9 -19 -9h-7q-8 0 -19 9zM557 111q10 0 6 -13l-24 -81q-5 -17 -20 -17h-430q-17 0 -17 7v2q0 4 8.5 6.5t17 9t8.5 20.5v619q0 19 -17 27t-17 11v2q0 6 13 6h402
q15 0 20 -17l24 -80q4 -15 -5 -15h-4q-6 0 -15 22.5t-23 45t-32 22.5h-300q-17 0 -17 -24v-287h240q15 0 20.5 22t11.5 22h2q9 0 9 -12v-85q0 -13 -9 -13h-2q-6 0 -11.5 22t-20.5 22h-240l-1 -309q0 -24 22 -24h327q18 0 31.5 22t23 44.5t16.5 22.5h3z" />
    <glyph glyph-name="ecaron" unicode="&#x11b;" horiz-adv-x="496" 
d="M122 679q-11 9 1 15q7 3 15 -3l124 -105l126 105q11 10 19 1q5 -7 -3 -13l-118 -107q-11 -10 -19 -10h-8q-9 0 -19 10zM443 130q2 7 9 9t12 -1.5t3 -11.5q-16 -55 -68.5 -95.5t-134.5 -40.5q-95 0 -158.5 71t-63.5 184q0 107 64 176t169 69q69 0 114 -34t45 -92
q1 -47 -39 -87.5t-109 -52.5q-93 -16 -213 -8q9 -92 63 -147t136 -55q66 0 108.5 32t62.5 84zM264 469q-85 0 -139 -64t-54 -154v-13q130 -9 209 7q62 12 94 44t31 75q-1 50 -40 77.5t-101 27.5z" />
    <glyph glyph-name="Gbreve" unicode="&#x11e;" horiz-adv-x="730" 
d="M382 793q-54 0 -93 31.5t-47 76.5q-2 13 8 16q10 2 11 -7q10 -41 43 -67t78 -26q44 0 77.5 26t44.5 67q3 10 12 6q9 -3 7 -15q-7 -45 -46.5 -76.5t-94.5 -31.5zM693 324q17 0 17 -7v-2q0 -4 -16 -7t-32.5 -10t-16.5 -22v-277q0 -9 -8 -9q-10 0 -12 8l-6 82
q-39 -42 -102 -66t-137 -24q-127 0 -231 109.5t-104 261.5q0 153 98.5 256t235.5 103q59 0 111.5 -21t84 -51.5t49.5 -60.5t18 -51q0 -19 -18 -19q-10 0 -19.5 18.5t-23.5 45.5t-37 53.5t-69 45t-110 18.5q-112 0 -201 -96t-89 -231q0 -150 97 -253.5t222 -103.5
q144 0 221 97v165q0 20 -37.5 27.5t-37.5 11.5v2q0 7 17 7h136z" />
    <glyph glyph-name="gbreve" unicode="&#x11f;" horiz-adv-x="556" 
d="M276 593q-54 0 -93.5 31t-47.5 76q-2 14 10 16q8 0 10 -6q10 -41 43 -67t78 -26q44 0 77.5 26t44.5 67q3 10 12 6q8 -5 7 -16q-7 -45 -46.5 -76t-94.5 -31zM502 471q10 -6 10 -11v-2q0 -3 -17 -13.5t-17 -27.5v-377q0 -119 -52.5 -181t-142.5 -62q-88 0 -140 51.5
t-52 97.5q0 17 20 17q8 0 13.5 -15t14 -36t23.5 -42.5t48.5 -36.5t82.5 -15q72 0 114 57t42 166v74q-23 -55 -72.5 -85t-105.5 -30q-93 0 -160.5 71t-67.5 171q0 108 65.5 178t169.5 70q55 0 102.5 -30.5t70.5 -76.5l-1 95q0 9 5 12t15 -2zM281 22q60 0 114 48t54 128v123
q-1 52 -54.5 100t-126.5 48q-84 0 -139.5 -63.5t-55.5 -157.5q0 -96 59 -161t149 -65z" />
    <glyph glyph-name="Gdotaccent" unicode="&#x120;" horiz-adv-x="730" 
d="M383 793q-36 0 -36 37q0 38 36 38q33 0 33 -38q0 -37 -33 -37zM693 324q17 0 17 -7v-2q0 -4 -16 -7t-32.5 -10t-16.5 -22v-277q0 -9 -8 -9q-10 0 -12 8l-6 82q-39 -42 -102 -66t-137 -24q-127 0 -231 109.5t-104 261.5q0 153 98.5 256t235.5 103q59 0 111.5 -21t84 -51.5
t49.5 -60.5t18 -51q0 -19 -18 -19q-10 0 -19.5 18.5t-23.5 45.5t-37 53.5t-69 45t-110 18.5q-112 0 -201 -96t-89 -231q0 -150 97 -253.5t222 -103.5q144 0 221 97v165q0 20 -37.5 27.5t-37.5 11.5v2q0 7 17 7h136z" />
    <glyph glyph-name="gdotaccent" unicode="&#x121;" horiz-adv-x="556" 
d="M277 608q-17 0 -26.5 10t-9.5 27q0 38 36 38q33 0 33 -38q0 -17 -9 -27t-24 -10zM502 471q10 -6 10 -11v-2q0 -3 -17 -13.5t-17 -27.5v-377q0 -119 -52.5 -181t-142.5 -62q-88 0 -140 51.5t-52 97.5q0 17 20 17q8 0 13.5 -15t14 -36t23.5 -42.5t48.5 -36.5t82.5 -15
q72 0 114 57t42 166v74q-23 -55 -72.5 -85t-105.5 -30q-93 0 -160.5 71t-67.5 171q0 108 65.5 178t169.5 70q55 0 102.5 -30.5t70.5 -76.5l-1 95q0 9 5 12t15 -2zM281 22q60 0 114 48t54 128v123q-1 52 -54.5 100t-126.5 48q-84 0 -139.5 -63.5t-55.5 -157.5q0 -96 59 -161
t149 -65z" />
    <glyph glyph-name="uni0122" unicode="&#x122;" horiz-adv-x="730" 
d="M693 324q17 0 17 -7v-2q0 -4 -16 -7t-32.5 -10t-16.5 -22v-277q0 -9 -8 -9q-10 0 -12 8l-6 82q-39 -42 -102 -66t-137 -24q-127 0 -231 109.5t-104 261.5q0 153 98.5 256t235.5 103q59 0 111.5 -21t84 -51.5t49.5 -60.5t18 -51q0 -19 -18 -19q-10 0 -19.5 18.5
t-23.5 45.5t-37 53.5t-69 45t-110 18.5q-112 0 -201 -96t-89 -231q0 -150 97 -253.5t222 -103.5q144 0 221 97v165q0 20 -37.5 27.5t-37.5 11.5v2q0 7 17 7h136zM404 -86q16 0 25.5 -11.5t9.5 -30.5q0 -86 -73 -145q-6 -6 -11.5 0t2.5 12q25 23 35.5 42.5t18.5 49.5
q3 9 -6 9q-16 0 -25.5 10t-9.5 27q0 16 9.5 26.5t24.5 10.5z" />
    <glyph glyph-name="uni0123" unicode="&#x123;" horiz-adv-x="556" 
d="M278 592q-16 0 -25.5 11.5t-9.5 30.5q0 86 73 146q3 3 7.5 1t5.5 -6t-3 -8q-26 -23 -36.5 -42.5t-18.5 -49.5q-3 -9 6 -9q16 0 25.5 -10t9.5 -27q0 -16 -9.5 -26.5t-24.5 -10.5zM502 471q10 -6 10 -11v-2q0 -3 -17 -13.5t-17 -27.5v-377q0 -119 -52.5 -181t-142.5 -62
q-88 0 -140 51.5t-52 97.5q0 17 20 17q8 0 13.5 -15t14 -36t23.5 -42.5t48.5 -36.5t82.5 -15q72 0 114 57t42 166v74q-23 -55 -72.5 -85t-105.5 -30q-93 0 -160.5 71t-67.5 171q0 108 65.5 178t169.5 70q55 0 102.5 -30.5t70.5 -76.5l-1 95q0 9 5 12t15 -2zM281 22
q60 0 114 48t54 128v123q-1 52 -54.5 100t-126.5 48q-84 0 -139.5 -63.5t-55.5 -157.5q0 -96 59 -161t149 -65z" />
    <glyph glyph-name="Hbar" unicode="&#x126;" horiz-adv-x="751" 
d="M699 575q11 0 11 -9v-5q0 -8 -11 -8h-55v-510q0 -16 17 -23.5t17 -10.5v-2q0 -7 -17 -7h-63q-18 0 -18 7v2q0 3 17 10.5t17 23.5l1 311h-478v-311q0 -16 17.5 -23.5t17.5 -10.5v-2q0 -7 -18 -7h-63q-17 0 -17 7v2q0 3 16.5 10.5t16.5 23.5v510h-60q-11 0 -11 8v5
q0 9 11 9h60v92q0 16 -16.5 23.5t-16.5 10.5v2q0 7 17 7h63q18 0 18 -7v-2q0 -3 -17.5 -10.5t-17.5 -23.5v-92h477v92q0 16 -17 23.5t-17 10.5v2q0 7 18 7h63q17 0 17 -7v-2q0 -3 -17 -10.5t-17 -23.5v-92h55zM615 376l-1 177h-477l-1 -177h479z" />
    <glyph glyph-name="hbar" unicode="&#x127;" horiz-adv-x="542" 
d="M473 47q1 -13 10 -19t17.5 -9t8.5 -8v-4q0 -7 -18 -7h-66q-17 0 -17 7v4q0 5 9 8t17.5 8.5t8.5 18.5l-9 214q-4 100 -48.5 154t-111.5 54q-65 0 -111 -41t-53 -104v-279q0 -16 18 -22t18 -11v-2q0 -9 -19 -9h-63q-17 0 -17 9v2q0 5 16.5 11t16.5 22v522h-85q-13 0 -13 9
v6q0 7 13 7h85v88q0 15 -8 23.5t-16 12.5t-8 7v2q0 5 9 10l31 14q11 5 17 2t6 -11l-1 -148h145q12 0 12 -8v-4q0 -10 -12 -10h-145l-1 -181q23 47 67.5 76t98.5 29q81 0 132 -59t56 -170z" />
    <glyph glyph-name="Itilde" unicode="&#x128;" horiz-adv-x="242" 
d="M45 879q31 0 80 -32t67 -32q41 0 60 49q3 11 11 11h4q10 0 7 -13q-20 -71 -83 -71q-30 0 -77 32t-70 32q-43 0 -60 -52q-4 -13 -9 -13h-5q-11 0 -8 14q18 75 83 75zM73 7v1q0 3 16.5 10.5t16.5 23.5v625q0 16 -16.5 23.5t-16.5 10.5v2q0 7 17 7h63q17 0 17 -7v-2
q0 -3 -17 -10.5t-17 -23.5v-625q0 -16 17 -23.5t17 -10.5v-1q0 -8 -17 -8h-63q-17 0 -17 8z" />
    <glyph glyph-name="itilde" unicode="&#x129;" horiz-adv-x="198" 
d="M23 693q31 0 80 -32t67 -32q41 0 60 49q3 11 11 11h4q10 0 7 -13q-20 -71 -84 -71q-30 0 -76.5 32t-69.5 32q-43 0 -60 -52q-4 -13 -9 -13h-5q-11 0 -8 14q18 75 83 75zM69 0q-17 0 -17 9v3q0 5 17 11.5t17 22.5v370q0 20 -16.5 32t-16.5 14v2q0 3 10 9l30 14
q22 10 22 -10v-431q0 -16 18 -22.5t18 -11.5v-3q0 -9 -19 -9h-63z" />
    <glyph glyph-name="Imacron" unicode="&#x12a;" horiz-adv-x="242" 
d="M-9 826q-13 0 -13 9v6q0 9 13 9h250q13 0 13 -9v-6q0 -9 -13 -9h-250zM73 7v1q0 3 16.5 10.5t16.5 23.5v625q0 16 -16.5 23.5t-16.5 10.5v2q0 7 17 7h63q17 0 17 -7v-2q0 -3 -17 -10.5t-17 -23.5v-625q0 -16 17 -23.5t17 -10.5v-1q0 -8 -17 -8h-63q-17 0 -17 8z" />
    <glyph glyph-name="imacron" unicode="&#x12b;" horiz-adv-x="198" 
d="M-20 623q-13 0 -13 10v6q0 9 13 9h250q12 0 12 -9v-6q0 -10 -12 -10h-250zM69 0q-17 0 -17 9v3q0 5 17 11.5t17 22.5v370q0 20 -16.5 32t-16.5 14v2q0 3 10 9l30 14q22 10 22 -10v-431q0 -16 18 -22.5t18 -11.5v-3q0 -9 -19 -9h-63z" />
    <glyph glyph-name="Iogonek" unicode="&#x12e;" horiz-adv-x="242" 
d="M170 701q0 -3 -17 -10.5t-17 -23.5v-625q0 -16 17 -23.5t17 -10.5v-1q0 -8 -17 -8h-19q-33 -25 -56 -59.5t-23 -65.5q0 -23 13 -37.5t34 -14.5q14 0 33 8q10 4 12 -6t-3 -13q-18 -11 -44 -11q-30 0 -51.5 19.5t-21.5 49.5q0 34 24.5 70t57.5 60h-19q-17 0 -17 8v1
q0 3 16.5 10.5t16.5 23.5v625q0 16 -16.5 23.5t-16.5 10.5v2q0 7 17 7h63q17 0 17 -7v-2z" />
    <glyph glyph-name="iogonek" unicode="&#x12f;" horiz-adv-x="198" 
d="M94 599q-36 0 -36 36q0 18 9.5 28.5t26.5 10.5q15 0 24 -10.5t9 -28.5q0 -36 -33 -36zM115 46q0 -16 18 -22.5t18 -11.5v-3q0 -9 -19 -9h-17q-32 -26 -55.5 -60.5t-23.5 -65.5q0 -23 12.5 -37.5t33.5 -14.5q14 0 33 8q10 4 12 -6t-3 -13q-18 -11 -43 -11q-31 0 -52 19.5
t-21 49.5q0 34 24.5 70.5t57.5 60.5h-21q-17 0 -17 9v3q0 5 17 11.5t17 22.5v370q0 20 -16.5 32t-16.5 14v2q0 3 10 9l30 14q22 10 22 -10v-431z" />
    <glyph glyph-name="Idotaccent" unicode="&#x130;" horiz-adv-x="242" 
d="M122 793q-36 0 -36 37q0 38 36 38q33 0 33 -38q0 -37 -33 -37zM73 7v1q0 3 16.5 10.5t16.5 23.5v625q0 16 -16.5 23.5t-16.5 10.5v2q0 7 17 7h63q17 0 17 -7v-2q0 -3 -17 -10.5t-17 -23.5v-625q0 -16 17 -23.5t17 -10.5v-1q0 -8 -17 -8h-63q-17 0 -17 8z" />
    <glyph glyph-name="dotlessi" unicode="&#x131;" horiz-adv-x="197" 
d="M69 0q-17 0 -17 9v3q0 5 17 11.5t17 22.5v370q0 20 -16.5 32t-16.5 14v2q0 3 10 9l30 14q22 10 22 -10v-431q0 -16 18 -22.5t18 -11.5v-3q0 -9 -19 -9h-63z" />
    <glyph glyph-name="IJ" unicode="&#x132;" horiz-adv-x="716" 
d="M73 7v1q0 3 16.5 10.5t16.5 23.5v625q0 16 -16.5 23.5t-16.5 10.5v2q0 7 17 7h63q17 0 17 -7v-2q0 -3 -17 -10.5t-17 -23.5v-625q0 -16 17 -23.5t17 -10.5v-1q0 -8 -17 -8h-63q-17 0 -17 8zM590 667q0 16 -16.5 23.5t-16.5 10.5v2q0 7 17 7h64q17 0 17 -7v-2
q0 -3 -17 -10.5t-17 -23.5l-2 -454q-1 -118 -53 -170.5t-134 -52.5q-84 0 -133.5 50t-49.5 97q0 18 17 18q10 0 16.5 -10.5t10 -26.5t13 -34.5t23 -34.5t43 -26.5t70.5 -10.5q62 0 105 52t43 153v450z" />
    <glyph glyph-name="ij" unicode="&#x133;" horiz-adv-x="401" 
d="M94 599q-36 0 -36 36q0 18 9.5 28.5t26.5 10.5q15 0 24 -10.5t9 -28.5q0 -36 -33 -36zM304 599q-36 0 -36 36q0 18 9.5 28.5t26.5 10.5q15 0 24 -10.5t9 -28.5q0 -36 -33 -36zM69 0q-17 0 -17 9v3q0 5 17 11.5t17 22.5v370q0 20 -16.5 32t-16.5 14v2q0 3 10 9l30 14
q22 10 22 -10v-431q0 -16 18 -22.5t18 -11.5v-3q0 -9 -19 -9h-63zM245 -174q-34 0 -56 18.5t-22 44.5q0 17 16 17q9 0 14 -9t7.5 -20.5t13 -20.5t28.5 -9q23 0 37 17t14 45q0 15 -1.5 49t-1.5 51v407q0 20 -16.5 30.5t-16.5 14.5v2q0 5 10 10l31 14q22 10 22 -10v-467
q0 -83 -1 -101q-2 -37 -23 -60t-55 -23z" />
    <glyph glyph-name="uni0136" unicode="&#x136;" horiz-adv-x="660" 
d="M615 46q0 -16 20 -25.5t20 -12.5v-1q0 -7 -18 -7h-66q-18 0 -18 7v1q0 3 15.5 12t15.5 25q0 103 -63.5 219.5t-174.5 186.5l-210 -206v-200q0 -16 17.5 -25t17.5 -12v-1q0 -7 -18 -7h-63q-17 0 -17 7v1q0 3 16.5 12t16.5 25v621q0 16 -16.5 23.5t-16.5 10.5v3q0 7 17 7
h63q18 0 18 -7v-3q0 -3 -17.5 -10.5t-17.5 -23.5v-389l396 385q12 14 7.5 19t-15.5 10.5t-11 8.5v3q0 7 17 7h65q18 0 18 -7v-3q0 -4 -6.5 -8t-20 -12t-24.5 -18l-198 -194q114 -73 182 -195t69 -227zM364 -86q15 0 24.5 -11.5t9.5 -30.5q0 -87 -72 -145q-8 -7 -13 2
q-3 5 3 10q18 16 29.5 33t15 27t10.5 32q3 9 -6 9q-16 0 -26 10.5t-10 26.5q0 17 9.5 27t25.5 10z" />
    <glyph glyph-name="uni0137" unicode="&#x137;" horiz-adv-x="477" 
d="M438 41q7 -10 25 -16t18 -14v-2q0 -9 -9 -9h-77q-9 0 -9 9v3q0 5 12.5 11.5t4.5 17.5l-158 219q-56 -24 -137 -25v-187q0 -15 18.5 -21.5t18.5 -13.5v-4q0 -9 -19 -9h-63q-17 0 -17 9v4q0 7 17 13.5t17 21.5v624q0 18 -16.5 31t-16.5 17v1q0 7 10 11l32 14q19 10 19 -10
v-478q70 1 120 18.5t73 43.5t37.5 55.5t17.5 55t10 42.5t18 17q17 0 17 -18q0 -15 -5 -37t-18 -52.5t-41.5 -61t-68.5 -51.5zM252 -86q15 0 25 -11.5t10 -30.5q0 -86 -73 -145q-7 -7 -13 2q-3 5 3 10q18 16 29.5 33t15 27t10.5 32q3 9 -6 9q-16 0 -25.5 10t-9.5 27
q0 16 9.5 26.5t24.5 10.5z" />
    <glyph glyph-name="kgreenlandic" unicode="&#x138;" horiz-adv-x="477" 
d="M438 41q7 -10 25 -16t18 -14v-2q0 -9 -9 -9h-77q-9 0 -9 9v3q0 5 12.5 11.5t4.5 17.5l-158 219q-56 -24 -137 -25v-187q0 -15 18.5 -21.5t18.5 -13.5v-4q0 -9 -19 -9h-63q-17 0 -17 9v4q0 7 17 13.5t17 21.5v459q0 11 -5 19.5t-11.5 12.5t-11.5 8t-5 8v1q0 7 10 11l32 14
q19 9 19 -10v-313q70 1 120 18.5t73 43.5t37.5 55.5t17.5 55t10 42.5t18 17q17 0 17 -18q0 -15 -5 -37t-18 -52.5t-41.5 -61t-68.5 -51.5z" />
    <glyph glyph-name="Lacute" unicode="&#x139;" horiz-adv-x="553" 
d="M34 789q-12 -2 -14 6q-2 6 6 11l202 77q14 6 20 -7l3 -10q3 -10 -11 -14zM90 0q-17 0 -17 7v2q0 3 16.5 11t16.5 24v622q0 18 -16.5 24.5t-16.5 10.5v2q0 7 17 7h63q18 0 18 -7v-2q0 -4 -17.5 -10.5t-17.5 -24.5v-623q0 -21 20 -21h302q17 0 30.5 22t24 44t20.5 22h5
q9 0 5 -13l-24 -80q-5 -17 -19 -17h-410z" />
    <glyph glyph-name="lacute" unicode="&#x13a;" horiz-adv-x="194" 
d="M-1 790q-12 -4 -14 6q-1 7 7 11l202 77q14 7 19 -8l3 -9q3 -10 -11 -14zM66 0q-17 0 -17 9v2q0 5 16.5 11t16.5 22v632q0 15 -8 23.5t-16.5 12.5t-8.5 7v2q0 5 9 10l31 14q11 5 17 2t6 -11v-692q0 -16 17.5 -22t17.5 -11v-2q0 -9 -18 -9h-63z" />
    <glyph glyph-name="uni013B" unicode="&#x13b;" horiz-adv-x="553" 
d="M90 0q-17 0 -17 7v2q0 3 16.5 11t16.5 24v622q0 18 -16.5 24.5t-16.5 10.5v2q0 7 17 7h63q18 0 18 -7v-2q0 -4 -17.5 -10.5t-17.5 -24.5v-623q0 -21 20 -21h302q17 0 30.5 22t24 44t20.5 22h5q9 0 5 -13l-24 -80q-5 -17 -19 -17h-410zM272 -273q-6 -6 -11.5 0t2.5 12
q25 23 35.5 42.5t18.5 49.5q3 9 -6 9q-15 0 -25 10.5t-10 26.5t9.5 26.5t24.5 10.5q16 0 25.5 -11.5t9.5 -30.5q0 -86 -73 -145z" />
    <glyph glyph-name="uni013C" unicode="&#x13c;" horiz-adv-x="194" 
d="M66 0q-17 0 -17 9v2q0 5 16.5 11t16.5 22v632q0 15 -8 23.5t-16.5 12.5t-8.5 7v2q0 5 9 10l31 14q11 5 17 2t6 -11v-692q0 -16 17.5 -22t17.5 -11v-2q0 -9 -18 -9h-63zM68 -248q-4 -3 -8.5 -1.5t-5 5.5t3.5 9q18 15 29.5 32t15 27t10.5 32q3 9 -6 9q-16 0 -25.5 10
t-9.5 27t9 27t25 10q15 0 25 -11.5t10 -30.5q0 -86 -73 -145z" />
    <glyph glyph-name="Lcaron" unicode="&#x13d;" horiz-adv-x="554" 
d="M327 525l-2 2q-6 5 4 19q65 84 65 193q0 15 8 15h11q9 0 9 -15q0 -116 -78 -209q-11 -13 -17 -5zM90 0q-17 0 -17 7v2q0 3 16.5 11t16.5 24v622q0 18 -16.5 24.5t-16.5 10.5v2q0 7 17 7h63q18 0 18 -7v-2q0 -4 -17.5 -10.5t-17.5 -24.5v-623q0 -21 20 -21h302
q17 0 30.5 22t24 44t20.5 22h5q9 0 5 -13l-24 -80q-5 -17 -19 -17h-410z" />
    <glyph glyph-name="lcaron" unicode="&#x13e;" horiz-adv-x="208" 
d="M140 588l-2 2q-6 6 5 19q64 87 64 193q0 15 9 15h10q9 0 9 -15q0 -116 -78 -209q-10 -12 -17 -5zM66 0q-17 0 -17 9v2q0 5 16.5 11t16.5 22v632q0 15 -8 23.5t-16.5 12.5t-8.5 7v2q0 5 9 10l31 14q11 5 17 2t6 -11v-692q0 -16 17.5 -22t17.5 -11v-2q0 -9 -18 -9h-63z" />
    <glyph glyph-name="Ldot" unicode="&#x13f;" horiz-adv-x="553" 
d="M90 0q-17 0 -17 7v2q0 3 16.5 11t16.5 24v622q0 18 -16.5 24.5t-16.5 10.5v2q0 7 17 7h63q18 0 18 -7v-2q0 -4 -17.5 -10.5t-17.5 -24.5v-623q0 -21 20 -21h302q17 0 30.5 22t24 44t20.5 22h5q9 0 5 -13l-24 -80q-5 -17 -19 -17h-410zM362 349q-16 0 -26.5 10t-10.5 26
q0 18 10.5 28.5t26.5 10.5q17 0 27 -10.5t10 -28.5q0 -16 -10 -26t-27 -10z" />
    <glyph glyph-name="ldot" unicode="&#x140;" horiz-adv-x="200" 
d="M66 0q-17 0 -17 9v2q0 5 16.5 11t16.5 22v632q0 15 -8 23.5t-16.5 12.5t-8.5 7v2q0 5 9 10l31 14q11 5 17 2t6 -11v-692q0 -16 17.5 -22t17.5 -11v-2q0 -9 -18 -9h-63zM183 349q-17 0 -27 10t-10 26q0 18 10 28.5t27 10.5q16 0 26.5 -10.5t10.5 -28.5q0 -16 -10.5 -26
t-26.5 -10z" />
    <glyph glyph-name="Lslash" unicode="&#x141;" horiz-adv-x="579" 
d="M564 110q9 0 5 -13l-24 -80q-5 -17 -19 -17h-410q-17 0 -17 7v2q0 3 16.5 11t16.5 24v266l-89 -55q-12 -7 -17 1l-1 3q-5 9 8 17l99 60v330q0 18 -16.5 24.5t-16.5 10.5v2q0 7 17 7h63q18 0 18 -7v-2q0 -4 -17.5 -10.5t-17.5 -24.5v-312l118 72q10 6 14 -1l2 -3
q6 -8 -7 -15l-127 -78v-286q0 -21 20 -21h302q17 0 30.5 22t24 44t20.5 22h5z" />
    <glyph glyph-name="lslash" unicode="&#x142;" horiz-adv-x="240" 
d="M220 463q5 -7 -5 -13l-75 -51v-355q0 -16 17.5 -22t17.5 -11v-2q0 -9 -18 -9h-63q-17 0 -17 9v2q0 5 16.5 11t16.5 22v334l-74 -50q-7 -5 -13 2l-2 3q-7 5 2 12l87 60v271q0 15 -8 23.5t-16.5 12.5t-8.5 7v2q0 5 9 10l31 14q11 5 17 2t6 -11v-310l60 42q12 9 18 0z" />
    <glyph glyph-name="Nacute" unicode="&#x143;" horiz-adv-x="743" 
d="M292 789q-12 -2 -14 6q-1 7 7 11l202 77q14 7 19 -7l3 -10q3 -10 -11 -14zM658 710q17 0 17 -6v-2q0 -3 -18.5 -11.5t-18.5 -24.5v-652q0 -14 -11 -14h-4q-8 0 -22 21l-469 652v-625q0 -16 19.5 -26t19.5 -13v-2q0 -7 -18 -7h-66q-17 0 -17 7v2q0 3 18 13t18 26v617
q0 16 -18 24.5t-18 11.5v2q0 7 17 7h92q11 0 11 -6v-2q0 -4 -10 -8t-15 -9t4 -20l443 -614v615q0 16 -19 24.5t-19 11.5v2q0 6 18 6h66z" />
    <glyph glyph-name="nacute" unicode="&#x144;" horiz-adv-x="546" 
d="M191 564q-10 -6 -15 3q-4 7 4 12l180 120q13 9 21 -3l5 -8q5 -10 -8 -17zM478 47q1 -17 18.5 -24.5t17.5 -11.5v-4q0 -7 -19 -7h-66q-17 0 -17 7v4q0 5 9 8t17.5 8.5t8.5 18.5l-9 214q-4 100 -48.5 154t-111.5 54q-65 0 -111 -41t-53 -104v-278q0 -16 18 -22.5t18 -11.5
v-4q0 -7 -19 -7h-63q-18 0 -18 7v4q0 5 17.5 11.5t17.5 22.5v373q0 17 -8.5 25.5t-17 11t-8.5 6.5v2q0 6 10 10l32 14q21 9 21 -10v-91q23 47 67.5 75.5t97.5 28.5q81 0 132 -59t57 -170z" />
    <glyph glyph-name="uni0145" unicode="&#x145;" horiz-adv-x="743" 
d="M658 710q17 0 17 -6v-2q0 -3 -18.5 -11.5t-18.5 -24.5v-652q0 -14 -11 -14h-4q-8 0 -22 21l-469 652v-625q0 -16 19.5 -26t19.5 -13v-2q0 -7 -18 -7h-66q-17 0 -17 7v2q0 3 18 13t18 26v617q0 16 -18 24.5t-18 11.5v2q0 7 17 7h92q11 0 11 -6v-2q0 -4 -10 -8t-15 -9
t4 -20l443 -614v615q0 16 -19 24.5t-19 11.5v2q0 6 18 6h66zM378 -86q16 0 25.5 -11.5t9.5 -30.5q0 -86 -73 -145q-6 -6 -11.5 0t2.5 12q25 23 35.5 42.5t18.5 49.5q3 9 -6 9q-15 0 -25 10.5t-10 26.5t9.5 26.5t24.5 10.5z" />
    <glyph glyph-name="uni0146" unicode="&#x146;" horiz-adv-x="546" 
d="M478 47q1 -17 18.5 -24.5t17.5 -11.5v-4q0 -7 -19 -7h-66q-17 0 -17 7v4q0 5 9 8t17.5 8.5t8.5 18.5l-9 214q-4 100 -48.5 154t-111.5 54q-65 0 -111 -41t-53 -104v-278q0 -16 18 -22.5t18 -11.5v-4q0 -7 -19 -7h-63q-18 0 -18 7v4q0 5 17.5 11.5t17.5 22.5v373
q0 17 -8.5 25.5t-17 11t-8.5 6.5v2q0 6 10 10l32 14q21 9 21 -10v-91q23 47 67.5 75.5t97.5 28.5q81 0 132 -59t57 -170zM287 -86q16 0 25.5 -11.5t9.5 -30.5q0 -86 -73 -145q-7 -7 -13 2q-3 5 3 10q26 23 36.5 42.5t18.5 49.5q3 9 -6 9q-16 0 -25.5 10t-9.5 27
q0 16 9.5 26.5t24.5 10.5z" />
    <glyph glyph-name="Ncaron" unicode="&#x147;" horiz-adv-x="743" 
d="M363 757l-119 107q-9 9 0 14q8 5 17 -2l124 -104l125 104q13 11 20 1q4 -6 -3 -13l-119 -107q-10 -9 -19 -9h-7q-8 0 -19 9zM658 710q17 0 17 -6v-2q0 -3 -18.5 -11.5t-18.5 -24.5v-652q0 -14 -11 -14h-4q-8 0 -22 21l-469 652v-625q0 -16 19.5 -26t19.5 -13v-2
q0 -7 -18 -7h-66q-17 0 -17 7v2q0 3 18 13t18 26v617q0 16 -18 24.5t-18 11.5v2q0 7 17 7h92q11 0 11 -6v-2q0 -4 -10 -8t-15 -9t4 -20l443 -614v615q0 16 -19 24.5t-19 11.5v2q0 6 18 6h66z" />
    <glyph glyph-name="ncaron" unicode="&#x148;" horiz-adv-x="546" 
d="M130 679q-9 8 1 14q8 5 16 -2l124 -105l125 105q13 10 20 0q2 -6 -3 -12l-119 -107q-10 -10 -19 -10h-7q-9 0 -19 10zM478 47q1 -17 18.5 -24.5t17.5 -11.5v-4q0 -7 -19 -7h-66q-17 0 -17 7v4q0 5 9 8t17.5 8.5t8.5 18.5l-9 214q-4 100 -48.5 154t-111.5 54
q-65 0 -111 -41t-53 -104v-278q0 -16 18 -22.5t18 -11.5v-4q0 -7 -19 -7h-63q-18 0 -18 7v4q0 5 17.5 11.5t17.5 22.5v373q0 17 -8.5 25.5t-17 11t-8.5 6.5v2q0 6 10 10l32 14q21 9 21 -10v-91q23 47 67.5 75.5t97.5 28.5q81 0 132 -59t57 -170z" />
    <glyph glyph-name="napostrophe" unicode="&#x149;" horiz-adv-x="549" 
d="M-13 725q15 0 25 -11.5t10 -30.5q0 -86 -74 -146q-3 -3 -7.5 -1.5t-5.5 5.5t4 9q18 16 29.5 33t15 27t10.5 32q3 9 -7 9q-15 0 -25 10.5t-10 26.5q0 17 9.5 27t25.5 10zM481 47q1 -17 18.5 -24.5t17.5 -11.5v-4q0 -7 -18 -7h-66q-18 0 -18 7v4q0 5 9 8t17.5 8.5t8.5 18.5
l-9 214q-4 100 -48.5 154t-110.5 54q-65 0 -111 -41t-53 -104v-278q0 -16 17.5 -22.5t17.5 -11.5v-4q0 -7 -18 -7h-63q-18 0 -18 7v4q0 5 17 11.5t17 22.5v373q0 17 -8.5 25.5t-17 11t-8.5 6.5v2q0 5 11 10l31 14q22 9 22 -10v-90q23 46 67.5 74.5t97.5 28.5q81 0 132 -59
t56 -170z" />
    <glyph glyph-name="Eng" unicode="&#x14a;" horiz-adv-x="742" 
d="M657 710q18 0 18 -7v-2q0 -3 -19 -12.5t-19 -26.5v-617q0 -103 -47 -163t-130 -60q-72 0 -118 48t-46 96q0 18 18 18q14 0 22 -22t14.5 -48t37 -48t82.5 -22q58 0 95 46t44 124l-476 648v-614q0 -18 18.5 -27t18.5 -12v-2q0 -7 -17 -7h-66q-18 0 -18 7v2q0 3 18.5 12
t18.5 27v614q0 17 -18.5 26t-18.5 12v2q0 8 18 8h32q14 0 23 -13l468 -640v605q0 17 -18 26.5t-18 12.5v2q0 7 17 7h66z" />
    <glyph glyph-name="eng" unicode="&#x14b;" horiz-adv-x="537" 
d="M479 10q1 -52 0 -101q-1 -38 -22 -62.5t-56 -24.5q-30 0 -54 19t-24 48q0 17 18 17q10 0 15 -9.5t7 -21.5t11.5 -21.5t27.5 -9.5q23 0 37 17.5t14 47.5q0 17 -2 52.5t-2 48.5l-12 240q-5 105 -48.5 161.5t-113.5 56.5q-64 0 -109.5 -41t-52.5 -103l1 -279q0 -16 17.5 -23
t17.5 -11v-4q0 -7 -18 -7h-63q-18 0 -18 7v4q0 4 17.5 11t17.5 23v369q0 17 -16.5 30t-16.5 17v2q0 6 9 10l33 14q19 8 19 -10l1 -87q21 47 64 73.5t97 26.5q81 0 133 -61t59 -177z" />
    <glyph glyph-name="Omacron" unicode="&#x14c;" horiz-adv-x="780" 
d="M264 826q-13 0 -13 9v6q0 9 13 9h250q13 0 13 -9v-6q0 -9 -13 -9h-250zM401 -10q-151 0 -253.5 112t-102.5 258q0 152 98 256t248 104q146 0 245 -107t99 -261q0 -142 -97 -252t-237 -110zM403 12q85 0 155.5 49t108.5 125.5t38 159.5q0 148 -91.5 250t-231.5 102
q-132 0 -219.5 -97t-87.5 -237q0 -89 41.5 -169.5t118 -131.5t168.5 -51z" />
    <glyph glyph-name="omacron" unicode="&#x14d;" horiz-adv-x="550" 
d="M147 623q-12 0 -12 10v6q0 9 12 9h251q12 0 12 -9v-6q0 -10 -12 -10h-251zM282 -9q-101 0 -171 76t-70 184q0 101 66 169.5t168 68.5q99 0 166.5 -73.5t67.5 -182.5q0 -105 -64 -173.5t-163 -68.5zM289 12q81 0 135.5 62t54.5 152q0 106 -58.5 174t-151.5 68
q-84 0 -141 -61.5t-57 -149.5q0 -103 61.5 -174t156.5 -71z" />
    <glyph glyph-name="Ohungarumlaut" unicode="&#x150;" horiz-adv-x="780" 
d="M282 768q-8 4 2 16l119 148q8 11 16 4l9 -8q9 -9 -1 -19l-127 -136q-10 -13 -18 -5zM442 767q-8 5 2 16l119 148q9 10 16 4l9 -8q10 -8 -1 -19l-127 -136q-10 -12 -18 -5zM401 -10q-151 0 -253.5 112t-102.5 258q0 152 98 256t248 104q146 0 245 -107t99 -261
q0 -142 -97 -252t-237 -110zM403 12q85 0 155.5 49t108.5 125.5t38 159.5q0 148 -91.5 250t-231.5 102q-132 0 -219.5 -97t-87.5 -237q0 -89 41.5 -169.5t118 -131.5t168.5 -51z" />
    <glyph glyph-name="ohungarumlaut" unicode="&#x151;" horiz-adv-x="550" 
d="M191 562q-7 4 2 17l120 148q8 11 16 3l9 -8q9 -8 -1 -18l-127 -137q-10 -11 -19 -5zM352 561q-8 4 2 17l119 148q8 11 16 3l9 -8q10 -9 -1 -18l-127 -137q-9 -10 -18 -5zM282 -9q-101 0 -171 76t-70 184q0 101 66 169.5t168 68.5q99 0 166.5 -73.5t67.5 -182.5
q0 -105 -64 -173.5t-163 -68.5zM289 12q81 0 135.5 62t54.5 152q0 106 -58.5 174t-151.5 68q-84 0 -141 -61.5t-57 -149.5q0 -103 61.5 -174t156.5 -71z" />
    <glyph glyph-name="OE" unicode="&#x152;" horiz-adv-x="1158" 
d="M1128 111q9 0 5 -13l-24 -82q-4 -16 -19 -16h-400q-18 0 -18 8v2q0 3 17.5 11t17.5 24v163q-37 -100 -118.5 -159t-187.5 -59q-149 0 -252.5 108t-103.5 262q0 160 97 260t249 100q106 0 191.5 -65.5t124.5 -167.5v178q0 16 -17.5 25t-17.5 12v2q0 6 18 6h369
q15 0 20 -17l23 -81q5 -14 -5 -14h-4q-6 0 -15 23t-23 45.5t-31 22.5l-270 -1q-18 0 -18 -22v-289h265q16 0 23 22t10 22h4q9 0 9 -18v-74q0 -19 -9 -19h-4q-3 0 -10 22.5t-23 22.5h-264l-1 -311q0 -20 21 -20h298q17 0 31 21.5t23 43.5t15 22h4zM403 12q129 0 216.5 96
t87.5 238q0 147 -94 249.5t-231 102.5q-130 0 -218.5 -97t-88.5 -237q0 -150 94 -251t234 -101z" />
    <glyph glyph-name="oe" unicode="&#x153;" horiz-adv-x="934" 
d="M874 149q4 11 16 8t10 -15q-17 -67 -69.5 -109.5t-130.5 -42.5q-68 0 -123.5 44t-80.5 115q-22 -72 -78.5 -115t-134.5 -43q-99 0 -170.5 76.5t-71.5 183.5q0 101 66 169.5t169 68.5q73 0 131.5 -44.5t84.5 -116.5q21 73 78 117.5t135 44.5q74 0 131 -50.5t57 -109.5
q0 -12 -8 -17t-26 -9l-348 -94q11 -86 66 -141t132 -55q57 0 102.5 35.5t62.5 99.5zM695 469q-80 0 -133.5 -65.5t-53.5 -152.5q0 -14 1 -20l335 89q20 5 20 22q0 41 -51 84t-118 43zM293 12q81 0 134 61.5t53 151.5q0 105 -60.5 174t-153.5 69q-83 0 -139 -61.5t-56 -149.5
q0 -103 63.5 -174t158.5 -71z" />
    <glyph glyph-name="Racute" unicode="&#x154;" horiz-adv-x="622" 
d="M219 789q-12 -2 -15 6q-1 7 7 11l202 77q15 6 19 -7l4 -10q3 -10 -12 -14zM555 42q1 -16 20.5 -23t19.5 -10v-2q0 -7 -17 -7h-67q-17 0 -17 7v2q0 3 16 9.5t15 23.5q-2 81 -49.5 150.5t-125.5 97.5q-45 -8 -92 -8h-122v-239q0 -16 17.5 -23.5t17.5 -10.5v-2q0 -7 -18 -7
h-63q-17 0 -17 7v2q0 3 16.5 10.5t16.5 23.5v624q0 16 -16.5 23.5t-16.5 10.5v2q0 7 17 7h162q132 0 216.5 -54t85.5 -161q1 -72 -44 -123t-126 -74q73 -31 120 -104.5t51 -151.5zM164 303h95q120 0 192.5 50.5t72.5 131.5q0 104 -76 153.5t-195 49.5h-99q-18 0 -18 -22
v-335q0 -28 28 -28z" />
    <glyph glyph-name="racute" unicode="&#x155;" horiz-adv-x="333" 
d="M120 564q-10 -6 -15 3q-4 7 4 12l180 120q13 9 21 -3l5 -8q5 -10 -8 -17zM237 490q43 0 66.5 -18t23.5 -44q0 -17 -16 -17q-8 0 -13.5 8.5t-10 19.5t-19 19.5t-38.5 8.5q-51 0 -84 -47.5t-33 -119.5v-256q0 -16 18 -22.5t18 -10.5v-4q0 -7 -18 -7h-64q-18 0 -18 7v4
q0 4 17.5 10.5t17.5 22.5v373q0 11 -5 18.5t-11.5 11t-11.5 7t-5 7.5v2q0 6 10 10l32 14q19 9 19 -10v-85q16 47 49 72.5t76 25.5z" />
    <glyph glyph-name="uni0156" unicode="&#x156;" horiz-adv-x="622" 
d="M555 42q1 -16 20.5 -23t19.5 -10v-2q0 -7 -17 -7h-67q-17 0 -17 7v2q0 3 16 9.5t15 23.5q-2 81 -49.5 150.5t-125.5 97.5q-45 -8 -92 -8h-122v-239q0 -16 17.5 -23.5t17.5 -10.5v-2q0 -7 -18 -7h-63q-17 0 -17 7v2q0 3 16.5 10.5t16.5 23.5v624q0 16 -16.5 23.5
t-16.5 10.5v2q0 7 17 7h162q132 0 216.5 -54t85.5 -161q1 -72 -44 -123t-126 -74q73 -31 120 -104.5t51 -151.5zM164 303h95q120 0 192.5 50.5t72.5 131.5q0 104 -76 153.5t-195 49.5h-99q-18 0 -18 -22v-335q0 -28 28 -28zM334 -85q16 0 25.5 -11.5t9.5 -30.5
q0 -86 -73 -146q-3 -3 -7.5 -1t-5.5 6t4 8q38 35 54 91q3 10 -6 10q-15 0 -25 10.5t-10 26.5t9.5 26.5t24.5 10.5z" />
    <glyph glyph-name="uni0157" unicode="&#x157;" horiz-adv-x="333" 
d="M237 490q43 0 66.5 -18t23.5 -44q0 -17 -16 -17q-8 0 -13.5 8.5t-10 19.5t-19 19.5t-38.5 8.5q-51 0 -84 -47.5t-33 -119.5v-256q0 -16 18 -22.5t18 -10.5v-4q0 -7 -18 -7h-64q-18 0 -18 7v4q0 4 17.5 10.5t17.5 22.5v373q0 11 -5 18.5t-11.5 11t-11.5 7t-5 7.5v2
q0 6 10 10l32 14q19 9 19 -10v-85q16 47 49 72.5t76 25.5zM102 -86q16 0 25.5 -11.5t9.5 -30.5q0 -86 -73 -145q-6 -6 -11.5 0t2.5 12q25 23 35.5 42.5t18.5 49.5q3 9 -6 9q-16 0 -25.5 10t-9.5 27q0 16 9.5 26.5t24.5 10.5z" />
    <glyph glyph-name="Rcaron" unicode="&#x158;" horiz-adv-x="622" 
d="M171 864q-11 10 1 15q7 3 15 -3l124 -104l126 104q11 10 19 1q5 -6 -3 -13l-118 -107q-12 -9 -19 -9h-8q-9 0 -19 9zM555 42q1 -16 20.5 -23t19.5 -10v-2q0 -7 -17 -7h-67q-17 0 -17 7v2q0 3 16 9.5t15 23.5q-2 81 -49.5 150.5t-125.5 97.5q-45 -8 -92 -8h-122v-239
q0 -16 17.5 -23.5t17.5 -10.5v-2q0 -7 -18 -7h-63q-17 0 -17 7v2q0 3 16.5 10.5t16.5 23.5v624q0 16 -16.5 23.5t-16.5 10.5v2q0 7 17 7h162q132 0 216.5 -54t85.5 -161q1 -72 -44 -123t-126 -74q73 -31 120 -104.5t51 -151.5zM164 303h95q120 0 192.5 50.5t72.5 131.5
q0 104 -76 153.5t-195 49.5h-99q-18 0 -18 -22v-335q0 -28 28 -28z" />
    <glyph glyph-name="rcaron" unicode="&#x159;" horiz-adv-x="333" 
d="M325 691q13 10 20 0q2 -6 -3 -12l-119 -107q-10 -10 -19 -10h-7q-9 0 -19 10l-119 107q-9 8 1 14q8 5 16 -2l124 -105zM237 490q43 0 66.5 -18t23.5 -44q0 -17 -16 -17q-8 0 -13.5 8.5t-10 19.5t-19 19.5t-38.5 8.5q-51 0 -84 -47.5t-33 -119.5v-256q0 -16 18 -22.5
t18 -10.5v-4q0 -7 -18 -7h-64q-18 0 -18 7v4q0 4 17.5 10.5t17.5 22.5v373q0 11 -5 18.5t-11.5 11t-11.5 7t-5 7.5v2q0 6 10 10l32 14q19 9 19 -10v-85q16 47 49 72.5t76 25.5z" />
    <glyph glyph-name="Sacute" unicode="&#x15a;" horiz-adv-x="590" 
d="M235 789q-11 -2 -14 6q-1 7 7 11l202 77q15 6 19 -7l3 -10q3 -10 -11 -14zM306 -10q-68 0 -123.5 20.5t-85 50.5t-45 56.5t-15.5 44.5q0 19 16 19q9 0 17.5 -17.5t22 -42.5t36 -49.5t68.5 -42t109 -17.5q92 0 150 45t58 115q0 58 -25 94t-64.5 51t-87.5 22.5t-96.5 16
t-88 24.5t-64.5 54t-25 99q0 84 62 135t169 51q114 0 177.5 -51t63.5 -101q0 -18 -17 -18q-9 0 -15.5 11t-12 27.5t-19.5 35.5t-33 35.5t-57 27.5t-88 11q-94 0 -147 -45.5t-53 -121.5q0 -54 25 -86.5t64.5 -46t87.5 -20.5t96.5 -16.5t88 -27t64.5 -59t25 -105.5
q0 -78 -67.5 -128.5t-170.5 -50.5z" />
    <glyph glyph-name="sacute" unicode="&#x15b;" horiz-adv-x="455" 
d="M145 564q-10 -6 -15 3q-4 7 4 12l180 120q13 9 21 -3l5 -8q5 -10 -8 -17zM229 -10q-92 0 -142.5 39.5t-50.5 73.5q0 18 18 18q10 0 16 -11.5t13.5 -27.5t21 -32t45.5 -27.5t79 -11.5q67 0 111.5 29.5t44.5 79.5q0 47 -34.5 71.5t-83.5 33.5t-98 18.5t-83.5 38.5t-34.5 81
q0 53 48.5 90t122.5 37q83 0 133.5 -38t50.5 -78q0 -18 -15 -18q-8 0 -14 11.5t-14 28t-21.5 33.5t-44.5 28.5t-76 11.5q-57 0 -98.5 -30.5t-41.5 -76.5q0 -44 34.5 -67t83.5 -31t98 -18t83.5 -40.5t34.5 -86.5q0 -55 -51.5 -92t-134.5 -37z" />
    <glyph glyph-name="Scedilla" unicode="&#x15e;" horiz-adv-x="590" 
d="M544 169q0 -76 -63.5 -125.5t-161.5 -53.5l-3 -48q42 -1 66 -19.5t24 -46.5t-25 -46.5t-64 -18.5q-45 0 -78 23q-10 7 -4 17q5 8 14 2q29 -21 65 -21q26 0 45.5 12t18.5 33q-1 23 -23 33t-48 10q-24 0 -18 30l9 40q-66 1 -119.5 22.5t-82.5 50.5t-44 55.5t-15 43.5
q0 19 16 19q9 0 17.5 -17.5t22 -42.5t36 -49.5t68.5 -42t109 -17.5q92 0 150 45t58 115q0 58 -25 94t-64.5 51t-87.5 22.5t-96.5 16t-88 24.5t-64.5 54t-25 99q0 84 62 135t169 51q114 0 177.5 -51t63.5 -101q0 -18 -17 -18q-9 0 -15.5 11t-12 27.5t-19.5 35.5t-33 35.5
t-57 27.5t-88 11q-94 0 -147 -45.5t-53 -121.5q0 -54 25 -86.5t64.5 -46t87.5 -20.5t96.5 -16.5t88 -27t64.5 -59t25 -105.5z" />
    <glyph glyph-name="scedilla" unicode="&#x15f;" horiz-adv-x="455" 
d="M415 119q0 -54 -49 -91t-130 -38l-3 -48q42 -1 66.5 -19.5t24.5 -46.5t-25.5 -46.5t-64.5 -18.5q-44 0 -78 23q-10 7 -4 17q5 8 14 2q32 -21 65 -21q26 0 46 12t19 33q-1 23 -23.5 33t-48.5 10q-24 0 -18 30l9 40q-86 4 -132.5 42.5t-46.5 70.5q0 18 18 18q10 0 16 -11.5
t13.5 -27.5t21 -32t45.5 -27.5t79 -11.5q67 0 111.5 29.5t44.5 79.5q0 47 -34.5 71.5t-83.5 33.5t-98 18.5t-83.5 38.5t-34.5 81q0 53 48.5 90t122.5 37q83 0 133.5 -38t50.5 -78q0 -18 -15 -18q-8 0 -14 11.5t-14 28t-21.5 33.5t-44.5 28.5t-76 11.5q-57 0 -98.5 -30.5
t-41.5 -76.5q0 -44 34.5 -67t83.5 -31t98 -18t83.5 -40.5t34.5 -86.5z" />
    <glyph glyph-name="Scaron" unicode="&#x160;" horiz-adv-x="590" 
d="M283 757l-119 107q-9 9 1 14q8 5 16 -2l124 -104l125 104q13 11 20 1q4 -6 -3 -13l-119 -107q-10 -9 -19 -9h-7q-8 0 -19 9zM93 530q0 -54 25 -86.5t64.5 -46t87.5 -20.5t96.5 -16.5t88 -27t64.5 -59t25 -105.5q0 -78 -67.5 -128.5t-170.5 -50.5q-68 0 -123.5 20.5
t-85 50.5t-45 56.5t-15.5 44.5q0 19 16 19q9 0 17.5 -17.5t22 -42.5t36 -49.5t68.5 -42t109 -17.5q92 0 150 45t58 115q0 58 -25 94t-64.5 51t-87.5 22.5t-96.5 16t-88 24.5t-64.5 54t-25 99q0 84 62 135t169 51q114 0 177.5 -51t63.5 -101q0 -18 -17 -18q-9 0 -15.5 11
t-12 27.5t-19.5 35.5t-33 35.5t-57 27.5t-88 11q-94 0 -147 -45.5t-53 -121.5z" />
    <glyph glyph-name="scaron" unicode="&#x161;" horiz-adv-x="455" 
d="M84 679q-9 8 1 14q8 5 16 -2l124 -105l125 105q13 10 20 0q2 -6 -3 -12l-119 -107q-10 -10 -19 -10h-7q-9 0 -19 10zM81 362q0 -44 34.5 -67t83.5 -31t98 -18t83.5 -40.5t34.5 -86.5q0 -55 -51.5 -92t-134.5 -37q-92 0 -142.5 39.5t-50.5 73.5q0 18 18 18q10 0 16 -11.5
t13.5 -27.5t21 -32t45.5 -27.5t79 -11.5q67 0 111.5 29.5t44.5 79.5q0 47 -34.5 71.5t-83.5 33.5t-98 18.5t-83.5 38.5t-34.5 81q0 53 48.5 90t122.5 37q83 0 133.5 -38t50.5 -78q0 -18 -15 -18q-8 0 -14 11.5t-14 28t-21.5 33.5t-44.5 28.5t-76 11.5q-57 0 -98.5 -30.5
t-41.5 -76.5z" />
    <glyph glyph-name="uni0162" unicode="&#x162;" horiz-adv-x="585" 
d="M574 602q4 -13 -4 -13h-5q-6 0 -15 24.5t-23 49.5t-31 25h-194v-645q0 -16 17.5 -23.5t17.5 -10.5v-2q0 -7 -18 -7h-20l-3 -58q42 -1 66.5 -19.5t24.5 -46.5t-25.5 -46.5t-64.5 -18.5q-43 0 -78 23q-6 4 -5.5 10.5t5 9.5t11.5 -1q29 -21 64 -21q26 0 46 12t19 33
q-1 23 -23 33t-48 10q-25 0 -19 30l11 50h-24q-17 0 -17 7v2q0 3 16.5 10.5t16.5 23.5v645h-192q-14 0 -24 -15.5t-14.5 -34t-10 -34t-10.5 -15.5h-4q-8 0 -5 14l14 90q3 17 19 17h486q14 0 19 -17z" />
    <glyph glyph-name="uni0163" unicode="&#x163;" horiz-adv-x="325" 
d="M212 -58q42 -1 66.5 -19.5t24.5 -46.5t-25 -46.5t-64 -18.5q-44 0 -79 23q-5 4 -5 10.5t4.5 9.5t11.5 -1q29 -21 65 -21q26 0 45.5 12t18.5 33q-1 23 -23 33t-48 10q-25 0 -19 30l9 41q-44 4 -68.5 35.5t-24.5 91.5v340h-86q-10 0 -10 10v2q0 10 10 10h48q27 0 36 22.5
t9 68.5q0 17 10 17h2q9 0 9 -17l2 -91h160q10 0 10 -10v-2q0 -10 -10 -10h-160v-339q0 -51 19.5 -77.5t54.5 -26.5t57 20.5t22 53.5q0 7 6.5 10t12.5 0t6 -11q0 -39 -26 -66.5t-68 -30.5z" />
    <glyph glyph-name="Tcaron" unicode="&#x164;" horiz-adv-x="585" 
d="M148 864q-10 9 0 14q8 5 17 -2l124 -104l125 104q12 11 19 1q5 -6 -2 -13l-119 -107q-11 -9 -19 -9h-8q-7 0 -19 9zM574 602q4 -13 -4 -13h-5q-6 0 -15 24.5t-23 49.5t-31 25h-194v-645q0 -16 17.5 -23.5t17.5 -10.5v-2q0 -7 -18 -7h-63q-17 0 -17 7v2q0 3 16.5 10.5
t16.5 23.5v645h-192q-14 0 -24 -15.5t-14.5 -34t-10 -34t-10.5 -15.5h-4q-8 0 -5 14l14 90q3 17 19 17h486q14 0 19 -17z" />
    <glyph glyph-name="tcaron" unicode="&#x165;" horiz-adv-x="325" 
d="M210 535l-2 3q-5 5 5 19q64 83 64 193q0 15 9 15h10q9 0 9 -15q0 -116 -78 -209q-10 -12 -17 -6zM206 -9q-49 0 -77 31.5t-28 95.5v340h-86q-10 0 -10 10v2q0 10 10 10h48q27 0 36 22.5t9 68.5q0 17 10 17h2q9 0 9 -17l2 -91h160q10 0 10 -10v-2q0 -10 -10 -10h-160v-339
q0 -51 19.5 -77.5t54.5 -26.5t57 20.5t22 53.5q0 7 6.5 10t12.5 0t6 -11q0 -41 -28.5 -69t-74.5 -28z" />
    <glyph glyph-name="Tbar" unicode="&#x166;" horiz-adv-x="591" 
d="M578 602q4 -13 -5 -13h-4q-6 0 -15 24.5t-23 49.5t-31 25h-194v-322h112q13 0 13 -8v-4q0 -10 -13 -10h-112v-301q0 -16 17.5 -23.5t17.5 -10.5v-2q0 -7 -18 -7h-63q-17 0 -17 7v2q0 3 16.5 10.5t16.5 23.5v301h-118q-13 0 -13 10v5q0 7 13 7h118v322h-192
q-14 0 -24 -15.5t-14.5 -34t-10 -34t-10.5 -15.5h-4q-8 0 -5 14l14 90q3 17 19 17h486q14 0 19 -17z" />
    <glyph glyph-name="tbar" unicode="&#x167;" horiz-adv-x="346" 
d="M304 89q0 7 6 10t12 0t6 -11q0 -41 -28.5 -69t-73.5 -28q-50 0 -78 31.5t-28 95.5v161h-94q-13 0 -13 9v6q0 7 13 7h94v157h-86q-9 0 -9 10v2q0 10 9 10h48q28 0 37 22.5t8 68.5q0 17 11 17h2q8 0 8 -17l2 -91h161q9 0 9 -10v-2q0 -10 -9 -10h-161v-157h136q12 0 12 -8
v-4q0 -10 -12 -10h-136v-160q0 -50 20 -77t54 -27q36 0 57.5 20.5t22.5 53.5z" />
    <glyph glyph-name="Utilde" unicode="&#x168;" horiz-adv-x="729" 
d="M220 790q-11 0 -8 14q18 75 83 75q31 0 80 -32t67 -32q42 0 59 49q4 11 12 11h4q10 0 7 -13q-20 -71 -84 -71q-30 0 -76.5 32t-69.5 32q-43 0 -60 -52q-4 -13 -9 -13h-5zM616 69q0 -28 17 -37t34 -10t17 -10q0 -18 -45 -18q-14 0 -19.5 1t-15.5 7t-13.5 22t-3.5 43v58
q-29 -64 -91 -100t-146 -36q-117 0 -185.5 77.5t-68.5 207.5v378q0 14 -8.5 22t-17 12.5t-8.5 8.5v2q0 7 9 10l40 14q15 5 15 -7v-439q0 -120 60 -192t163 -72q107 0 172.5 61.5t65.5 160.5v419q0 14 -9.5 22t-18.5 12.5t-9 8.5v2q0 7 9 10l42 13q16 5 16 -6z" />
    <glyph glyph-name="utilde" unicode="&#x169;" horiz-adv-x="544" 
d="M110 604q-10 0 -7 14q18 75 82 75q31 0 80 -32t68 -32q40 0 59 49q3 11 11 11h4q10 0 7 -13q-20 -71 -83 -71q-30 0 -77 32t-70 32q-43 0 -60 -52q-3 -13 -9 -13h-5zM453 69q0 -23 10 -35t22 -13t22 -3.5t10 -9.5q0 -9 -7 -11.5t-27 -2.5q-25 0 -42.5 17.5t-16.5 55.5v30
q-23 -50 -66.5 -78.5t-99.5 -28.5q-86 0 -135.5 66.5t-49.5 182.5v183q0 18 -17 28t-17 14v1q0 7 10 10l40 12q14 5 14 -7v-241q0 -105 41 -166t113 -61t119.5 51.5t47.5 134.5v224q0 18 -18.5 27.5t-18.5 14.5v1q0 7 9 10l43 12q14 5 14 -7v-411z" />
    <glyph glyph-name="Umacron" unicode="&#x16a;" horiz-adv-x="729" 
d="M241 826q-13 0 -13 9v6q0 9 13 9h250q12 0 12 -9v-6q0 -9 -12 -9h-250zM616 69q0 -28 17 -37t34 -10t17 -10q0 -18 -45 -18q-14 0 -19.5 1t-15.5 7t-13.5 22t-3.5 43v58q-29 -64 -91 -100t-146 -36q-117 0 -185.5 77.5t-68.5 207.5v378q0 14 -8.5 22t-17 12.5t-8.5 8.5v2
q0 7 9 10l40 14q15 5 15 -7v-439q0 -120 60 -192t163 -72q107 0 172.5 61.5t65.5 160.5v419q0 14 -9.5 22t-18.5 12.5t-9 8.5v2q0 7 9 10l42 13q16 5 16 -6z" />
    <glyph glyph-name="umacron" unicode="&#x16b;" horiz-adv-x="544" 
d="M142 623q-13 0 -13 10v6q0 9 13 9h250q13 0 13 -9v-6q0 -10 -13 -10h-250zM453 69q0 -23 10 -35t22 -13t22 -3.5t10 -9.5q0 -9 -7 -11.5t-27 -2.5q-25 0 -42.5 17.5t-16.5 55.5v30q-23 -50 -66.5 -78.5t-99.5 -28.5q-86 0 -135.5 66.5t-49.5 182.5v183q0 18 -17 28
t-17 14v1q0 7 10 10l40 12q14 5 14 -7v-241q0 -105 41 -166t113 -61t119.5 51.5t47.5 134.5v224q0 18 -18.5 27.5t-18.5 14.5v1q0 7 9 10l43 12q14 5 14 -7v-411z" />
    <glyph glyph-name="Uring" unicode="&#x16e;" horiz-adv-x="729" 
d="M365 771q-41 0 -68 27t-27 65t27 65.5t69 27.5t69.5 -27t27.5 -65q0 -39 -27.5 -66t-70.5 -27zM366 935q-30 0 -49.5 -21t-19.5 -50q0 -30 19 -51t50 -21t50.5 21t19.5 51q0 29 -19.5 50t-50.5 21zM616 69q0 -28 17 -37t34 -10t17 -10q0 -18 -45 -18q-14 0 -19.5 1
t-15.5 7t-13.5 22t-3.5 43v58q-29 -64 -91 -100t-146 -36q-117 0 -185.5 77.5t-68.5 207.5v378q0 14 -8.5 22t-17 12.5t-8.5 8.5v2q0 7 9 10l40 14q15 5 15 -7v-439q0 -120 60 -192t163 -72q107 0 172.5 61.5t65.5 160.5v419q0 14 -9.5 22t-18.5 12.5t-9 8.5v2q0 7 9 10
l42 13q16 5 16 -6z" />
    <glyph glyph-name="uring" unicode="&#x16f;" horiz-adv-x="544" 
d="M266 553q-41 0 -68 27t-27 66q0 38 27 65.5t69 27.5q43 0 70 -27.5t27 -65.5q0 -39 -27.5 -66t-70.5 -27zM267 718q-30 0 -49.5 -21.5t-19.5 -50.5q0 -30 19 -51t50 -21t50.5 21t19.5 51q0 29 -19.5 50.5t-50.5 21.5zM453 69q0 -23 10 -35t22 -13t22 -3.5t10 -9.5
q0 -9 -7 -11.5t-27 -2.5q-25 0 -42.5 17.5t-16.5 55.5v30q-23 -50 -66.5 -78.5t-99.5 -28.5q-86 0 -135.5 66.5t-49.5 182.5v183q0 18 -17 28t-17 14v1q0 7 10 10l40 12q14 5 14 -7v-241q0 -105 41 -166t113 -61t119.5 51.5t47.5 134.5v224q0 18 -18.5 27.5t-18.5 14.5v1
q0 7 9 10l43 12q14 5 14 -7v-411z" />
    <glyph glyph-name="Uhungarumlaut" unicode="&#x170;" horiz-adv-x="729" 
d="M258 768q-8 5 2 16l120 148q8 11 15 4l10 -8q8 -8 -1 -19l-127 -136q-10 -13 -19 -5zM419 767q-9 5 2 16l119 148q8 11 16 4l9 -8q8 -8 -1 -19l-127 -136q-10 -12 -18 -5zM616 69q0 -28 17 -37t34 -10t17 -10q0 -18 -45 -18q-14 0 -19.5 1t-15.5 7t-13.5 22t-3.5 43v58
q-29 -64 -91 -100t-146 -36q-117 0 -185.5 77.5t-68.5 207.5v378q0 14 -8.5 22t-17 12.5t-8.5 8.5v2q0 7 9 10l40 14q15 5 15 -7v-439q0 -120 60 -192t163 -72q107 0 172.5 61.5t65.5 160.5v419q0 14 -9.5 22t-18.5 12.5t-9 8.5v2q0 7 9 10l42 13q16 5 16 -6z" />
    <glyph glyph-name="uhungarumlaut" unicode="&#x171;" horiz-adv-x="544" 
d="M150 562q-7 4 2 17l120 148q8 11 15 3l9 -8q11 -8 -1 -18l-126 -137q-10 -12 -19 -5zM310 561q-7 4 2 17l120 148q8 11 15 3l10 -8q9 -8 -1 -18l-127 -137q-9 -10 -19 -5zM453 69q0 -23 10 -35t22 -13t22 -3.5t10 -9.5q0 -9 -7 -11.5t-27 -2.5q-25 0 -42.5 17.5
t-16.5 55.5v30q-23 -50 -66.5 -78.5t-99.5 -28.5q-86 0 -135.5 66.5t-49.5 182.5v183q0 18 -17 28t-17 14v1q0 7 10 10l40 12q14 5 14 -7v-241q0 -105 41 -166t113 -61t119.5 51.5t47.5 134.5v224q0 18 -18.5 27.5t-18.5 14.5v1q0 7 9 10l43 12q14 5 14 -7v-411z" />
    <glyph glyph-name="Uogonek" unicode="&#x172;" horiz-adv-x="729" 
d="M651 -6q-71 -61 -71 -119q0 -23 13 -37t34 -14q12 0 33 7q6 3 9.5 -1t3 -9.5t-3.5 -7.5q-18 -11 -44 -11q-31 0 -52 19.5t-21 49.5q0 32 21 65.5t52 57.5q-18 2 -28.5 16.5t-9.5 56.5v58q-29 -64 -91 -100t-146 -36q-117 0 -185.5 77.5t-68.5 207.5v378q0 14 -8.5 22
t-17 12.5t-8.5 8.5v2q0 7 9 10l40 14q15 5 15 -7v-439q0 -120 60 -192t163 -72q107 0 172.5 61.5t65.5 160.5v419q0 14 -9.5 22t-18.5 12.5t-9 8.5v2q0 7 9 10l42 13q16 5 16 -6l-1 -645q0 -28 17 -37t34 -10t17 -10q0 -15 -33 -18z" />
    <glyph glyph-name="uogonek" unicode="&#x173;" horiz-adv-x="544" 
d="M467 -4q-66 -60 -66 -115q0 -23 13 -37t33 -14q15 0 34 8q10 4 12 -6t-3 -13q-18 -11 -44 -11q-30 0 -51.5 19.5t-21.5 49.5q0 32 22.5 66.5t54.5 59.5q-27 19 -26 64v30q-23 -50 -66.5 -78.5t-99.5 -28.5q-86 0 -135.5 66.5t-49.5 182.5v183q0 18 -17 28t-17 14v1
q0 7 10 10l40 12q14 5 14 -7v-241q0 -105 41 -166t113 -61t119.5 51.5t47.5 134.5v224q0 18 -18.5 27.5t-18.5 14.5v1q0 7 9 10l43 12q14 5 14 -7v-411q0 -23 10 -35t22 -13t22 -3.5t10 -9.5q0 -9 -7 -11.5t-27 -2.5q-6 0 -16 2z" />
    <glyph glyph-name="Wcircumflex" unicode="&#x174;" horiz-adv-x="945" 
d="M379 768q-6 -4 -11.5 -2.5t-6 6.5t4.5 10l110 91q13 10 19 10h7q7 0 20 -10l110 -91q6 -5 5.5 -10.5t-5 -7t-12.5 3.5l-121 88zM921 710q15 0 15 -6v-3q0 -6 -15.5 -12.5t-21.5 -22.5l-236 -656q-3 -10 -20 -10q-6 0 -13 11l-142 359l-156 -360q-4 -10 -20 -10
q-8 0 -13 11l-258 653q-7 17 -23 23.5t-16 12.5v3q0 7 15 7h71q15 0 15 -7v-3q0 -5 -10.5 -7.5t-18 -8.5t-2.5 -20l249 -627l155 362l-106 267q-7 20 -23 25.5t-16 9.5v3q0 6 12 6h29q14 0 18 -13l102 -261l112 261q6 13 18 13h18q15 0 15 -6v-3q0 -6 -16 -12.5t-23 -21.5
l-113 -261l144 -369l227 629q6 17 -14 23t-20 11v2q0 8 17 8h64z" />
    <glyph glyph-name="wcircumflex" unicode="&#x175;" horiz-adv-x="781" 
d="M270 566q-6 -4 -11.5 -2.5t-6 6.5t4.5 10l110 91q10 10 19 10h7q9 0 19 -10l111 -91q5 -4 4.5 -9.5t-5 -7t-12.5 2.5l-120 88zM672 490q6 0 13 -3t16 -14t15.5 -28t11 -48.5t4.5 -72.5q0 -77 -23 -143t-58 -106t-75 -62.5t-77 -22.5q-54 0 -84 34.5t-34 95.5
q-26 -59 -75 -94.5t-111 -35.5q-58 0 -88 38.5t-30 106.5v287q0 18 -17 28t-17 14v1q0 7 9 10l41 12q14 5 14 -7v-347q0 -121 86 -121q81 0 134.5 63.5t53.5 157.5v189q0 18 -17 28t-17 14v1q0 7 10 10l40 12q14 5 14 -7v-347q0 -121 86 -121q32 0 67 19t67.5 55t53.5 97
t21 136q0 39 -8.5 67t-18.5 39t-18.5 22.5t-8.5 23.5q0 19 20 19z" />
    <glyph glyph-name="Ycircumflex" unicode="&#x176;" horiz-adv-x="637" 
d="M206 768q-6 -4 -11.5 -2.5t-6 6.5t4.5 10l110 91q12 10 19 10h7q7 0 19 -10l110 -91q6 -5 5.5 -10.5t-5 -7t-12.5 3.5l-121 88zM607 710q17 0 17 -6v-2q0 -5 -6.5 -7.5t-17.5 -8.5t-19 -19l-244 -379v-245q0 -16 17 -23.5t17 -10.5v-2q0 -7 -17 -7h-64q-17 0 -17 7v2
q0 3 16.5 10.5t16.5 23.5v243l-250 381q-7 11 -19 17t-20 9.5t-8 7.5v2q0 7 18 7h68q17 0 17 -7v-2q0 -3 -16 -11t-7 -23l235 -363l233 363q11 16 -9 23.5t-20 10.5v2q0 7 15 7h64z" />
    <glyph glyph-name="ycircumflex" unicode="&#x177;" horiz-adv-x="528" 
d="M144 566q-6 -4 -11.5 -2t-6 7t4.5 10l110 91q11 9 19 9h7q9 0 19 -9l111 -91q9 -8 4 -15t-17 0l-120 88zM439 487q15 5 15 -7v-450q0 -114 -51.5 -173.5t-144.5 -59.5q-90 0 -140.5 51t-50.5 97q0 18 20 18q8 0 13 -15t13 -36t22.5 -42.5t48.5 -36.5t84 -15
q75 0 115.5 54t40.5 160v77q-23 -51 -66.5 -80t-99.5 -29q-85 0 -135 65.5t-50 173.5v183q0 18 -17 28t-17 14v1q0 7 10 10l40 12q14 5 14 -7v-241q0 -98 41 -157.5t113 -59.5t119.5 51.5t47.5 134.5v214q0 18 -18.5 27.5t-18.5 14.5v1q0 7 9 10z" />
    <glyph glyph-name="Ydieresis" unicode="&#x178;" horiz-adv-x="637" 
d="M251 807q-35 0 -35 36q0 17 9.5 27t25.5 10q14 0 23 -10t9 -27q0 -36 -32 -36zM402 807q-34 0 -34 36q0 37 34 37q14 0 23 -10t9 -27t-9 -26.5t-23 -9.5zM607 710q17 0 17 -6v-2q0 -5 -6.5 -7.5t-17.5 -8.5t-19 -19l-244 -379v-245q0 -16 17 -23.5t17 -10.5v-2
q0 -7 -17 -7h-64q-17 0 -17 7v2q0 3 16.5 10.5t16.5 23.5v243l-250 381q-7 11 -19 17t-20 9.5t-8 7.5v2q0 7 18 7h68q17 0 17 -7v-2q0 -3 -16 -11t-7 -23l235 -363l233 363q11 16 -9 23.5t-20 10.5v2q0 7 15 7h64z" />
    <glyph glyph-name="Zacute" unicode="&#x179;" horiz-adv-x="585" 
d="M206 789q-12 -2 -14 6q-1 6 6 11l202 77q14 6 20 -7l3 -10q3 -10 -11 -14zM561 111q15 0 11 -14l-26 -78q-7 -19 -23 -19h-482q-15 0 -15 14v2q0 7 7 17l476 655h-396q-17 0 -30.5 -22t-23 -44.5t-15.5 -22.5h-3q-10 0 -6 15l25 79q5 17 19 17h445q16 0 16 -14v-6
q0 -4 -7 -15l-474 -653h428q19 0 33 22t23.5 44.5t16.5 22.5h1z" />
    <glyph glyph-name="zacute" unicode="&#x17a;" horiz-adv-x="451" 
d="M164 564q-10 -6 -15 3q-3 7 4 12l180 120q13 10 20 -3l6 -8q5 -10 -8 -17zM430 112q11 0 6 -15l-25 -78q-7 -19 -24 -19h-344q-15 0 -15 14v2q0 8 6 17l339 426h-252q-18 0 -31.5 -22.5t-23 -45.5t-15.5 -23h-3q-10 0 -6 14l24 81q5 17 20 17h299q15 0 15 -14v-6
q0 -7 -7 -15l-335 -424h293q19 0 33 22.5t23.5 45.5t18.5 23h4z" />
    <glyph glyph-name="Zdotaccent" unicode="&#x17b;" horiz-adv-x="585" 
d="M301 793q-36 0 -36 37q0 38 36 38q15 0 24 -10t9 -28t-9 -27.5t-24 -9.5zM561 111q15 0 11 -14l-26 -78q-7 -19 -23 -19h-482q-15 0 -15 14v2q0 7 7 17l476 655h-396q-17 0 -30.5 -22t-23 -44.5t-15.5 -22.5h-3q-10 0 -6 15l25 79q5 17 19 17h445q16 0 16 -14v-6
q0 -4 -7 -15l-474 -653h428q19 0 33 22t23.5 44.5t16.5 22.5h1z" />
    <glyph glyph-name="zdotaccent" unicode="&#x17c;" horiz-adv-x="451" 
d="M245 599q-16 0 -26 9.5t-10 26.5q0 18 10 28.5t26 10.5q15 0 24.5 -10.5t9.5 -28.5q0 -17 -9.5 -26.5t-24.5 -9.5zM430 112q11 0 6 -15l-25 -78q-7 -19 -24 -19h-344q-15 0 -15 14v2q0 8 6 17l339 426h-252q-18 0 -31.5 -22.5t-23 -45.5t-15.5 -23h-3q-10 0 -6 14l24 81
q5 17 20 17h299q15 0 15 -14v-6q0 -7 -7 -15l-335 -424h293q19 0 33 22.5t23.5 45.5t18.5 23h4z" />
    <glyph glyph-name="Zcaron" unicode="&#x17d;" horiz-adv-x="585" 
d="M158 864q-10 9 0 14q8 5 17 -2l124 -104l125 104q12 11 19 1q5 -6 -2 -13l-119 -107q-10 -9 -19 -9h-8q-7 0 -19 9zM561 111q15 0 11 -14l-26 -78q-7 -19 -23 -19h-482q-15 0 -15 14v2q0 7 7 17l476 655h-396q-17 0 -30.5 -22t-23 -44.5t-15.5 -22.5h-3q-10 0 -6 15
l25 79q5 17 19 17h445q16 0 16 -14v-6q0 -4 -7 -15l-474 -653h428q19 0 33 22t23.5 44.5t16.5 22.5h1z" />
    <glyph glyph-name="zcaron" unicode="&#x17e;" horiz-adv-x="451" 
d="M103 679q-9 8 0 14q9 4 17 -2l124 -105l125 105q13 10 20 0q2 -6 -3 -12l-119 -107q-10 -10 -19 -10h-7q-9 0 -19 10zM430 112q11 0 6 -15l-25 -78q-7 -19 -24 -19h-344q-15 0 -15 14v2q0 8 6 17l339 426h-252q-18 0 -31.5 -22.5t-23 -45.5t-15.5 -23h-3q-10 0 -6 14
l24 81q5 17 20 17h299q15 0 15 -14v-6q0 -7 -7 -15l-335 -424h293q19 0 33 22.5t23.5 45.5t18.5 23h4z" />
    <glyph glyph-name="uni01EA" unicode="&#x1ea;" horiz-adv-x="780" 
d="M421 -9q-71 -61 -71 -119q0 -23 13 -37.5t33 -14.5q15 0 34 8q9 4 11.5 -6t-2.5 -13q-18 -11 -44 -11q-30 0 -51.5 19.5t-21.5 49.5q0 32 21 65t51 58q-148 3 -248.5 114t-100.5 256q0 152 98 256t248 104q146 0 245 -107t99 -261q0 -136 -90.5 -244t-223.5 -117zM75 364
q0 -89 41.5 -169.5t118 -131.5t168.5 -51q85 0 155.5 49t108.5 125.5t38 159.5q0 148 -91.5 250t-231.5 102q-132 0 -219.5 -97t-87.5 -237z" />
    <glyph glyph-name="uni01EB" unicode="&#x1eb;" horiz-adv-x="550" 
d="M308 -8q-65 -59 -65 -113q0 -24 12.5 -38t33.5 -14q14 0 33 8q10 4 12 -6t-3 -13q-18 -11 -43 -11q-31 0 -52 19.5t-21 49.5q0 60 65 117q-101 1 -170 77t-69 183q0 101 66 169.5t168 68.5q99 0 166.5 -73.5t67.5 -182.5q0 -97 -56 -164t-145 -77zM71 257
q0 -103 61.5 -174t156.5 -71q81 0 135.5 62t54.5 152q0 106 -58.5 174t-151.5 68q-84 0 -141 -61.5t-57 -149.5z" />
    <glyph glyph-name="AEacute" unicode="&#x1fc;" horiz-adv-x="905" 
d="M462 789q-12 -2 -14 6q-2 6 6 11l202 77q14 6 20 -7l3 -10q3 -10 -11 -14zM874 111q10 0 6 -13l-24 -82q-4 -16 -20 -16h-398q-18 0 -18 7v2q0 6 17.5 13t17.5 23v157h-286l-98 -159q-9 -15 9 -23t18 -10v-2q0 -8 -18 -8h-66q-18 0 -18 8v2q0 4 6.5 6t17.5 8.5t19 19.5
l379 612q9 19 5 25t-13.5 11t-9.5 9v2q0 7 14 7h392q14 0 19 -17l24 -81q5 -14 -5 -14h-4q-6 0 -15.5 22.5t-23.5 45t-31 22.5h-269q-17 0 -17 -26v-285h265q15 0 22 22t12 22h1q10 0 10 -18v-74q0 -18 -10 -18h-1q-5 0 -12 22t-22 22h-265v-309q0 -12 6 -18.5t15 -6.5h297
q17 0 30.5 22.5t23 45t15.5 22.5h3zM182 224h273v444z" />
    <glyph glyph-name="aeacute" unicode="&#x1fd;" horiz-adv-x="822" 
d="M357 564q-10 -6 -15 3q-4 7 4 12l180 120q13 9 21 -3l5 -8q5 -10 -8 -17zM764 149q4 11 15.5 8t8.5 -15q-17 -69 -69 -110.5t-130 -41.5q-66 0 -116 37t-77 97q-9 -56 -55.5 -95t-112.5 -39q-82 0 -133.5 42t-51.5 108q0 67 49.5 106.5t136.5 39.5q92 0 140 -53l-4 41
q-17 195 -159 195q-35 0 -59.5 -10.5t-36 -25.5t-18.5 -30t-13.5 -25.5t-15.5 -10.5q-18 0 -18 20q0 34 48.5 68.5t112.5 34.5q140 0 178 -155q22 71 77 113t133 42q73 0 129.5 -51t56.5 -109q0 -27 -32 -35l-348 -95q15 -82 68.5 -134t129.5 -52q56 0 102.5 35.5t63.5 99.5
zM584 469q-81 0 -134.5 -65t-53.5 -153q0 -10 2 -30l330 90q22 7 22 27q0 42 -50 86.5t-116 44.5zM228 11q64 0 106 42.5t42 95.5l-2 27q-7 36 -47 62.5t-99 26.5q-69 0 -112 -32.5t-43 -84.5q0 -62 42.5 -99.5t112.5 -37.5z" />
    <glyph glyph-name="Oslashacute" unicode="&#x1fe;" horiz-adv-x="799" 
d="M315 789q-11 -2 -14 6q-1 7 7 11l202 77q15 6 19 -7l3 -10q3 -10 -11 -14zM665 591q81 -102 81 -239q0 -142 -97 -252t-237 -110q-153 0 -259 118l-85 -81q-7 -5 -11 -1l-8 8q-3 4 4 11l85 80q-82 104 -82 235q0 152 97.5 256t247.5 104q149 0 250 -112l63 60q8 8 14 3
l5 -5q5 -6 -3 -14zM86 364q0 -119 73 -219l471 444q-93 109 -237 109q-132 0 -219.5 -97t-87.5 -237zM414 12q85 0 155.5 49t108.5 125.5t38 159.5q0 129 -71 225l-471 -444q97 -115 240 -115z" />
    <glyph glyph-name="oslashacute" unicode="&#x1ff;" horiz-adv-x="563" 
d="M214 564q-10 -5 -15 3q-4 7 4 12l180 120q12 11 20 -3l5 -8q6 -9 -7 -17zM522 465q7 -7 -2 -16l-56 -53q51 -70 51 -163q0 -105 -64 -173.5t-163 -68.5q-100 0 -169 74l-66 -63q-5 -7 -11 0l-6 5q-5 5 3 13l65 62q-57 73 -57 169q0 101 66 169.5t168 68.5q99 0 167 -74
l54 52q9 9 17 1zM77 257q0 -89 47 -155l305 295q-60 71 -154 71q-84 0 -141 -61.5t-57 -149.5zM485 226q0 87 -41 150l-306 -293q61 -71 157 -71q81 0 135.5 62t54.5 152z" />
    <glyph glyph-name="uni0218" unicode="&#x218;" horiz-adv-x="590" 
d="M306 -10q-68 0 -123.5 20.5t-85 50.5t-45 56.5t-15.5 44.5q0 19 16 19q9 0 17.5 -17.5t22 -42.5t36 -49.5t68.5 -42t109 -17.5q92 0 150 45t58 115q0 58 -25 94t-64.5 51t-87.5 22.5t-96.5 16t-88 24.5t-64.5 54t-25 99q0 84 62 135t169 51q114 0 177.5 -51t63.5 -101
q0 -18 -17 -18q-9 0 -15.5 11t-12 27.5t-19.5 35.5t-33 35.5t-57 27.5t-88 11q-94 0 -147 -45.5t-53 -121.5q0 -54 25 -86.5t64.5 -46t87.5 -20.5t96.5 -16.5t88 -27t64.5 -59t25 -105.5q0 -78 -67.5 -128.5t-170.5 -50.5zM279 -273q-6 -6 -11.5 0t2.5 12q25 23 35.5 42.5
t18.5 49.5q3 9 -6 9q-15 0 -25 10.5t-10 26.5t9.5 26.5t24.5 10.5q16 0 25.5 -11.5t9.5 -30.5q0 -86 -73 -145z" />
    <glyph glyph-name="uni0219" unicode="&#x219;" horiz-adv-x="455" 
d="M229 -10q-92 0 -142.5 39.5t-50.5 73.5q0 18 18 18q10 0 16 -11.5t13.5 -27.5t21 -32t45.5 -27.5t79 -11.5q67 0 111.5 29.5t44.5 79.5q0 47 -34.5 71.5t-83.5 33.5t-98 18.5t-83.5 38.5t-34.5 81q0 53 48.5 90t122.5 37q83 0 133.5 -38t50.5 -78q0 -18 -15 -18
q-8 0 -14 11.5t-14 28t-21.5 33.5t-44.5 28.5t-76 11.5q-57 0 -98.5 -30.5t-41.5 -76.5q0 -44 34.5 -67t83.5 -31t98 -18t83.5 -40.5t34.5 -86.5q0 -55 -51.5 -92t-134.5 -37zM197 -273q-8 -7 -13 2q-3 5 3 10q18 16 29.5 33t15 27t10.5 32q3 9 -7 9q-15 0 -25 10.5
t-10 26.5q0 17 9.5 27t25.5 10q15 0 24.5 -11.5t9.5 -30.5q0 -87 -72 -145z" />
    <glyph glyph-name="uni021A" unicode="&#x21a;" horiz-adv-x="585" 
d="M256 0q-17 0 -17 7v2q0 3 16.5 10.5t16.5 23.5v645h-192q-14 0 -24 -15.5t-14.5 -34t-10 -34t-10.5 -15.5h-4q-8 0 -5 14l14 90q3 17 19 17h486q14 0 19 -17l24 -91q4 -13 -4 -13h-5q-6 0 -15 24.5t-23 49.5t-31 25h-194v-645q0 -16 17.5 -23.5t17.5 -10.5v-2
q0 -7 -18 -7h-63zM260 -273q-7 -7 -13 2q-3 5 3 10q26 23 36.5 42.5t18.5 49.5q3 9 -6 9q-16 0 -25.5 10t-9.5 27q0 16 9.5 26.5t24.5 10.5t25 -11.5t10 -30.5q0 -86 -73 -145z" />
    <glyph glyph-name="uni021B" unicode="&#x21b;" horiz-adv-x="325" 
d="M206 -9q-49 0 -77 31.5t-28 95.5v340h-86q-10 0 -10 10v2q0 10 10 10h48q27 0 36 22.5t9 68.5q0 17 10 17h2q9 0 9 -17l2 -91h160q10 0 10 -10v-2q0 -10 -10 -10h-160v-339q0 -51 19.5 -77.5t54.5 -26.5t57 20.5t22 53.5q0 7 6.5 10t12.5 0t6 -11q0 -41 -28.5 -69
t-74.5 -28zM170 -264q-3 -3 -7.5 -1t-5.5 6t3 8q39 35 55 91q3 10 -6 10q-16 0 -25.5 10t-9.5 27q0 16 9.5 26.5t24.5 10.5q16 0 25.5 -11.5t9.5 -30.5q0 -86 -73 -146z" />
    <glyph glyph-name="uni0237" unicode="&#x237;" horiz-adv-x="204" 
d="M48 -174q-34 0 -56.5 18.5t-22.5 44.5q0 17 17 17q9 0 14 -9t7.5 -20.5t12.5 -20.5t28 -9q23 0 37 17t14 45q0 15 -1 49t-1 51v407q0 20 -16.5 30.5t-16.5 14.5v2q0 5 9 10l32 14q22 11 22 -10v-467q0 -65 -2 -101q-2 -37 -22.5 -60t-54.5 -23z" />
    <glyph glyph-name="circumflex" unicode="&#x2c6;" 
d="M329 580q6 -4 5.5 -9.5t-5 -7t-12.5 2.5l-121 88l-120 -88q-6 -4 -11.5 -2.5t-6 6.5t4.5 10l110 91q11 10 20 10h7q8 0 19 -10z" />
    <glyph glyph-name="caron" unicode="&#x2c7;" 
d="M321 691q12 10 19 0q3 -6 -2 -12l-119 -108q-11 -9 -19 -9h-7q-8 0 -20 9l-118 108q-10 8 0 14q8 5 17 -2l124 -105z" />
    <glyph glyph-name="breve" unicode="&#x2d8;" 
d="M231 583q-54 0 -93 31t-47 76q-2 14 9 16q9 2 11 -6q10 -41 43 -67t77 -26t77.5 26t44.5 67q3 9 12.5 6t7.5 -16q-7 -45 -47 -76t-95 -31z" />
    <glyph glyph-name="dotaccent" unicode="&#x2d9;" 
d="M145 599q-36 0 -36 36q0 18 9.5 28.5t26.5 10.5q15 0 24 -10.5t9 -28.5q0 -36 -33 -36z" />
    <glyph glyph-name="ring" unicode="&#x2da;" 
d="M212 553q-41 0 -68 27t-27 66q0 38 27 65t69 27t69 -27t27 -65q0 -39 -27.5 -66t-69.5 -27zM213 574q31 0 50 21t19 51q0 29 -19.5 50t-49.5 21t-49.5 -21t-19.5 -50q0 -30 19 -51t50 -21z" />
    <glyph glyph-name="ogonek" unicode="&#x2db;" 
d="M310 -202q-31 0 -52 19.5t-21 49.5q0 35 25.5 72t60.5 61h25q-34 -26 -58.5 -61t-24.5 -67q0 -24 13 -38t33 -14q15 0 33 8q6 3 10 -1.5t3.5 -10.5t-4.5 -7q-18 -11 -43 -11z" />
    <glyph glyph-name="tilde" unicode="&#x2dc;" 
d="M170 692q31 0 80 -31.5t67 -31.5q41 0 59 49q3 11 12 11h4q9 0 6 -13q-17 -71 -83 -71q-30 0 -76.5 32t-69.5 32q-43 0 -61 -52q-3 -13 -8 -13h-6q-10 0 -7 13q18 75 83 75z" />
    <glyph glyph-name="hungarumlaut" unicode="&#x2dd;" 
d="M46 562q-8 5 2 16l119 149q9 9 16 3l9 -8q10 -8 -1 -19l-127 -136q-10 -12 -18 -5zM206 561q-8 5 2 16l119 149q9 10 16 3l9 -8q10 -8 -1 -19l-126 -136q-10 -10 -19 -5z" />
    <glyph glyph-name="gravecomb" unicode="&#x300;" horiz-adv-x="0" 
d="M-276 563l-187 107q-13 8 -7 17l5 8q7 13 20 3l180 -120q7 -7 4 -12q-5 -9 -15 -3z" />
    <glyph glyph-name="acutecomb" unicode="&#x301;" horiz-adv-x="0" 
d="M-282 564q-11 -5 -15 2q-3 6 4 13l180 120q12 10 20 -3l5 -9q6 -7 -7 -16z" />
    <glyph glyph-name="uni0302" unicode="&#x302;" horiz-adv-x="0" 
d="M-66 580q6 -4 5.5 -9.5t-5 -7t-12.5 2.5l-121 88l-120 -88q-6 -4 -11.5 -2.5t-6 6.5t4.5 10l110 91q11 10 20 10h7q8 0 19 -10z" />
    <glyph glyph-name="tildecomb" unicode="&#x303;" horiz-adv-x="0" 
d="M-430 692q31 0 80 -31.5t67 -31.5q41 0 59 49q3 11 12 11h4q9 0 6 -13q-17 -71 -83 -71q-30 0 -76.5 32t-69.5 32q-43 0 -61 -52q-3 -13 -8 -13h-6q-10 0 -7 13q18 75 83 75z" />
    <glyph glyph-name="uni0304" unicode="&#x304;" horiz-adv-x="0" 
d="M-427 623q-13 0 -13 9v7q0 8 13 8h250q12 0 12 -8v-7q0 -9 -12 -9h-250z" />
    <glyph glyph-name="uni0306" unicode="&#x306;" horiz-adv-x="0" 
d="M-363 583q-54 0 -93 31t-47 76q-2 14 9 16q9 2 11 -6q10 -41 43 -67t77 -26t77.5 26t44.5 67q3 9 12.5 6t7.5 -16q-7 -45 -47 -76t-95 -31z" />
    <glyph glyph-name="uni0307" unicode="&#x307;" horiz-adv-x="0" 
d="M-144 599q-36 0 -36 36q0 18 9.5 28.5t26.5 10.5q15 0 24 -10.5t9 -28.5q0 -36 -33 -36z" />
    <glyph glyph-name="uni0308" unicode="&#x308;" horiz-adv-x="0" 
d="M-404 600q-16 0 -25.5 9.5t-9.5 25.5q0 17 9.5 27t25.5 10q32 0 32 -37q0 -35 -32 -35zM-253 600q-34 0 -34 35q0 37 34 37q15 0 24 -10t9 -27q0 -16 -9 -25.5t-24 -9.5z" />
    <glyph glyph-name="uni030A" unicode="&#x30a;" horiz-adv-x="0" 
d="M-220 553q-41 0 -68 27t-27 66q0 38 27 65t69 27t69 -27t27 -65q0 -39 -27.5 -66t-69.5 -27zM-219 574q31 0 50 21t19 51q0 29 -19.5 50t-49.5 21t-49.5 -21t-19.5 -50q0 -30 19 -51t50 -21z" />
    <glyph glyph-name="uni030B" unicode="&#x30b;" horiz-adv-x="0" 
d="M-341 562q-8 5 2 16l119 149q9 9 16 3l9 -8q10 -8 -1 -19l-127 -136q-10 -12 -18 -5zM-181 561q-8 5 2 16l119 149q10 10 16 3l9 -8q10 -8 -1 -19l-126 -136q-10 -10 -19 -5z" />
    <glyph glyph-name="uni030C" unicode="&#x30c;" horiz-adv-x="0" 
d="M-74 691q12 10 19 0q3 -6 -2 -12l-119 -108q-11 -9 -19 -9h-7q-8 0 -20 9l-118 108q-10 8 0 14q8 5 17 -2l124 -105z" />
    <glyph glyph-name="uni0312" unicode="&#x312;" horiz-adv-x="0" 
d="M-168 546q-4 -3 -8.5 -1.5t-5.5 5.5t4 9q18 16 29.5 33t15 26.5t10.5 31.5q3 9 -7 9q-15 0 -25 10.5t-10 27.5q0 16 9.5 26t25.5 10q15 0 24.5 -11.5t9.5 -30.5q0 -87 -72 -145z" />
    <glyph glyph-name="uni0326" unicode="&#x326;" horiz-adv-x="0" 
d="M-176 -273q-8 -7 -13 2q-3 5 3 10q18 16 29.5 33t15 27t10.5 32q3 9 -7 9q-15 0 -25 10.5t-10 26.5q0 17 9.5 27t25.5 10q15 0 24.5 -11.5t9.5 -30.5q0 -87 -72 -145z" />
    <glyph glyph-name="uni0327" unicode="&#x327;" horiz-adv-x="0" 
d="M-280 -58q42 -1 66.5 -19.5t24.5 -46.5t-25.5 -46.5t-64.5 -18.5q-43 0 -78 23q-6 4 -5.5 10.5t5 9.5t11.5 -1q29 -21 64 -21q26 0 46 12t19 33q-1 23 -23 33t-48 10q-25 0 -19 30l11 50h19z" />
    <glyph glyph-name="uni0328" unicode="&#x328;" horiz-adv-x="0" 
d="M-290 -202q-31 0 -52 19.5t-21 49.5q0 35 25.5 72t60.5 61h25q-34 -26 -58.5 -61t-24.5 -67q0 -24 13 -38t33 -14q15 0 33 8q6 3 10 -1.5t3 -10.5t-4 -7q-18 -11 -43 -11z" />
    <glyph glyph-name="uni0335" unicode="&#x335;" horiz-adv-x="0" 
d="M-430 280q-13 0 -13 9v5q0 8 13 8h261q12 0 12 -8v-5q0 -9 -12 -9h-261z" />
    <glyph glyph-name="uni0336" unicode="&#x336;" horiz-adv-x="0" 
d="M-681 266q-10 0 -10 8v5q0 8 10 8h652q12 0 12 -8v-5q0 -8 -12 -8h-652z" />
    <glyph glyph-name="uni0337" unicode="&#x337;" horiz-adv-x="0" 
d="M-398 199q-7 -5 -13 1l-3 3q-6 6 3 13l177 122q12 9 18 0l2 -4q4 -8 -5 -14z" />
    <glyph glyph-name="uni0338" unicode="&#x338;" horiz-adv-x="0" 
d="M-551 33l-6 6q-5 5 3 12l464 448q8 9 16 1l4 -4q6 -6 -3 -15l-467 -448q-6 -5 -11 0z" />
    <glyph glyph-name="Wgrave" unicode="&#x1e80;" horiz-adv-x="945" 
d="M367 867q-14 5 -11 15l4 9q5 14 19 7l199 -87q8 -5 6 -11q-3 -9 -15 -5zM921 710q15 0 15 -6v-3q0 -6 -15.5 -12.5t-21.5 -22.5l-236 -656q-3 -10 -20 -10q-6 0 -13 11l-142 359l-156 -360q-4 -10 -20 -10q-8 0 -13 11l-258 653q-7 17 -23 23.5t-16 12.5v3q0 7 15 7h71
q15 0 15 -7v-3q0 -5 -10.5 -7.5t-18 -8.5t-2.5 -20l249 -627l155 362l-106 267q-7 20 -23 25.5t-16 9.5v3q0 6 12 6h29q14 0 18 -13l102 -261l112 261q6 13 18 13h18q15 0 15 -6v-3q0 -6 -16 -12.5t-23 -21.5l-113 -261l144 -369l227 629q6 17 -14 23t-20 11v2q0 8 17 8h64z
" />
    <glyph glyph-name="wgrave" unicode="&#x1e81;" horiz-adv-x="781" 
d="M293 670q-13 7 -8 16l5 9q8 13 21 3l179 -120q8 -6 4 -13t-15 -2zM672 490q6 0 13 -3t16 -14t15.5 -28t11 -48.5t4.5 -72.5q0 -77 -23 -143t-58 -106t-75 -62.5t-77 -22.5q-54 0 -84 34.5t-34 95.5q-26 -59 -75 -94.5t-111 -35.5q-58 0 -88 38.5t-30 106.5v287
q0 18 -17 28t-17 14v1q0 7 9 10l41 12q14 5 14 -7v-347q0 -121 86 -121q81 0 134.5 63.5t53.5 157.5v189q0 18 -17 28t-17 14v1q0 7 10 10l40 12q14 5 14 -7v-347q0 -121 86 -121q32 0 67 19t67.5 55t53.5 97t21 136q0 39 -8.5 67t-18.5 39t-18.5 22.5t-8.5 23.5q0 19 20 19
z" />
    <glyph glyph-name="Wacute" unicode="&#x1e82;" horiz-adv-x="945" 
d="M406 789q-12 -2 -14 6q-2 6 6 11l202 77q14 6 20 -7l3 -10q3 -10 -11 -14zM921 710q15 0 15 -6v-3q0 -6 -15.5 -12.5t-21.5 -22.5l-236 -656q-3 -10 -20 -10q-6 0 -13 11l-142 359l-156 -360q-4 -10 -20 -10q-8 0 -13 11l-258 653q-7 17 -23 23.5t-16 12.5v3q0 7 15 7h71
q15 0 15 -7v-3q0 -5 -10.5 -7.5t-18 -8.5t-2.5 -20l249 -627l155 362l-106 267q-7 20 -23 25.5t-16 9.5v3q0 6 12 6h29q14 0 18 -13l102 -261l112 261q6 13 18 13h18q15 0 15 -6v-3q0 -6 -16 -12.5t-23 -21.5l-113 -261l144 -369l227 629q6 17 -14 23t-20 11v2q0 8 17 8h64z
" />
    <glyph glyph-name="wacute" unicode="&#x1e83;" horiz-adv-x="781" 
d="M309 564q-10 -6 -15 3q-3 5 4 12l180 120q13 9 21 -3l5 -8q5 -10 -8 -17zM672 490q6 0 13 -3t16 -14t15.5 -28t11 -48.5t4.5 -72.5q0 -77 -23 -143t-58 -106t-75 -62.5t-77 -22.5q-54 0 -84 34.5t-34 95.5q-26 -59 -75 -94.5t-111 -35.5q-58 0 -88 38.5t-30 106.5v287
q0 18 -17 28t-17 14v1q0 7 9 10l41 12q14 5 14 -7v-347q0 -121 86 -121q81 0 134.5 63.5t53.5 157.5v189q0 18 -17 28t-17 14v1q0 7 10 10l40 12q14 5 14 -7v-347q0 -121 86 -121q32 0 67 19t67.5 55t53.5 97t21 136q0 39 -8.5 67t-18.5 39t-18.5 22.5t-8.5 23.5q0 19 20 19
z" />
    <glyph glyph-name="Wdieresis" unicode="&#x1e84;" horiz-adv-x="945" 
d="M424 807q-15 0 -24.5 9.5t-9.5 26.5t9.5 27t24.5 10q32 0 32 -37q0 -36 -32 -36zM575 807q-15 0 -24.5 9.5t-9.5 26.5t9.5 27t24.5 10t24 -10t9 -27t-9 -26.5t-24 -9.5zM921 710q15 0 15 -6v-3q0 -6 -15.5 -12.5t-21.5 -22.5l-236 -656q-3 -10 -20 -10q-6 0 -13 11
l-142 359l-156 -360q-4 -10 -20 -10q-8 0 -13 11l-258 653q-7 17 -23 23.5t-16 12.5v3q0 7 15 7h71q15 0 15 -7v-3q0 -5 -10.5 -7.5t-18 -8.5t-2.5 -20l249 -627l155 362l-106 267q-7 20 -23 25.5t-16 9.5v3q0 6 12 6h29q14 0 18 -13l102 -261l112 261q6 13 18 13h18
q15 0 15 -6v-3q0 -6 -16 -12.5t-23 -21.5l-113 -261l144 -369l227 629q6 17 -14 23t-20 11v2q0 8 17 8h64z" />
    <glyph glyph-name="wdieresis" unicode="&#x1e85;" horiz-adv-x="781" 
d="M317 600q-16 0 -25.5 9.5t-9.5 25.5q0 17 9.5 27t25.5 10q31 0 31 -37q0 -35 -31 -35zM467 600q-33 0 -33 35q0 17 9 27t24 10t24 -10t9 -27q0 -16 -9 -25.5t-24 -9.5zM672 490q6 0 13 -3t16 -14t15.5 -28t11 -48.5t4.5 -72.5q0 -77 -23 -143t-58 -106t-75 -62.5
t-77 -22.5q-54 0 -84 34.5t-34 95.5q-26 -59 -75 -94.5t-111 -35.5q-58 0 -88 38.5t-30 106.5v287q0 18 -17 28t-17 14v1q0 7 9 10l41 12q14 5 14 -7v-347q0 -121 86 -121q81 0 134.5 63.5t53.5 157.5v189q0 18 -17 28t-17 14v1q0 7 10 10l40 12q14 5 14 -7v-347
q0 -121 86 -121q32 0 67 19t67.5 55t53.5 97t21 136q0 39 -8.5 67t-18.5 39t-18.5 22.5t-8.5 23.5q0 19 20 19z" />
    <glyph glyph-name="uni1E9E" unicode="&#x1e9e;" horiz-adv-x="638" 
d="M403 417q82 -8 138 -66t56 -150q0 -95 -66.5 -148t-163.5 -53q-7 0 -10 5.5t-0.5 11t10.5 5.5q82 0 141 45t59 135q0 81 -50.5 139.5t-138.5 58.5q-7 0 -7.5 10.5t5.5 11.5l152 126q0 62 -56 105.5t-148 44.5q-96 1 -155 -63t-59 -168v-419q0 -19 19.5 -27.5t19.5 -12.5
v-2q0 -6 -10 -6h-86q-10 0 -10 6v2q0 4 18.5 12.5t18.5 27.5v423q0 112 67 180.5t177 68.5q105 0 169 -48.5t64 -117.5q1 -7 -5 -15z" />
    <glyph glyph-name="Ygrave" unicode="&#x1ef2;" horiz-adv-x="637" 
d="M193 867q-14 6 -10 15l3 9q6 13 20 7l198 -87q9 -5 6 -11q-3 -9 -14 -5zM607 710q17 0 17 -6v-2q0 -5 -6.5 -7.5t-17.5 -8.5t-19 -19l-244 -379v-245q0 -16 17 -23.5t17 -10.5v-2q0 -7 -17 -7h-64q-17 0 -17 7v2q0 3 16.5 10.5t16.5 23.5v243l-250 381q-7 11 -19 17
t-20 9.5t-8 7.5v2q0 7 18 7h68q17 0 17 -7v-2q0 -3 -16 -11t-7 -23l235 -363l233 363q11 16 -9 23.5t-20 10.5v2q0 7 15 7h64z" />
    <glyph glyph-name="ygrave" unicode="&#x1ef3;" horiz-adv-x="528" 
d="M167 670q-13 7 -8 17l5 8q7 13 21 3l179 -120q8 -6 4 -12q-4 -8 -15 -3zM439 487q15 5 15 -7v-450q0 -114 -51.5 -173.5t-144.5 -59.5q-90 0 -140.5 51t-50.5 97q0 18 20 18q8 0 13 -15t13 -36t22.5 -42.5t48.5 -36.5t84 -15q75 0 115.5 54t40.5 160v77
q-23 -51 -66.5 -80t-99.5 -29q-85 0 -135 65.5t-50 173.5v183q0 18 -17 28t-17 14v1q0 7 10 10l40 12q14 5 14 -7v-241q0 -98 41 -157.5t113 -59.5t119.5 51.5t47.5 134.5v214q0 18 -18.5 27.5t-18.5 14.5v1q0 7 9 10z" />
    <glyph glyph-name="uni1EF8" unicode="&#x1ef8;" horiz-adv-x="637" 
d="M179 790q-10 0 -7 14q18 75 82 75q32 0 81 -32t67 -32q40 0 59 49q3 11 11 11h5q9 0 6 -13q-18 -71 -83 -71q-30 0 -77 32t-70 32q-20 0 -36 -14t-24 -38q-3 -13 -9 -13h-5zM607 710q17 0 17 -6v-2q0 -5 -6.5 -7.5t-17.5 -8.5t-19 -19l-244 -379v-245q0 -16 17 -23.5
t17 -10.5v-2q0 -7 -17 -7h-64q-17 0 -17 7v2q0 3 16.5 10.5t16.5 23.5v243l-250 381q-7 11 -19 17t-20 9.5t-8 7.5v2q0 7 18 7h68q17 0 17 -7v-2q0 -3 -16 -11t-7 -23l235 -363l233 363q11 16 -9 23.5t-20 10.5v2q0 7 15 7h64z" />
    <glyph glyph-name="uni1EF9" unicode="&#x1ef9;" horiz-adv-x="528" 
d="M106 604q-10 0 -7 14q18 75 82 75q32 0 81 -32t67 -32q40 0 59 49q3 11 11 11h5q9 0 6 -13q-18 -71 -83 -71q-30 0 -77 32t-70 32q-20 0 -36 -14t-24 -38q-3 -13 -9 -13h-5zM439 487q15 5 15 -7v-450q0 -114 -51.5 -173.5t-144.5 -59.5q-90 0 -140.5 51t-50.5 97
q0 18 20 18q8 0 13 -15t13 -36t22.5 -42.5t48.5 -36.5t84 -15q75 0 115.5 54t40.5 160v77q-23 -51 -66.5 -80t-99.5 -29q-85 0 -135 65.5t-50 173.5v183q0 18 -17 28t-17 14v1q0 7 10 10l40 12q14 5 14 -7v-241q0 -98 41 -157.5t113 -59.5t119.5 51.5t47.5 134.5v214
q0 18 -18.5 27.5t-18.5 14.5v1q0 7 9 10z" />
    <glyph glyph-name="endash" unicode="&#x2013;" horiz-adv-x="566" 
d="M71 297q-8 0 -8 7v10q0 5 8 5h424q7 0 7 -5v-10q0 -7 -7 -7h-424z" />
    <glyph glyph-name="emdash" unicode="&#x2014;" horiz-adv-x="723" 
d="M71 297q-8 0 -8 7v10q0 5 8 5h581q8 0 8 -5v-10q0 -7 -8 -7h-581z" />
    <glyph glyph-name="quoteleft" unicode="&#x2018;" horiz-adv-x="170" 
d="M118 755q6 5 11.5 -1t-1.5 -12q-18 -16 -29.5 -33.5t-15 -26.5t-10.5 -31q-3 -10 6 -10q16 0 26 -10.5t10 -26.5q0 -17 -9.5 -27t-25.5 -10q-15 0 -25 11.5t-10 30.5q0 86 73 146z" />
    <glyph glyph-name="quoteright" unicode="&#x2019;" horiz-adv-x="183" 
d="M68 505q-6 -5 -11.5 1t1.5 12q18 16 29.5 33t15 27t10.5 32q3 9 -6 9q-16 0 -26 10.5t-10 26.5q0 17 9.5 27t25.5 10q15 0 25 -11.5t10 -30.5q0 -86 -73 -146z" />
    <glyph glyph-name="quotesinglbase" unicode="&#x201a;" horiz-adv-x="168" 
d="M47 -124q-6 -5 -11.5 1t1.5 12q18 16 29.5 33.5t15 26.5t10.5 31q3 10 -6 10q-16 0 -26 10.5t-10 26.5q0 17 9.5 27t25.5 10q15 0 25 -11.5t10 -30.5q0 -86 -73 -146z" />
    <glyph glyph-name="quotedblleft" unicode="&#x201c;" horiz-adv-x="322" 
d="M117 774q8 7 13 -2q3 -5 -3 -10q-18 -16 -29.5 -33.5t-15 -27t-10.5 -31.5q-3 -10 6 -10q16 0 26 -10.5t10 -26.5q0 -17 -9.5 -27t-25.5 -10q-15 0 -25 11.5t-10 30.5q0 87 73 146zM273 774q7 7 13 -2q3 -5 -3 -10q-26 -24 -36.5 -43.5t-18.5 -48.5q-3 -10 6 -10
q16 0 25.5 -10t9.5 -27q0 -16 -9.5 -26.5t-24.5 -10.5q-16 0 -25.5 11.5t-9.5 30.5q0 87 73 146z" />
    <glyph glyph-name="quotedblright" unicode="&#x201d;" horiz-adv-x="337" 
d="M67 507q-6 -5 -11.5 1t1.5 12q18 16 29.5 33t15 27t10.5 32q3 9 -6 9q-16 0 -26 10.5t-10 26.5q0 17 9.5 27t25.5 10q15 0 25 -11.5t10 -30.5q0 -86 -73 -146zM223 507q-6 -5 -12 1t2 12q18 16 29.5 33t15 27t10.5 32q3 9 -6 9q-16 0 -26 10.5t-10 26.5q0 17 9.5 27
t25.5 10q15 0 25 -11.5t10 -30.5q0 -86 -73 -146z" />
    <glyph glyph-name="quotedblbase" unicode="&#x201e;" horiz-adv-x="324" 
d="M47 -124q-6 -5 -11.5 1t1.5 12q18 16 29.5 33.5t15 26.5t10.5 31q3 10 -6 10q-16 0 -26 10.5t-10 26.5q0 17 9.5 27t25.5 10q15 0 25 -11.5t10 -30.5q0 -86 -73 -146zM202 -124q-3 -3 -7.5 -1.5t-5.5 5.5t4 9q18 16 29.5 33.5t15 26.5t10.5 31q3 10 -7 10q-15 0 -25 10.5
t-10 26.5q0 17 9.5 27t25.5 10q15 0 24.5 -11.5t9.5 -30.5q0 -87 -73 -146z" />
    <glyph glyph-name="dagger" unicode="&#x2020;" horiz-adv-x="455" 
d="M418 515q8 0 11.5 -8t0 -16.5t-11.5 -8.5l-182 8l12 -542q0 -10 -20.5 -10t-20.5 10l12 542l-182 -8q-8 0 -12 8t0 16.5t12 8.5l182 -8l-14 265q-1 10 11 14t23.5 0t11.5 -14l-15 -265z" />
    <glyph glyph-name="daggerdbl" unicode="&#x2021;" horiz-adv-x="451" 
d="M406 302q9 0 12.5 -8.5t-0.5 -17t-12 -7.5l-167 6l7 -327q0 -10 -20.5 -10t-20.5 10l7 327l-167 -6q-8 -1 -12 7.5t0 17t12 8.5l168 -7l4 195l-172 -8q-8 0 -12 8t0 16.5t12 8.5l172 -8l-14 265q0 10 11.5 14t23.5 0t11 -14l-15 -265l172 8q9 0 12.5 -8t-0.5 -16.5
t-12 -8.5l-172 8l4 -195z" />
    <glyph glyph-name="bullet" unicode="&#x2022;" horiz-adv-x="302" 
d="M154 314q-33 0 -53 19.5t-20 54.5q0 37 19.5 57.5t53.5 20.5q31 0 49 -20.5t18 -57.5q0 -35 -18.5 -54.5t-48.5 -19.5z" />
    <glyph glyph-name="ellipsis" unicode="&#x2026;" horiz-adv-x="565" 
d="M96 -10q-15 0 -25 10t-10 25q0 17 9.5 28t25.5 11q15 0 24.5 -11t9.5 -28q0 -15 -9.5 -25t-24.5 -10zM289 -10q-15 0 -25 10t-10 25q0 17 9.5 28t25.5 11q15 0 24.5 -11t9.5 -28q0 -15 -9.5 -25t-24.5 -10zM470 -10q-15 0 -25 10t-10 25q0 17 9.5 28t25.5 11
q15 0 24.5 -11t9.5 -28q0 -15 -9.5 -25t-24.5 -10z" />
    <glyph glyph-name="perthousand" unicode="&#x2030;" horiz-adv-x="1234" 
d="M193 340q-70 0 -115.5 56t-45.5 137q0 82 42 134.5t114 52.5q66 0 111 -56.5t45 -134.5q0 -84 -42 -136.5t-109 -52.5zM210 0q-11 0 -5 11l413 694q5 5 11 5h10q11 0 5 -11l-410 -694q-4 -5 -11 -5h-13zM196 361q53 0 86 45.5t33 114.5q0 76 -37 127t-95 51
q-55 0 -89 -45.5t-34 -114.5q0 -76 37.5 -127t98.5 -51zM664 -10q-70 0 -115.5 56t-45.5 137q0 82 42 134.5t114 52.5q66 0 111 -56.5t45 -134.5q0 -84 -42 -136.5t-109 -52.5zM1053 -10q-70 0 -116 56t-46 137q0 82 42 134.5t115 52.5q66 0 110.5 -56.5t44.5 -134.5
q0 -83 -41.5 -136t-108.5 -53zM667 11q53 0 86 45.5t33 114.5q0 76 -37 127t-95 51q-55 0 -89 -45.5t-34 -114.5q0 -76 37.5 -127t98.5 -51zM1055 11q54 0 87 45.5t33 114.5q0 76 -37 127t-96 51q-55 0 -89 -45.5t-34 -114.5q0 -76 37.5 -127t98.5 -51z" />
    <glyph glyph-name="guilsinglleft" unicode="&#x2039;" horiz-adv-x="286" 
d="M230 467q-22 -47 -57 -84.5t-99 -91.5q4 -4 18 -17.5t18.5 -18t17 -16.5t17.5 -17t15 -15.5t15 -16.5t13 -15.5t13 -16.5t10.5 -15.5t10.5 -16.5q2 -3 -3 -7.5t-11.5 -5t-14.5 6.5q-4 5 -23 28.5t-24.5 30t-21.5 25t-25.5 28t-24 22.5t-28.5 23q-6 4 -5.5 15t5.5 15
q100 66 162 169q3 5 9.5 5t11 -4t1.5 -10z" />
    <glyph glyph-name="guilsinglright" unicode="&#x203a;" horiz-adv-x="277" 
d="M229 307q5 -4 5.5 -15t-5.5 -15q-27 -20 -54.5 -50t-39 -46t-43.5 -61q-7 -8 -13.5 -7t-11.5 5.5t-3 7.5q59 101 138 165q-95 68 -147 176q-3 6 1.5 10t11.5 4t9 -5q53 -104 152 -169z" />
    <glyph glyph-name="fraction" unicode="&#x2044;" horiz-adv-x="397" 
d="M-14 0q-11 0 -5 11l413 694q3 5 11 5h8q11 0 5 -11l-411 -694q-4 -5 -11 -5h-10z" />
    <glyph glyph-name="Euro" unicode="&#x20ac;" horiz-adv-x="694" 
d="M624 114q5 8 14 8t12.5 -6.5t-1.5 -17.5q-31 -48 -89 -78t-128 -30q-102 0 -184 88.5t-94 236.5h-115q-8 0 -8 7v12q0 7 8 7h113v20q0 18 2 48h-115q-8 0 -8 6v13q0 6 8 6h117q17 144 93 215t174 71q86 0 154 -43t68 -73q0 -19 -19 -19q-11 0 -25.5 17.5t-31 39t-58 39
t-99.5 17.5q-81 0 -147 -70.5t-80 -193.5h349q9 0 9 -6v-13q0 -6 -9 -6h-351q-1 -10 -1 -32q0 -24 1 -36h312q8 0 8 -7v-12q0 -7 -8 -7h-310q14 -142 87 -220.5t170 -78.5q56 0 105.5 27t76.5 71z" />
    <glyph glyph-name="trademark" unicode="&#x2122;" horiz-adv-x="730" 
d="M291 643q-3 0 -13 23t-20 23h-73v-272q0 -7 12 -11t12 -7v-5q0 -5 -8 -5h-60q-8 0 -8 5v5q0 3 12.5 7t12.5 11v272h-80q-10 0 -19.5 -23t-12.5 -23h-9q-5 0 -3 7l10 53q2 7 9 7h230q7 0 9 -7l11 -53q2 -7 -3 -7h-9zM659 419q2 -8 11.5 -11.5t9.5 -6.5v-7q0 -5 -8 -5h-50
q-8 0 -8 5v7q0 3 10 6.5t8 11.5l-46 247l-97 -265q-4 -12 -15 -12q-14 0 -17 11l-92 272l-43 -255q-1 -7 9 -11t10 -7v-5q0 -5 -8 -5h-45q-9 0 -9 5v5q0 3 11 7t12 11l45 265q2 9 -7 14t-9 8v1q0 5 7 5h30q8 0 12 -7l96 -285l101 285q3 7 10 7h26q8 0 8 -4v-5
q0 -2 -7.5 -8.5t-5.5 -15.5z" />
    <glyph glyph-name="minus" unicode="&#x2212;" 
d="M122 244q-8 0 -8 5v13q0 5 8 5h356q8 0 8 -5v-13q0 -5 -8 -5h-356z" />
    <glyph glyph-name="approxequal" unicode="&#x2248;" 
d="M192 483q40 0 108 -37t106 -37q26 0 49.5 14t35.5 45q3 11 12 11h6q10 0 7 -12q-9 -38 -40.5 -60t-70.5 -22q-51 0 -116.5 36.5t-96.5 36.5q-27 0 -48 -16t-30 -45q-4 -13 -11 -13h-7q-10 0 -7 13q10 38 36.5 62t66.5 24zM192 309q40 0 108 -37t106 -37q27 0 52 14t33 45
q3 11 12 11h6q10 0 7 -12q-9 -38 -40.5 -60t-70.5 -22q-51 0 -116.5 37t-96.5 37q-59 0 -78 -62q-5 -13 -12 -13h-6q-10 0 -7 13q9 38 35.5 62t67.5 24z" />
    <glyph glyph-name="notequal" unicode="&#x2260;" 
d="M479 333h-114l-76 -148h190q8 0 8 -5v-13q0 -5 -8 -5h-202l-70 -135q-4 -8 -11 -6l-7 4q-7 3 -3 11l66 126h-129q-8 0 -8 5v13q0 5 8 5h141l77 148h-218q-8 0 -8 5v13q0 5 8 5h230l67 128q6 9 11 6l6 -3q6 -4 2 -12l-62 -119h102q8 0 8 -5v-13q0 -5 -8 -5z" />
    <glyph glyph-name="uniF8FF" unicode="&#xf8ff;" horiz-adv-x="1451" 
d="M691 583q0 26 17.5 44t43.5 18t44 -18t18 -44t-18 -43.5t-44 -17.5t-43.5 18t-17.5 43zM219 270h-119q0 78 2 156.5t4 117.5l3 40h100q9 -139 10 -314zM694 270q0 92 3 147h-61l3 -65q4 -4 15 -4q6 0 10.5 1t5.5 3l2 1v-74q-10 -15 -66 -15q-84 0 -84 66q0 15 2 50t2 37
h-22v79l119 30l1 -17h178q10 -64 10 -239h-118zM328 265q-92 0 -92 113q0 136 137 136q119 0 121 -117v-127h-83l-8 61q-6 -33 -23.5 -49.5t-51.5 -16.5zM1090 270h-114q0 26 1 56t1 40q0 26 -15 26q-18 0 -18 -26q0 -10 1.5 -40t1.5 -56h-114q0 78 2.5 137.5t5.5 80.5l2 21
h80q6 -45 6 -76q0 9 4.5 25t24.5 36t52 20q41 0 57.5 -24.5t18.5 -81.5zM1351 384q0 -55 -31 -87t-93 -32q-60 0 -90.5 33t-30.5 86q0 130 122 130q70 0 96.5 -34.5t26.5 -95.5zM390 375q0 26 -23 26t-23 -26q0 -30 23 -30t23 30zM1251 375q0 26 -23 26q-21 0 -21 -26
q0 -30 21 -30q23 0 23 30zM428 238h104q10 -60 10 -147q0 -73 -35 -107t-114 -34q-32 0 -54.5 4t-29.5 8l-7 5v83q20 -16 69 -16q24 0 37.5 7t15.5 14l2 7q-13 -11 -49 -11q-90 0 -90 83v13h-55l3 -65q4 -4 15 -4q6 0 10.5 1t5.5 3l2 1v-73q-10 -15 -67 -15q-82 0 -82 64
q0 46 3 88h-18v80l117 29l-1 -17l177 -1v-119q0 -27 14 -27q17 0 17 27v119zM733 243q37 0 58.5 -29t21.5 -83q0 -136 -137 -136q1 -13 1 -39h-119q0 76 2.5 146.5t5.5 103.5l2 32h78q7 -52 7 -76q2 11 6.5 25.5t24 35t49.5 20.5zM1070 129l-3 -37h-124q9 -18 49 -18
q16 0 30 3t20 6l6 3v-75q-20 -16 -78 -16q-69 0 -105 31t-36 86q0 64 32.5 97.5t93.5 33.5q54 0 84.5 -30t30.5 -84zM978 109q3 27 -17 27q-23 0 -23 -27h40zM670 72q4 0 10 1.5t16.5 11t10.5 25.5q0 22 -20 22q-22 0 -22 -32zM1075 13q0 -10 6.5 -16.5t16.5 -6.5
q9 0 15.5 6.5t6.5 16.5t-6.5 16t-15.5 6q-10 0 -16.5 -6t-6.5 -16zM1080 13q0 7 5 12.5t13 5.5q7 0 12 -5.5t5 -12.5t-5 -12.5t-12 -5.5q-8 0 -13 5.5t-5 12.5zM1108 2l-6 9q7 0 7 7t-10 7h-11v-23h5v9h5l4 -9h6zM1099 15h-6v6h5q6 0 6 -2q0 -4 -5 -4z" />
    <glyph glyph-name="uni00A40301" horiz-adv-x="480" 
d="M275 789q-11 -2 -14 6q-1 7 7 11l202 77q15 6 19 -7l3 -10q3 -10 -11 -14zM354 667q0 16 -17 23.5t-17 10.5v2q0 7 18 7h63q17 0 17 -7v-2q0 -3 -17 -10.5t-17 -23.5l-2 -454q-1 -119 -53 -171t-134 -52q-84 0 -133.5 50t-49.5 97q0 18 17 18q10 0 16.5 -10.5t10 -26.5
t13 -34.5t23 -34.5t43 -26.5t70.5 -10.5q63 0 106 52t43 153v450z" />
    <glyph glyph-name="A.ss01" horiz-adv-x="644" 
d="M598 43q7 -15 24.5 -22.5t17.5 -11.5v-2q0 -7 -17 -7h-65q-17 0 -17 7v2q0 3 17 10.5t11 23.5l-67 157h-364l-61 -157q-6 -16 11 -23.5t17 -10.5v-2q0 -7 -18 -7h-60q-17 0 -17 7v2q0 4 17 11.5t23 22.5l245 623q5 14 -11.5 23.5t-16.5 12.5v2q0 6 8 6h18q23 0 32 -23z
M146 222h347l-181 426z" />
    <glyph glyph-name="Aacute.ss01" horiz-adv-x="644" 
d="M231 789q-12 -2 -14 6q-1 6 6 11l202 77q14 6 20 -7l3 -10q3 -10 -11 -14zM598 43q7 -15 24.5 -22.5t17.5 -11.5v-2q0 -7 -17 -7h-65q-17 0 -17 7v2q0 3 17 10.5t11 23.5l-67 157h-364l-61 -157q-6 -16 11 -23.5t17 -10.5v-2q0 -7 -18 -7h-60q-17 0 -17 7v2q0 4 17 11.5
t23 22.5l245 623q5 14 -11.5 23.5t-16.5 12.5v2q0 6 8 6h18q23 0 32 -23zM146 222h347l-181 426z" />
    <glyph glyph-name="Abreve.ss01" horiz-adv-x="644" 
d="M324 793q-54 0 -93 31.5t-47 76.5q-2 13 8 16q10 2 11 -7q11 -41 44 -67t77 -26t77.5 26t44.5 67q2 10 12 7t8 -16q-7 -45 -47 -76.5t-95 -31.5zM598 43q7 -15 24.5 -22.5t17.5 -11.5v-2q0 -7 -17 -7h-65q-17 0 -17 7v2q0 3 17 10.5t11 23.5l-67 157h-364l-61 -157
q-6 -16 11 -23.5t17 -10.5v-2q0 -7 -18 -7h-60q-17 0 -17 7v2q0 4 17 11.5t23 22.5l245 623q5 14 -11.5 23.5t-16.5 12.5v2q0 6 8 6h18q23 0 32 -23zM146 222h347l-181 426z" />
    <glyph glyph-name="Acircumflex.ss01" horiz-adv-x="644" 
d="M204 768q-6 -4 -11.5 -2.5t-6 6.5t4.5 10l110 91q13 10 19 10h8q6 0 19 -10l110 -91q6 -5 5.5 -10.5t-5 -7t-12.5 3.5l-121 88zM598 43q7 -15 24.5 -22.5t17.5 -11.5v-2q0 -7 -17 -7h-65q-17 0 -17 7v2q0 3 17 10.5t11 23.5l-67 157h-364l-61 -157q-6 -16 11 -23.5
t17 -10.5v-2q0 -7 -18 -7h-60q-17 0 -17 7v2q0 4 17 11.5t23 22.5l245 623q5 14 -11.5 23.5t-16.5 12.5v2q0 6 8 6h18q23 0 32 -23zM146 222h347l-181 426z" />
    <glyph glyph-name="Adieresis.ss01" horiz-adv-x="644" 
d="M249 807q-15 0 -24.5 9.5t-9.5 26.5t9.5 27t24.5 10q32 0 32 -37q0 -36 -32 -36zM400 807q-33 0 -33 36q0 17 9 27t24 10t24 -10t9 -27t-9 -26.5t-24 -9.5zM598 43q7 -15 24.5 -22.5t17.5 -11.5v-2q0 -7 -17 -7h-65q-17 0 -17 7v2q0 3 17 10.5t11 23.5l-67 157h-364
l-61 -157q-6 -16 11 -23.5t17 -10.5v-2q0 -7 -18 -7h-60q-17 0 -17 7v2q0 4 17 11.5t23 22.5l245 623q5 14 -11.5 23.5t-16.5 12.5v2q0 6 8 6h18q23 0 32 -23zM146 222h347l-181 426z" />
    <glyph glyph-name="Agrave.ss01" horiz-adv-x="644" 
d="M192 867q-14 5 -11 15l4 9q6 13 20 7l198 -87q7 -5 6 -11q-3 -9 -15 -5zM598 43q7 -15 24.5 -22.5t17.5 -11.5v-2q0 -7 -17 -7h-65q-17 0 -17 7v2q0 3 17 10.5t11 23.5l-67 157h-364l-61 -157q-6 -16 11 -23.5t17 -10.5v-2q0 -7 -18 -7h-60q-17 0 -17 7v2q0 4 17 11.5
t23 22.5l245 623q5 14 -11.5 23.5t-16.5 12.5v2q0 6 8 6h18q23 0 32 -23zM146 222h347l-181 426z" />
    <glyph glyph-name="Amacron.ss01" horiz-adv-x="644" 
d="M199 826q-13 0 -13 9v6q0 9 13 9h250q12 0 12 -9v-6q0 -9 -12 -9h-250zM598 43q7 -15 24.5 -22.5t17.5 -11.5v-2q0 -7 -17 -7h-65q-17 0 -17 7v2q0 3 17 10.5t11 23.5l-67 157h-364l-61 -157q-6 -16 11 -23.5t17 -10.5v-2q0 -7 -18 -7h-60q-17 0 -17 7v2q0 4 17 11.5
t23 22.5l245 623q5 14 -11.5 23.5t-16.5 12.5v2q0 6 8 6h18q23 0 32 -23zM146 222h347l-181 426z" />
    <glyph glyph-name="Aogonek.ss01" horiz-adv-x="644" 
d="M598 43q7 -15 24.5 -22.5t17.5 -11.5v-2q0 -7 -17 -7h-18q-33 -27 -56.5 -61.5t-23.5 -65.5q0 -23 13 -37t34 -14q12 0 33 7q6 3 9.5 -1t3 -9.5t-3.5 -7.5q-18 -11 -43 -11q-31 0 -52 19.5t-21 49.5q0 34 24.5 70.5t57.5 60.5h-22q-17 0 -17 7v2q0 3 17 10.5t11 23.5
l-67 157h-364l-61 -157q-6 -16 11 -23.5t17 -10.5v-2q0 -7 -18 -7h-60q-17 0 -17 7v2q0 4 17 11.5t23 22.5l245 623q5 14 -11.5 23.5t-16.5 12.5v2q0 6 8 6h18q23 0 32 -23zM146 222h347l-181 426z" />
    <glyph glyph-name="Aring.ss01" horiz-adv-x="644" 
d="M319 771q-42 0 -68.5 27t-26.5 65q0 39 27 66t69 27t69 -27t27 -65q0 -39 -27.5 -66t-69.5 -27zM320 935q-31 0 -50 -21t-19 -50q0 -30 19 -51t50 -21t50 21t19 51q0 29 -19.5 50t-49.5 21zM598 43q7 -15 24.5 -22.5t17.5 -11.5v-2q0 -7 -17 -7h-65q-17 0 -17 7v2
q0 3 17 10.5t11 23.5l-67 157h-364l-61 -157q-6 -16 11 -23.5t17 -10.5v-2q0 -7 -18 -7h-60q-17 0 -17 7v2q0 4 17 11.5t23 22.5l245 623q5 14 -11.5 23.5t-16.5 12.5v2q0 6 8 6h18q23 0 32 -23zM146 222h347l-181 426z" />
    <glyph glyph-name="Atilde.ss01" horiz-adv-x="644" 
d="M173 790q-4 0 -6.5 4t-1.5 10q18 75 83 75q31 0 80 -32t67 -32q41 0 60 49q3 11 11 11h4q10 0 7 -13q-20 -71 -83 -71q-30 0 -77 32t-70 32q-43 0 -60 -52q-3 -13 -9 -13h-5zM598 43q7 -15 24.5 -22.5t17.5 -11.5v-2q0 -7 -17 -7h-65q-17 0 -17 7v2q0 3 17 10.5t11 23.5
l-67 157h-364l-61 -157q-6 -16 11 -23.5t17 -10.5v-2q0 -7 -18 -7h-60q-17 0 -17 7v2q0 4 17 11.5t23 22.5l245 623q5 14 -11.5 23.5t-16.5 12.5v2q0 6 8 6h18q23 0 32 -23zM146 222h347l-181 426z" />
    <glyph glyph-name="G.ss01" horiz-adv-x="730" 
d="M380 -10q-127 0 -231 107.5t-104 253.5q0 160 95.5 264.5t237.5 104.5q59 0 111.5 -21t84 -51.5t50 -60.5t18.5 -51q0 -19 -18 -19q-10 0 -19.5 18.5t-23.5 45.5t-37 53.5t-69 45t-110 18.5q-118 0 -204 -97.5t-86 -239.5q0 -144 97 -245.5t221 -101.5q141 0 222 71v191
q0 21 -37.5 26.5t-37.5 7.5v4q0 10 17 10h135q18 0 18 -10v-4q0 -2 -33 -7.5t-33 -26.5v-181q0 -17 -15 -30q-89 -75 -249 -75z" />
    <glyph glyph-name="Gbreve.ss01" horiz-adv-x="731" 
d="M384 793q-54 0 -93.5 31.5t-47.5 76.5q-2 14 9 16q9 1 11 -7q10 -41 43 -67t78 -26q43 0 76.5 26t44.5 67q2 6 7.5 7t9.5 -3.5t3 -12.5q-7 -45 -46.5 -76.5t-94.5 -31.5zM381 -10q-127 0 -231 107.5t-104 253.5q0 160 95.5 264.5t237.5 104.5q59 0 111.5 -21t84 -51.5
t50 -60.5t18.5 -51q0 -19 -18 -19q-10 0 -19.5 18.5t-23.5 45.5t-37 53.5t-69 45t-110 18.5q-118 0 -204 -97.5t-86 -239.5q0 -144 97 -245.5t221 -101.5q141 0 222 71v191q0 21 -37.5 26.5t-37.5 7.5v4q0 10 17 10h135q18 0 18 -10v-4q0 -2 -33 -7.5t-33 -26.5v-181
q0 -17 -15 -30q-89 -75 -249 -75z" />
    <glyph glyph-name="uni0122.ss01" horiz-adv-x="731" 
d="M381 -10q-127 0 -231 107.5t-104 253.5q0 160 95.5 264.5t237.5 104.5q59 0 111.5 -21t84 -51.5t50 -60.5t18.5 -51q0 -19 -18 -19q-10 0 -19.5 18.5t-23.5 45.5t-37 53.5t-69 45t-110 18.5q-118 0 -204 -97.5t-86 -239.5q0 -144 97 -245.5t221 -101.5q141 0 222 71v191
q0 21 -37.5 26.5t-37.5 7.5v4q0 10 17 10h135q18 0 18 -10v-4q0 -2 -33 -7.5t-33 -26.5v-181q0 -17 -15 -30q-89 -75 -249 -75zM367 -273q-7 -7 -13 2q-3 5 3 10q18 16 29.5 33t15 27t10.5 32q3 9 -6 9q-16 0 -25.5 10t-9.5 27q0 16 9.5 26.5t24.5 10.5t25 -11.5t10 -30.5
q0 -86 -73 -145z" />
    <glyph glyph-name="Gdotaccent.ss01" horiz-adv-x="731" 
d="M385 793q-36 0 -36 37q0 38 36 38q33 0 33 -38q0 -37 -33 -37zM381 -10q-127 0 -231 107.5t-104 253.5q0 160 95.5 264.5t237.5 104.5q59 0 111.5 -21t84 -51.5t50 -60.5t18.5 -51q0 -19 -18 -19q-10 0 -19.5 18.5t-23.5 45.5t-37 53.5t-69 45t-110 18.5
q-118 0 -204 -97.5t-86 -239.5q0 -144 97 -245.5t221 -101.5q141 0 222 71v191q0 21 -37.5 26.5t-37.5 7.5v4q0 10 17 10h135q18 0 18 -10v-4q0 -2 -33 -7.5t-33 -26.5v-181q0 -17 -15 -30q-89 -75 -249 -75z" />
    <glyph glyph-name="K.ss01" horiz-adv-x="651" 
d="M615 45q11 -16 22.5 -22.5t17.5 -8t6 -5.5v-2q0 -7 -13 -7h-73q-15 0 -15 7v2q0 2 17 11t6 24l-264 380l-183 -179v-200q0 -16 17.5 -24.5t17.5 -11.5v-2q0 -7 -18 -7h-63q-17 0 -17 7v2q0 3 16.5 11.5t16.5 24.5v622q0 16 -16.5 23.5t-16.5 10.5v2q0 7 17 7h63
q17 0 17 -7v-2q0 -3 -17 -10.5t-17 -23.5v-390l396 385q12 14 9 19.5t-13 11t-10 8.5v2q0 7 18 7h65q18 0 18 -7v-2q0 -4 -8 -8.5t-23 -12.5t-26 -18l-225 -220z" />
    <glyph glyph-name="uni0136.ss01" horiz-adv-x="651" 
d="M615 45q11 -16 22.5 -22.5t17.5 -8t6 -5.5v-2q0 -7 -13 -7h-73q-15 0 -15 7v2q0 2 17 11t6 24l-264 380l-183 -179v-200q0 -16 17.5 -24.5t17.5 -11.5v-2q0 -7 -18 -7h-63q-17 0 -17 7v2q0 3 16.5 11.5t16.5 24.5v622q0 16 -16.5 23.5t-16.5 10.5v2q0 7 17 7h63
q17 0 17 -7v-2q0 -3 -17 -10.5t-17 -23.5v-390l396 385q12 14 9 19.5t-13 11t-10 8.5v2q0 7 18 7h65q18 0 18 -7v-2q0 -4 -8 -8.5t-23 -12.5t-26 -18l-225 -220zM374 -86q15 0 25 -11.5t10 -30.5q0 -86 -73 -145q-8 -7 -13 2q-3 5 3 10q18 16 29.5 33t15 27t10.5 32
q3 9 -6 9q-16 0 -26 10.5t-10 26.5q0 17 9.5 27t25.5 10z" />
    <glyph glyph-name="M.ss01" horiz-adv-x="890" 
d="M826 48q3 -19 21.5 -27.5t18.5 -11.5v-2q0 -7 -18 -7h-67q-17 0 -17 7v2q0 4 9.5 7t17.5 10.5t5 21.5l-107 599l-234 -630q-6 -17 -18 -17q-11 0 -18 16l-222 640l-107 -608q-4 -19 17.5 -27.5t21.5 -11.5v-2q0 -7 -18 -7h-67q-18 0 -18 7v2q0 3 18 12t21 27l111 615
q3 15 -12.5 23t-15.5 14v2q0 8 11 8h23q22 0 29 -19l228 -654l242 656q6 17 25 17h27q10 0 10 -6v-2q0 -5 -5.5 -9t-12 -7.5t-10.5 -12.5t-2 -22z" />
    <glyph glyph-name="N.ss01" horiz-adv-x="743" 
d="M658 710q17 0 17 -8v-2q0 -3 -18.5 -10t-18.5 -24v-652q0 -14 -11 -14h-4q-8 0 -22 21l-469 643v-616q0 -18 19.5 -27t19.5 -12v-2q0 -7 -18 -7h-66q-17 0 -17 7v2q0 3 18 12t18 27v617q0 16 -18 22t-18 10v4q0 9 17 9h30q15 0 24 -13l471 -646v615q0 17 -19 24t-19 10v2
q0 8 18 8h66z" />
    <glyph glyph-name="Nacute.ss01" horiz-adv-x="743" 
d="M292 789q-12 -2 -14 6q-2 6 6 11l202 77q14 6 20 -7l3 -10q3 -10 -12 -14zM658 710q17 0 17 -8v-2q0 -3 -18.5 -10t-18.5 -24v-652q0 -14 -11 -14h-4q-8 0 -22 21l-469 643v-616q0 -18 19.5 -27t19.5 -12v-2q0 -7 -18 -7h-66q-17 0 -17 7v2q0 3 18 12t18 27v617
q0 16 -18 22t-18 10v4q0 9 17 9h30q15 0 24 -13l471 -646v615q0 17 -19 24t-19 10v2q0 8 18 8h66z" />
    <glyph glyph-name="Ncaron.ss01" horiz-adv-x="743" 
d="M348 757l-119 107q-9 9 1 14q8 5 16 -2l124 -104l125 104q13 11 20 1q4 -6 -3 -13l-119 -107q-11 -9 -19 -9h-7q-9 0 -19 9zM658 710q17 0 17 -8v-2q0 -3 -18.5 -10t-18.5 -24v-652q0 -14 -11 -14h-4q-8 0 -22 21l-469 643v-616q0 -18 19.5 -27t19.5 -12v-2q0 -7 -18 -7
h-66q-17 0 -17 7v2q0 3 18 12t18 27v617q0 16 -18 22t-18 10v4q0 9 17 9h30q15 0 24 -13l471 -646v615q0 17 -19 24t-19 10v2q0 8 18 8h66z" />
    <glyph glyph-name="uni0145.ss01" horiz-adv-x="743" 
d="M658 710q17 0 17 -8v-2q0 -3 -18.5 -10t-18.5 -24v-652q0 -14 -11 -14h-4q-8 0 -22 21l-469 643v-616q0 -18 19.5 -27t19.5 -12v-2q0 -7 -18 -7h-66q-17 0 -17 7v2q0 3 18 12t18 27v617q0 16 -18 22t-18 10v4q0 9 17 9h30q15 0 24 -13l471 -646v615q0 17 -19 24t-19 10v2
q0 8 18 8h66zM396 -86q15 0 25 -11.5t10 -30.5q0 -86 -73 -145q-8 -7 -13 2q-3 5 3 10q18 16 29.5 33t15 27t10.5 32q3 9 -6 9q-16 0 -26 10.5t-10 26.5q0 17 9.5 27t25.5 10z" />
    <glyph glyph-name="Ntilde.ss01" horiz-adv-x="743" 
d="M238 790q-10 0 -7 14q18 75 83 75q31 0 80 -32t67 -32q40 0 59 49q4 11 12 11h4q10 0 6 -13q-18 -71 -83 -71q-30 0 -76.5 32t-69.5 32q-43 0 -60 -52q-4 -13 -9 -13h-6zM658 710q17 0 17 -8v-2q0 -3 -18.5 -10t-18.5 -24v-652q0 -14 -11 -14h-4q-8 0 -22 21l-469 643
v-616q0 -18 19.5 -27t19.5 -12v-2q0 -7 -18 -7h-66q-17 0 -17 7v2q0 3 18 12t18 27v617q0 16 -18 22t-18 10v4q0 9 17 9h30q15 0 24 -13l471 -646v615q0 17 -19 24t-19 10v2q0 8 18 8h66z" />
    <glyph glyph-name="Q.ss01" horiz-adv-x="780" 
d="M734 -65q6 5 13 -1t-4 -15q-44 -43 -141 -43q-44 0 -90.5 20t-79 44t-74.5 44t-79 20q-71 0 -131 -38q-15 -10 -21 2q-5 11 5 17q58 33 118 40q-93 46 -149 138t-56 197q0 152 98 256t248 104q146 0 245 -107t99 -261q0 -142 -97 -252t-237 -110h-5q15 -9 47 -29
t51.5 -30.5t50 -20.5t59.5 -10q92 0 130 35zM75 364q0 -89 41.5 -169.5t118 -131.5t168.5 -51q85 0 155.5 49t108.5 125.5t38 159.5q0 148 -91.5 250t-231.5 102q-132 0 -219.5 -97t-87.5 -237z" />
    <glyph glyph-name="R.ss01" horiz-adv-x="612" 
d="M543 43q9 -11 22.5 -17.5t22 -9.5t8.5 -7v-2q0 -7 -18 -7h-68q-17 0 -17 7v2q0 4 9 8t12.5 8t-5.5 18l-194 241q-27 -3 -57 -3h-122v-238q0 -16 17.5 -23.5t17.5 -10.5v-2q0 -7 -18 -7h-63q-17 0 -17 7v2q0 3 16.5 10.5t16.5 23.5v624q0 16 -16.5 23.5t-16.5 10.5v2
q0 7 17 7h162q132 0 216.5 -54t85.5 -161q1 -81 -55 -135.5t-155 -71.5zM164 303h95q120 0 192.5 50.5t72.5 131.5q0 104 -76 153.5t-195 49.5h-99q-18 0 -18 -22v-336q0 -27 28 -27z" />
    <glyph glyph-name="Racute.ss01" horiz-adv-x="612" 
d="M229 789q-11 -2 -14 6q-1 7 7 11l202 77q15 6 19 -7l3 -10q3 -10 -11 -14zM543 43q9 -11 22.5 -17.5t22 -9.5t8.5 -7v-2q0 -7 -18 -7h-68q-17 0 -17 7v2q0 4 9 8t12.5 8t-5.5 18l-194 241q-27 -3 -57 -3h-122v-238q0 -16 17.5 -23.5t17.5 -10.5v-2q0 -7 -18 -7h-63
q-17 0 -17 7v2q0 3 16.5 10.5t16.5 23.5v624q0 16 -16.5 23.5t-16.5 10.5v2q0 7 17 7h162q132 0 216.5 -54t85.5 -161q1 -81 -55 -135.5t-155 -71.5zM164 303h95q120 0 192.5 50.5t72.5 131.5q0 104 -76 153.5t-195 49.5h-99q-18 0 -18 -22v-336q0 -27 28 -27z" />
    <glyph glyph-name="Rcaron.ss01" horiz-adv-x="612" 
d="M300 757l-119 107q-9 9 1 14q8 5 16 -2l124 -104l125 104q13 11 20 1q4 -6 -3 -13l-119 -107q-11 -9 -19 -9h-7q-9 0 -19 9zM543 43q9 -11 22.5 -17.5t22 -9.5t8.5 -7v-2q0 -7 -18 -7h-68q-17 0 -17 7v2q0 4 9 8t12.5 8t-5.5 18l-194 241q-27 -3 -57 -3h-122v-238
q0 -16 17.5 -23.5t17.5 -10.5v-2q0 -7 -18 -7h-63q-17 0 -17 7v2q0 3 16.5 10.5t16.5 23.5v624q0 16 -16.5 23.5t-16.5 10.5v2q0 7 17 7h162q132 0 216.5 -54t85.5 -161q1 -81 -55 -135.5t-155 -71.5zM164 303h95q120 0 192.5 50.5t72.5 131.5q0 104 -76 153.5t-195 49.5
h-99q-18 0 -18 -22v-336q0 -27 28 -27z" />
    <glyph glyph-name="uni0156.ss01" horiz-adv-x="612" 
d="M543 43q9 -11 22.5 -17.5t22 -9.5t8.5 -7v-2q0 -7 -18 -7h-68q-17 0 -17 7v2q0 4 9 8t12.5 8t-5.5 18l-194 241q-27 -3 -57 -3h-122v-238q0 -16 17.5 -23.5t17.5 -10.5v-2q0 -7 -18 -7h-63q-17 0 -17 7v2q0 3 16.5 10.5t16.5 23.5v624q0 16 -16.5 23.5t-16.5 10.5v2
q0 7 17 7h162q132 0 216.5 -54t85.5 -161q1 -81 -55 -135.5t-155 -71.5zM164 303h95q120 0 192.5 50.5t72.5 131.5q0 104 -76 153.5t-195 49.5h-99q-18 0 -18 -22v-336q0 -27 28 -27zM313 -85q15 0 25 -11.5t10 -30.5q0 -86 -73 -146q-6 -5 -11.5 1t1.5 12q18 16 29.5 33.5
t15 26.5t10.5 31q3 10 -6 10q-16 0 -26 10.5t-10 26.5t9.5 26.5t25.5 10.5z" />
    <glyph glyph-name="U.ss01" horiz-adv-x="718" 
d="M363 -10q-119 0 -193.5 82.5t-74.5 208.5v385q0 16 -17 23.5t-17 10.5v3q0 7 18 7h63q17 0 17 -7v-3q0 -3 -17 -10.5t-17 -23.5v-385q0 -117 67 -193t171 -76q101 0 167.5 76t66.5 193v385q0 16 -18 23.5t-18 10.5v3q0 7 18 7h63q18 0 18 -7v-3q0 -3 -18.5 -10.5
t-18.5 -23.5v-386q0 -125 -73.5 -207.5t-186.5 -82.5z" />
    <glyph glyph-name="Uacute.ss01" horiz-adv-x="718" 
d="M265 789q-11 -2 -14 6q-1 7 7 11l202 77q15 6 19 -7l3 -10q3 -10 -11 -14zM363 -10q-119 0 -193.5 82.5t-74.5 208.5v385q0 16 -17 23.5t-17 10.5v3q0 7 18 7h63q17 0 17 -7v-3q0 -3 -17 -10.5t-17 -23.5v-385q0 -117 67 -193t171 -76q101 0 167.5 76t66.5 193v385
q0 16 -18 23.5t-18 10.5v3q0 7 18 7h63q18 0 18 -7v-3q0 -3 -18.5 -10.5t-18.5 -23.5v-386q0 -125 -73.5 -207.5t-186.5 -82.5z" />
    <glyph glyph-name="Ucircumflex.ss01" horiz-adv-x="718" 
d="M239 768q-6 -4 -11.5 -2.5t-6 6.5t4.5 10l110 91q12 10 19 10h7q7 0 19 -10l111 -91q9 -8 4 -15t-16 1l-121 88zM642 710q18 0 18 -7v-3q0 -3 -18.5 -10.5t-18.5 -23.5v-386q0 -125 -73.5 -207.5t-186.5 -82.5q-119 0 -193.5 82.5t-74.5 208.5v385q0 16 -17 23.5
t-17 10.5v3q0 7 18 7h63q17 0 17 -7v-3q0 -3 -17 -10.5t-17 -23.5v-385q0 -117 67 -193t171 -76q101 0 167.5 76t66.5 193v385q0 16 -18 23.5t-18 10.5v3q0 7 18 7h63z" />
    <glyph glyph-name="Udieresis.ss01" horiz-adv-x="718" 
d="M284 807q-35 0 -35 36q0 17 9.5 27t25.5 10q32 0 32 -37q0 -36 -32 -36zM435 807q-34 0 -34 36q0 37 34 37q15 0 24 -10t9 -27t-9 -26.5t-24 -9.5zM363 -10q-119 0 -193.5 82.5t-74.5 208.5v385q0 16 -17 23.5t-17 10.5v3q0 7 18 7h63q17 0 17 -7v-3q0 -3 -17 -10.5
t-17 -23.5v-385q0 -117 67 -193t171 -76q101 0 167.5 76t66.5 193v385q0 16 -18 23.5t-18 10.5v3q0 7 18 7h63q18 0 18 -7v-3q0 -3 -18.5 -10.5t-18.5 -23.5v-386q0 -125 -73.5 -207.5t-186.5 -82.5z" />
    <glyph glyph-name="Ugrave.ss01" horiz-adv-x="718" 
d="M431 795l-203 72q-14 5 -11 15l4 9q6 13 20 7l198 -87q7 -5 6 -11q-3 -9 -14 -5zM363 -10q-119 0 -193.5 82.5t-74.5 208.5v385q0 16 -17 23.5t-17 10.5v3q0 7 18 7h63q17 0 17 -7v-3q0 -3 -17 -10.5t-17 -23.5v-385q0 -117 67 -193t171 -76q101 0 167.5 76t66.5 193v385
q0 16 -18 23.5t-18 10.5v3q0 7 18 7h63q18 0 18 -7v-3q0 -3 -18.5 -10.5t-18.5 -23.5v-386q0 -125 -73.5 -207.5t-186.5 -82.5z" />
    <glyph glyph-name="Uhungarumlaut.ss01" horiz-adv-x="718" 
d="M251 768q-8 5 2 16l119 148q9 11 16 4l9 -8q10 -8 -1 -19l-126 -136q-11 -13 -19 -5zM411 767q-8 5 2 16l120 148q8 11 15 4l9 -8q10 -8 -1 -19l-126 -136q-10 -12 -19 -5zM363 -10q-119 0 -193.5 82.5t-74.5 208.5v385q0 16 -17 23.5t-17 10.5v3q0 7 18 7h63q17 0 17 -7
v-3q0 -3 -17 -10.5t-17 -23.5v-385q0 -117 67 -193t171 -76q101 0 167.5 76t66.5 193v385q0 16 -18 23.5t-18 10.5v3q0 7 18 7h63q18 0 18 -7v-3q0 -3 -18.5 -10.5t-18.5 -23.5v-386q0 -125 -73.5 -207.5t-186.5 -82.5z" />
    <glyph glyph-name="Umacron.ss01" horiz-adv-x="718" 
d="M233 826q-12 0 -12 9v6q0 9 12 9h251q12 0 12 -9v-6q0 -9 -12 -9h-251zM363 -10q-119 0 -193.5 82.5t-74.5 208.5v385q0 16 -17 23.5t-17 10.5v3q0 7 18 7h63q17 0 17 -7v-3q0 -3 -17 -10.5t-17 -23.5v-385q0 -117 67 -193t171 -76q101 0 167.5 76t66.5 193v385
q0 16 -18 23.5t-18 10.5v3q0 7 18 7h63q18 0 18 -7v-3q0 -3 -18.5 -10.5t-18.5 -23.5v-386q0 -125 -73.5 -207.5t-186.5 -82.5z" />
    <glyph glyph-name="Uogonek.ss01" horiz-adv-x="718" 
d="M642 710q18 0 18 -7v-3q0 -3 -18.5 -10.5t-18.5 -23.5v-386q0 -114 -61.5 -194t-160.5 -93q-74 -62 -74 -121q0 -23 13 -37.5t33 -14.5q15 0 34 8q6 3 9.5 -1.5t2.5 -10.5t-4 -7q-17 -11 -43 -11q-31 0 -52 19.5t-21 49.5q0 32 21 65.5t52 57.5h-9q-119 0 -193.5 82.5
t-74.5 208.5v385q0 16 -17 23.5t-17 10.5v3q0 7 18 7h63q17 0 17 -7v-3q0 -3 -17 -10.5t-17 -23.5v-385q0 -117 67 -193t171 -76q101 0 167.5 76t66.5 193v385q0 16 -18 23.5t-18 10.5v3q0 7 18 7h63z" />
    <glyph glyph-name="Uring.ss01" horiz-adv-x="718" 
d="M359 771q-42 0 -69 27t-27 65q0 39 27.5 66t69.5 27t69 -27t27 -65q0 -39 -27.5 -66t-69.5 -27zM360 792q31 0 50 21t19 51q0 29 -19.5 50t-49.5 21q-31 0 -50.5 -21t-19.5 -50q0 -30 19.5 -51t50.5 -21zM363 -10q-119 0 -193.5 82.5t-74.5 208.5v385q0 16 -17 23.5
t-17 10.5v3q0 7 18 7h63q17 0 17 -7v-3q0 -3 -17 -10.5t-17 -23.5v-385q0 -117 67 -193t171 -76q101 0 167.5 76t66.5 193v385q0 16 -18 23.5t-18 10.5v3q0 7 18 7h63q18 0 18 -7v-3q0 -3 -18.5 -10.5t-18.5 -23.5v-386q0 -125 -73.5 -207.5t-186.5 -82.5z" />
    <glyph glyph-name="Utilde.ss01" horiz-adv-x="718" 
d="M288 879q32 0 80.5 -32t67.5 -32q40 0 59 49q3 11 11 11h5q9 0 6 -13q-20 -71 -83 -71q-30 0 -77 32t-70 32q-43 0 -60 -52q-3 -13 -9 -13h-5q-10 0 -7 14q18 75 82 75zM363 -10q-119 0 -193.5 82.5t-74.5 208.5v385q0 16 -17 23.5t-17 10.5v3q0 7 18 7h63q17 0 17 -7v-3
q0 -3 -17 -10.5t-17 -23.5v-385q0 -117 67 -193t171 -76q101 0 167.5 76t66.5 193v385q0 16 -18 23.5t-18 10.5v3q0 7 18 7h63q18 0 18 -7v-3q0 -3 -18.5 -10.5t-18.5 -23.5v-386q0 -125 -73.5 -207.5t-186.5 -82.5z" />
    <glyph glyph-name="W.ss01" horiz-adv-x="954" 
d="M927 710q15 0 15 -6v-3q0 -4 -17 -11.5t-23 -23.5l-203 -656q-3 -10 -20 -10q-9 0 -13 11l-168 477l-181 -478q-4 -10 -20 -10q-9 0 -13 11l-241 653q-4 12 -12 19t-14.5 8.5t-11.5 4t-5 7.5v1q0 6 15 6h71q15 0 15 -7v-2q0 -5 -9.5 -7.5t-16 -9t-1.5 -20.5l230 -623
l182 481l-51 144q-7 20 -23.5 27t-16.5 10v1q0 6 12 6h77q13 0 13 -6v-1q0 -4 -10 -6.5t-18 -9.5t-3 -21l218 -625l192 625q4 13 -3.5 18.5t-17 8.5t-9.5 7v2q0 8 16 8h65z" />
    <glyph glyph-name="Wacute.ss01" horiz-adv-x="954" 
d="M409 789q-11 -2 -14 6q-1 7 7 11l202 77q15 6 19 -7l3 -10q3 -10 -11 -14zM927 710q15 0 15 -6v-3q0 -4 -17 -11.5t-23 -23.5l-203 -656q-3 -10 -20 -10q-9 0 -13 11l-168 477l-181 -478q-4 -10 -20 -10q-9 0 -13 11l-241 653q-4 12 -12 19t-14.5 8.5t-11.5 4t-5 7.5v1
q0 6 15 6h71q15 0 15 -7v-2q0 -5 -9.5 -7.5t-16 -9t-1.5 -20.5l230 -623l182 481l-51 144q-7 20 -23.5 27t-16.5 10v1q0 6 12 6h77q13 0 13 -6v-1q0 -4 -10 -6.5t-18 -9.5t-3 -21l218 -625l192 625q4 13 -3.5 18.5t-17 8.5t-9.5 7v2q0 8 16 8h65z" />
    <glyph glyph-name="Wcircumflex.ss01" horiz-adv-x="954" 
d="M383 768q-6 -4 -11.5 -2.5t-6 6.5t4.5 10l110 91q12 10 19 10h7q7 0 19 -10l111 -91q9 -8 4 -15t-16 1l-121 88zM927 710q15 0 15 -6v-3q0 -4 -17 -11.5t-23 -23.5l-203 -656q-3 -10 -20 -10q-9 0 -13 11l-168 477l-181 -478q-4 -10 -20 -10q-9 0 -13 11l-241 653
q-4 12 -12 19t-14.5 8.5t-11.5 4t-5 7.5v1q0 6 15 6h71q15 0 15 -7v-2q0 -5 -9.5 -7.5t-16 -9t-1.5 -20.5l230 -623l182 481l-51 144q-7 20 -23.5 27t-16.5 10v1q0 6 12 6h77q13 0 13 -6v-1q0 -4 -10 -6.5t-18 -9.5t-3 -21l218 -625l192 625q4 13 -3.5 18.5t-17 8.5t-9.5 7
v2q0 8 16 8h65z" />
    <glyph glyph-name="Wdieresis.ss01" horiz-adv-x="954" 
d="M428 807q-35 0 -35 36q0 17 9.5 27t25.5 10q32 0 32 -37q0 -36 -32 -36zM579 807q-34 0 -34 36q0 37 34 37q15 0 24 -10t9 -27t-9 -26.5t-24 -9.5zM927 710q15 0 15 -6v-3q0 -4 -17 -11.5t-23 -23.5l-203 -656q-3 -10 -20 -10q-9 0 -13 11l-168 477l-181 -478
q-4 -10 -20 -10q-9 0 -13 11l-241 653q-4 12 -12 19t-14.5 8.5t-11.5 4t-5 7.5v1q0 6 15 6h71q15 0 15 -7v-2q0 -5 -9.5 -7.5t-16 -9t-1.5 -20.5l230 -623l182 481l-51 144q-7 20 -23.5 27t-16.5 10v1q0 6 12 6h77q13 0 13 -6v-1q0 -4 -10 -6.5t-18 -9.5t-3 -21l218 -625
l192 625q4 13 -3.5 18.5t-17 8.5t-9.5 7v2q0 8 16 8h65z" />
    <glyph glyph-name="Wgrave.ss01" horiz-adv-x="954" 
d="M370 867q-13 5 -10 15l3 9q6 13 20 7l198 -87q9 -5 6 -11q-2 -9 -14 -5zM927 710q15 0 15 -6v-3q0 -4 -17 -11.5t-23 -23.5l-203 -656q-3 -10 -20 -10q-9 0 -13 11l-168 477l-181 -478q-4 -10 -20 -10q-9 0 -13 11l-241 653q-4 12 -12 19t-14.5 8.5t-11.5 4t-5 7.5v1
q0 6 15 6h71q15 0 15 -7v-2q0 -5 -9.5 -7.5t-16 -9t-1.5 -20.5l230 -623l182 481l-51 144q-7 20 -23.5 27t-16.5 10v1q0 6 12 6h77q13 0 13 -6v-1q0 -4 -10 -6.5t-18 -9.5t-3 -21l218 -625l192 625q4 13 -3.5 18.5t-17 8.5t-9.5 7v2q0 8 16 8h65z" />
    <glyph glyph-name="i.loclTRK" horiz-adv-x="198" 
d="M106 599q-36 0 -36 36q0 18 9.5 28.5t26.5 10.5q15 0 24 -10.5t9 -28.5q0 -36 -33 -36zM69 0q-17 0 -17 9v3q0 5 17 11.5t17 22.5v370q0 20 -16.5 32t-16.5 14v2q0 3 10 9l30 14q22 10 22 -10v-431q0 -16 18 -22.5t18 -11.5v-3q0 -9 -19 -9h-63z" />
    <glyph glyph-name="uni006A0301" horiz-adv-x="204" 
d="M25 564q-9 -5 -15 3q-4 7 4 12l180 120q13 9 21 -3l5 -8q5 -10 -8 -17zM48 -174q-34 0 -56.5 18.5t-22.5 44.5q0 17 17 17q9 0 14 -9t7.5 -20.5t12.5 -20.5t28 -9q23 0 37 17t14 45q0 15 -1 49t-1 51v407q0 20 -16.5 30.5t-16.5 14.5v2q0 5 9 10l32 14q22 11 22 -10v-467
q0 -65 -2 -101q-2 -37 -22.5 -60t-54.5 -23z" />
    <glyph glyph-name="a.ss01" horiz-adv-x="476" 
d="M413 61q2 -24 17 -33t29 -11t14 -10q0 -13 -32 -13q-28 0 -42 16t-14 66q-37 -86 -157 -86q-83 0 -133 41t-51 109t50.5 107t135.5 39q95 0 139 -55l-4 43q-17 195 -158 195q-36 0 -61.5 -10.5t-38 -25.5t-20 -29.5t-13 -25t-11.5 -10.5q-17 0 -17 18q0 33 42.5 68.5
t118.5 35.5q85 0 132.5 -56t55.5 -160zM229 11q66 0 107 35t41 91l-4 42q-8 35 -47 60.5t-97 25.5q-69 0 -112 -33t-43 -84q0 -62 42.5 -99.5t112.5 -37.5z" />
    <glyph glyph-name="aacute.ss01" horiz-adv-x="476" 
d="M130 564q-10 -6 -15 3q-3 7 4 12l180 120q13 9 21 -3l5 -8q5 -10 -8 -17zM413 61q2 -24 17 -33t29 -11t14 -10q0 -13 -32 -13q-28 0 -42 16t-14 66q-37 -86 -157 -86q-83 0 -133 41t-51 109t50.5 107t135.5 39q95 0 139 -55l-4 43q-17 195 -158 195q-36 0 -61.5 -10.5
t-38 -25.5t-20 -29.5t-13 -25t-11.5 -10.5q-17 0 -17 18q0 33 42.5 68.5t118.5 35.5q85 0 132.5 -56t55.5 -160zM229 11q66 0 107 35t41 91l-4 42q-8 35 -47 60.5t-97 25.5q-69 0 -112 -33t-43 -84q0 -62 42.5 -99.5t112.5 -37.5z" />
    <glyph glyph-name="abreve.ss01" horiz-adv-x="476" 
d="M211 583q-54 0 -93.5 31.5t-47.5 76.5q-2 14 9 15q9 2 11 -6q10 -41 43 -67t78 -26q43 0 76.5 26t44.5 67q2 5 7.5 6.5t9.5 -3t3 -12.5q-7 -45 -46.5 -76.5t-94.5 -31.5zM413 61q2 -24 17 -33t29 -11t14 -10q0 -13 -32 -13q-28 0 -42 16t-14 66q-37 -86 -157 -86
q-83 0 -133 41t-51 109t50.5 107t135.5 39q95 0 139 -55l-4 43q-17 195 -158 195q-36 0 -61.5 -10.5t-38 -25.5t-20 -29.5t-13 -25t-11.5 -10.5q-17 0 -17 18q0 33 42.5 68.5t118.5 35.5q85 0 132.5 -56t55.5 -160zM229 11q66 0 107 35t41 91l-4 42q-8 35 -47 60.5t-97 25.5
q-69 0 -112 -33t-43 -84q0 -62 42.5 -99.5t112.5 -37.5z" />
    <glyph glyph-name="acircumflex.ss01" horiz-adv-x="476" 
d="M91 566q-6 -4 -11.5 -2t-6 7t4.5 10l110 91q10 9 19 9h7q8 0 19 -9l111 -91q9 -8 4 -15t-17 0l-120 88zM413 61q2 -24 17 -33t29 -11t14 -10q0 -13 -32 -13q-28 0 -42 16t-14 66q-37 -86 -157 -86q-83 0 -133 41t-51 109t50.5 107t135.5 39q95 0 139 -55l-4 43
q-17 195 -158 195q-36 0 -61.5 -10.5t-38 -25.5t-20 -29.5t-13 -25t-11.5 -10.5q-17 0 -17 18q0 33 42.5 68.5t118.5 35.5q85 0 132.5 -56t55.5 -160zM229 11q66 0 107 35t41 91l-4 42q-8 35 -47 60.5t-97 25.5q-69 0 -112 -33t-43 -84q0 -62 42.5 -99.5t112.5 -37.5z" />
    <glyph glyph-name="adieresis.ss01" horiz-adv-x="476" 
d="M138 600q-16 0 -25.5 9.5t-9.5 25.5q0 17 9.5 27t25.5 10q31 0 31 -37q0 -35 -31 -35zM289 600q-34 0 -34 35q0 37 34 37q14 0 23 -10t9 -27q0 -16 -9 -25.5t-23 -9.5zM413 61q2 -24 17 -33t29 -11t14 -10q0 -13 -32 -13q-28 0 -42 16t-14 66q-37 -86 -157 -86
q-83 0 -133 41t-51 109t50.5 107t135.5 39q95 0 139 -55l-4 43q-17 195 -158 195q-36 0 -61.5 -10.5t-38 -25.5t-20 -29.5t-13 -25t-11.5 -10.5q-17 0 -17 18q0 33 42.5 68.5t118.5 35.5q85 0 132.5 -56t55.5 -160zM229 11q66 0 107 35t41 91l-4 42q-8 35 -47 60.5t-97 25.5
q-69 0 -112 -33t-43 -84q0 -62 42.5 -99.5t112.5 -37.5z" />
    <glyph glyph-name="agrave.ss01" horiz-adv-x="476" 
d="M114 670q-13 7 -8 17l5 8q7 13 21 3l179 -120q8 -6 4 -12q-4 -8 -15 -3zM413 61q2 -24 17 -33t29 -11t14 -10q0 -13 -32 -13q-28 0 -42 16t-14 66q-37 -86 -157 -86q-83 0 -133 41t-51 109t50.5 107t135.5 39q95 0 139 -55l-4 43q-17 195 -158 195q-36 0 -61.5 -10.5
t-38 -25.5t-20 -29.5t-13 -25t-11.5 -10.5q-17 0 -17 18q0 33 42.5 68.5t118.5 35.5q85 0 132.5 -56t55.5 -160zM229 11q66 0 107 35t41 91l-4 42q-8 35 -47 60.5t-97 25.5q-69 0 -112 -33t-43 -84q0 -62 42.5 -99.5t112.5 -37.5z" />
    <glyph glyph-name="amacron.ss01" horiz-adv-x="476" 
d="M85 623q-12 0 -12 10v6q0 9 12 9h250q13 0 13 -9v-6q0 -10 -13 -10h-250zM413 61q2 -24 17 -33t29 -11t14 -10q0 -13 -32 -13q-28 0 -42 16t-14 66q-37 -86 -157 -86q-83 0 -133 41t-51 109t50.5 107t135.5 39q95 0 139 -55l-4 43q-17 195 -158 195q-36 0 -61.5 -10.5
t-38 -25.5t-20 -29.5t-13 -25t-11.5 -10.5q-17 0 -17 18q0 33 42.5 68.5t118.5 35.5q85 0 132.5 -56t55.5 -160zM229 11q66 0 107 35t41 91l-4 42q-8 35 -47 60.5t-97 25.5q-69 0 -112 -33t-43 -84q0 -62 42.5 -99.5t112.5 -37.5z" />
    <glyph glyph-name="aogonek.ss01" horiz-adv-x="476" 
d="M424 -5q-66 -58 -66 -114q0 -23 13 -37t33 -14q15 0 33 8q6 3 10 -1.5t3.5 -10.5t-4.5 -7q-18 -11 -43 -11q-31 0 -52 19.5t-21 49.5q0 33 22 67.5t54 58.5q-21 16 -21 73q-37 -86 -157 -86q-83 0 -133 41t-51 109t50.5 107t135.5 39q95 0 139 -55l-4 43
q-17 195 -158 195q-36 0 -61.5 -10.5t-38 -25.5t-20 -29.5t-13 -25t-11.5 -10.5q-17 0 -17 18q0 33 42.5 68.5t118.5 35.5q85 0 132.5 -56t55.5 -160l18 -213q2 -24 17 -33t29 -11t14 -10q0 -13 -32 -13q-12 0 -17 1zM229 11q66 0 107 35t41 91l-4 42q-8 35 -47 60.5
t-97 25.5q-69 0 -112 -33t-43 -84q0 -62 42.5 -99.5t112.5 -37.5z" />
    <glyph glyph-name="aring.ss01" horiz-adv-x="476" 
d="M210 553q-41 0 -68 27t-27 66t27 66t69 27t69 -27.5t27 -65.5q0 -39 -27.5 -66t-69.5 -27zM211 718q-31 0 -50 -21.5t-19 -50.5q0 -30 19 -51t50 -21t50 21t19 51q0 29 -19.5 50.5t-49.5 21.5zM413 61q2 -24 17 -33t29 -11t14 -10q0 -13 -32 -13q-28 0 -42 16t-14 66
q-37 -86 -157 -86q-83 0 -133 41t-51 109t50.5 107t135.5 39q95 0 139 -55l-4 43q-17 195 -158 195q-36 0 -61.5 -10.5t-38 -25.5t-20 -29.5t-13 -25t-11.5 -10.5q-17 0 -17 18q0 33 42.5 68.5t118.5 35.5q85 0 132.5 -56t55.5 -160zM229 11q66 0 107 35t41 91l-4 42
q-8 35 -47 60.5t-97 25.5q-69 0 -112 -33t-43 -84q0 -62 42.5 -99.5t112.5 -37.5z" />
    <glyph glyph-name="atilde.ss01" horiz-adv-x="476" 
d="M53 604q-10 0 -7 14q18 75 82 75q32 0 81 -32t67 -32q40 0 59 49q3 11 12 11h4q9 0 6 -13q-18 -71 -83 -71q-30 0 -77 32t-70 32q-20 0 -36 -14t-24 -38q-3 -13 -9 -13h-5zM413 61q2 -24 17 -33t29 -11t14 -10q0 -13 -32 -13q-28 0 -42 16t-14 66q-37 -86 -157 -86
q-83 0 -133 41t-51 109t50.5 107t135.5 39q95 0 139 -55l-4 43q-17 195 -158 195q-36 0 -61.5 -10.5t-38 -25.5t-20 -29.5t-13 -25t-11.5 -10.5q-17 0 -17 18q0 33 42.5 68.5t118.5 35.5q85 0 132.5 -56t55.5 -160zM229 11q66 0 107 35t41 91l-4 42q-8 35 -47 60.5t-97 25.5
q-69 0 -112 -33t-43 -84q0 -62 42.5 -99.5t112.5 -37.5z" />
    <glyph glyph-name="e.ss01" horiz-adv-x="500" 
d="M443 130q4 12 16 10q9 -4 7 -14q-15 -55 -67 -95.5t-136 -40.5q-92 0 -156.5 70t-64.5 185q0 103 65 174t165 71q73 0 128.5 -48t55.5 -101q0 -28 -39 -38l-343 -93q11 -92 65.5 -144t132.5 -52q66 0 108.5 32t62.5 84zM268 469q-85 0 -140.5 -65t-55.5 -153q0 -14 1 -20
l334 89q20 7 20 22q0 42 -47.5 84.5t-111.5 42.5z" />
    <glyph glyph-name="eacute.ss01" horiz-adv-x="500" 
d="M167 564q-10 -5 -15 3q-5 6 4 12l180 120q12 11 20 -3l5 -8q6 -9 -7 -17zM443 130q4 12 16 10q9 -4 7 -14q-15 -55 -67 -95.5t-136 -40.5q-92 0 -156.5 70t-64.5 185q0 103 65 174t165 71q73 0 128.5 -48t55.5 -101q0 -28 -39 -38l-343 -93q11 -92 65.5 -144t132.5 -52
q66 0 108.5 32t62.5 84zM268 469q-85 0 -140.5 -65t-55.5 -153q0 -14 1 -20l334 89q20 7 20 22q0 42 -47.5 84.5t-111.5 42.5z" />
    <glyph glyph-name="ecaron.ss01" horiz-adv-x="500" 
d="M106 679q-10 8 0 14q8 5 17 -2l124 -105l125 105q12 10 19 0q3 -6 -2 -12l-119 -107q-10 -10 -19 -10h-8q-8 0 -19 10zM443 130q4 12 16 10q9 -4 7 -14q-15 -55 -67 -95.5t-136 -40.5q-92 0 -156.5 70t-64.5 185q0 103 65 174t165 71q73 0 128.5 -48t55.5 -101
q0 -28 -39 -38l-343 -93q11 -92 65.5 -144t132.5 -52q66 0 108.5 32t62.5 84zM268 469q-85 0 -140.5 -65t-55.5 -153q0 -14 1 -20l334 89q20 7 20 22q0 42 -47.5 84.5t-111.5 42.5z" />
    <glyph glyph-name="ecircumflex.ss01" horiz-adv-x="500" 
d="M127 566q-6 -4 -11.5 -2t-6 7t4.5 10l110 91q12 9 19 9h8q7 0 19 -9l110 -91q9 -8 4 -15t-16 0l-121 88zM443 130q4 12 16 10q9 -4 7 -14q-15 -55 -67 -95.5t-136 -40.5q-92 0 -156.5 70t-64.5 185q0 103 65 174t165 71q73 0 128.5 -48t55.5 -101q0 -28 -39 -38l-343 -93
q11 -92 65.5 -144t132.5 -52q66 0 108.5 32t62.5 84zM268 469q-85 0 -140.5 -65t-55.5 -153q0 -14 1 -20l334 89q20 7 20 22q0 42 -47.5 84.5t-111.5 42.5z" />
    <glyph glyph-name="edieresis.ss01" horiz-adv-x="500" 
d="M174 600q-16 0 -25.5 9.5t-9.5 25.5q0 17 9.5 27t25.5 10q32 0 32 -37q0 -35 -32 -35zM325 600q-34 0 -34 35q0 37 34 37q15 0 24 -10t9 -27q0 -16 -9 -25.5t-24 -9.5zM443 130q4 12 16 10q9 -4 7 -14q-15 -55 -67 -95.5t-136 -40.5q-92 0 -156.5 70t-64.5 185
q0 103 65 174t165 71q73 0 128.5 -48t55.5 -101q0 -28 -39 -38l-343 -93q11 -92 65.5 -144t132.5 -52q66 0 108.5 32t62.5 84zM268 469q-85 0 -140.5 -65t-55.5 -153q0 -14 1 -20l334 89q20 7 20 22q0 42 -47.5 84.5t-111.5 42.5z" />
    <glyph glyph-name="edotaccent.ss01" horiz-adv-x="500" 
d="M248 599q-36 0 -36 36q0 18 9.5 28.5t26.5 10.5q15 0 24 -10.5t9 -28.5q0 -36 -33 -36zM443 130q4 12 16 10q9 -4 7 -14q-15 -55 -67 -95.5t-136 -40.5q-92 0 -156.5 70t-64.5 185q0 103 65 174t165 71q73 0 128.5 -48t55.5 -101q0 -28 -39 -38l-343 -93
q11 -92 65.5 -144t132.5 -52q66 0 108.5 32t62.5 84zM268 469q-85 0 -140.5 -65t-55.5 -153q0 -14 1 -20l334 89q20 7 20 22q0 42 -47.5 84.5t-111.5 42.5z" />
    <glyph glyph-name="egrave.ss01" horiz-adv-x="500" 
d="M150 670q-13 7 -8 17l6 8q7 13 20 3l180 -120q7 -7 4 -12q-5 -9 -15 -3zM443 130q4 12 16 10q9 -4 7 -14q-15 -55 -67 -95.5t-136 -40.5q-92 0 -156.5 70t-64.5 185q0 103 65 174t165 71q73 0 128.5 -48t55.5 -101q0 -28 -39 -38l-343 -93q11 -92 65.5 -144t132.5 -52
q66 0 108.5 32t62.5 84zM268 469q-85 0 -140.5 -65t-55.5 -153q0 -14 1 -20l334 89q20 7 20 22q0 42 -47.5 84.5t-111.5 42.5z" />
    <glyph glyph-name="emacron.ss01" horiz-adv-x="500" 
d="M122 623q-13 0 -13 10v6q0 9 13 9h250q12 0 12 -9v-6q0 -10 -12 -10h-250zM443 130q4 12 16 10q9 -4 7 -14q-15 -55 -67 -95.5t-136 -40.5q-92 0 -156.5 70t-64.5 185q0 103 65 174t165 71q73 0 128.5 -48t55.5 -101q0 -28 -39 -38l-343 -93q11 -92 65.5 -144t132.5 -52
q66 0 108.5 32t62.5 84zM268 469q-85 0 -140.5 -65t-55.5 -153q0 -14 1 -20l334 89q20 7 20 22q0 42 -47.5 84.5t-111.5 42.5z" />
    <glyph glyph-name="eogonek.ss01" horiz-adv-x="500" 
d="M443 130q4 12 16 10q9 -4 7 -14q-22 -79 -100 -115q-32 -25 -54.5 -59t-22.5 -64q0 -23 13 -37.5t33 -14.5q15 0 34 8q6 3 9.5 -1.5t2.5 -10.5t-4 -7q-17 -11 -43 -11q-31 0 -52 19.5t-21 49.5q0 58 61 113q-27 -6 -59 -6q-92 0 -156.5 70t-64.5 185q0 103 65 174t165 71
q73 0 128.5 -48t55.5 -101q0 -28 -39 -38l-343 -93q11 -92 65.5 -144t132.5 -52q66 0 108.5 32t62.5 84zM268 469q-85 0 -140.5 -65t-55.5 -153q0 -14 1 -20l334 89q20 7 20 22q0 42 -47.5 84.5t-111.5 42.5z" />
    <glyph glyph-name="g.ss01" horiz-adv-x="515" 
d="M463 480q7 0 10 -4.5t0.5 -9.5t-10.5 -6q-7 -1 -95 -6q41 -21 65 -63t24 -86q0 -67 -35.5 -116.5t-97.5 -69.5q66 -12 105.5 -50t39.5 -88q0 -76 -57 -118t-155 -42q-57 0 -102.5 18.5t-70.5 46t-37.5 54t-12.5 47.5q0 18 16 18q9 0 15 -17t15 -40.5t26.5 -47.5t58.5 -41
t102 -17q76 0 124 36t48 94q0 60 -47 97t-125 39q-8 -1 -24 -1q-80 0 -137 56t-57 132q0 85 56 140t149 55q25 0 75 -5t134 -5zM428 298q0 71 -52.5 121t-131.5 50q-73 0 -119 -48.5t-46 -118.5q0 -72 49 -123t125 -51q77 0 126 49.5t49 120.5z" />
    <glyph glyph-name="gbreve.ss01" horiz-adv-x="515" 
d="M242 574q-54 0 -93 31t-47 76q-2 14 8 16t11 -7q10 -41 43 -67t78 -26q44 0 77.5 26t44.5 67q3 10 12 6q9 -3 7 -15q-7 -45 -46.5 -76t-94.5 -31zM463 480q7 0 10 -4.5t0.5 -9.5t-10.5 -6q-7 -1 -95 -6q41 -21 65 -63t24 -86q0 -67 -35.5 -116.5t-97.5 -69.5
q66 -12 105.5 -50t39.5 -88q0 -76 -57 -118t-155 -42q-57 0 -102.5 18.5t-70.5 46t-37.5 54t-12.5 47.5q0 18 16 18q9 0 15 -17t15 -40.5t26.5 -47.5t58.5 -41t102 -17q76 0 124 36t48 94q0 60 -47 97t-125 39q-8 -1 -24 -1q-80 0 -137 56t-57 132q0 85 56 140t149 55
q25 0 75 -5t134 -5zM428 298q0 71 -52.5 121t-131.5 50q-73 0 -119 -48.5t-46 -118.5q0 -72 49 -123t125 -51q77 0 126 49.5t49 120.5z" />
    <glyph glyph-name="uni0123.ss01" horiz-adv-x="515" 
d="M236 592q-15 0 -24.5 11.5t-9.5 30.5q0 87 72 146q4 3 8.5 1t5.5 -6t-4 -8q-18 -16 -29.5 -33t-15 -27t-10.5 -32q-3 -9 7 -9q15 0 25 -10.5t10 -26.5q0 -17 -9.5 -27t-25.5 -10zM463 480q7 0 10 -4.5t0.5 -9.5t-10.5 -6q-7 -1 -95 -6q41 -21 65 -63t24 -86
q0 -67 -35.5 -116.5t-97.5 -69.5q66 -12 105.5 -50t39.5 -88q0 -76 -57 -118t-155 -42q-57 0 -102.5 18.5t-70.5 46t-37.5 54t-12.5 47.5q0 18 16 18q9 0 15 -17t15 -40.5t26.5 -47.5t58.5 -41t102 -17q76 0 124 36t48 94q0 60 -47 97t-125 39q-8 -1 -24 -1q-80 0 -137 56
t-57 132q0 85 56 140t149 55q25 0 75 -5t134 -5zM428 298q0 71 -52.5 121t-131.5 50q-73 0 -119 -48.5t-46 -118.5q0 -72 49 -123t125 -51q77 0 126 49.5t49 120.5z" />
    <glyph glyph-name="gdotaccent.ss01" horiz-adv-x="515" 
d="M243 589q-36 0 -36 37q0 38 36 38q33 0 33 -38q0 -37 -33 -37zM463 480q7 0 10 -4.5t0.5 -9.5t-10.5 -6q-7 -1 -95 -6q41 -21 65 -63t24 -86q0 -67 -35.5 -116.5t-97.5 -69.5q66 -12 105.5 -50t39.5 -88q0 -76 -57 -118t-155 -42q-57 0 -102.5 18.5t-70.5 46t-37.5 54
t-12.5 47.5q0 18 16 18q9 0 15 -17t15 -40.5t26.5 -47.5t58.5 -41t102 -17q76 0 124 36t48 94q0 60 -47 97t-125 39q-8 -1 -24 -1q-80 0 -137 56t-57 132q0 85 56 140t149 55q25 0 75 -5t134 -5zM428 298q0 71 -52.5 121t-131.5 50q-73 0 -119 -48.5t-46 -118.5
q0 -72 49 -123t125 -51q77 0 126 49.5t49 120.5z" />
    <glyph glyph-name="k.ss01" horiz-adv-x="476" 
d="M434 39q8 -10 20.5 -15.5t20 -8.5t7.5 -7v-1q0 -7 -9 -7h-77q-10 0 -10 7v1q0 4 8.5 8t12.5 7.5t-4 15.5l-199 231l-94 -86v-140q0 -16 17.5 -22t17.5 -11v-2q0 -9 -18 -9h-63q-17 0 -17 9v2q0 5 16.5 11t16.5 22v632q0 15 -8 23.5t-16.5 12.5t-8.5 7v2q0 5 9 10l31 14
q11 5 17 2t6 -11v-522l245 221q13 13 -2.5 23t-15.5 13v2q0 7 11 7h82q9 0 9 -6v-3q0 -5 -7.5 -9t-21.5 -10.5t-24 -15.5l-162 -148z" />
    <glyph glyph-name="uni0137.ss01" horiz-adv-x="476" 
d="M434 39q8 -10 20.5 -15.5t20 -8.5t7.5 -7v-1q0 -7 -9 -7h-77q-10 0 -10 7v1q0 4 8.5 8t12.5 7.5t-4 15.5l-199 231l-94 -86v-140q0 -16 17.5 -22t17.5 -11v-2q0 -9 -18 -9h-63q-17 0 -17 9v2q0 5 16.5 11t16.5 22v632q0 15 -8 23.5t-16.5 12.5t-8.5 7v2q0 5 9 10l31 14
q11 5 17 2t6 -11v-522l245 221q13 13 -2.5 23t-15.5 13v2q0 7 11 7h82q9 0 9 -6v-3q0 -5 -7.5 -9t-21.5 -10.5t-24 -15.5l-162 -148zM250 -86q15 0 25 -11.5t10 -30.5q0 -86 -73 -145q-7 -7 -13 2q-3 5 3 10q26 23 36.5 42.5t18.5 49.5q3 9 -6 9q-16 0 -25.5 10t-9.5 27
q0 16 9.5 26.5t24.5 10.5z" />
    <glyph glyph-name="kgreenlandic.ss01" horiz-adv-x="476" 
d="M435 39q8 -10 20.5 -15.5t20 -8.5t7.5 -7v-1q0 -7 -10 -7h-76q-10 0 -10 7v1q0 4 13.5 11t3.5 20l-200 231l-93 -86v-140q0 -16 17.5 -22t17.5 -11v-2q0 -9 -18 -9h-63q-18 0 -18 9v2q0 5 17 11t17 22v467q0 15 -8.5 23.5t-17 12.5t-8.5 7v2q0 6 10 10l31 14q10 5 16.5 2
t6.5 -11v-357l244 221q10 12 6 16.5t-13.5 10t-9.5 9.5v2q0 7 10 7h83q9 0 9 -6v-3q0 -5 -7.5 -9t-22 -10.5t-24.5 -15.5l-161 -147z" />
    <glyph glyph-name="v.ss01" horiz-adv-x="495" 
d="M481 480q10 0 10 -6v-3q0 -4 -17 -12.5t-23 -22.5l-178 -421q-7 -15 -20 -15h-7q-15 0 -22 15l-182 421q-7 16 -21.5 23.5t-14.5 11.5v3q0 6 10 6h82q9 0 9 -7v-2q0 -2 -19 -12.5t-14 -22.5l177 -414l175 415q6 14 -14.5 22.5t-20.5 11.5v2q0 7 11 7h79z" />
    <glyph glyph-name="w.ss01" horiz-adv-x="744" 
d="M729 480q9 0 9 -7v-3q0 -4 -14 -10t-21 -25l-151 -419q-6 -16 -18 -16h-5q-16 0 -21 15l-133 412l-135 -412q-5 -15 -19 -15h-3q-14 0 -21 15l-162 420q-7 19 -18 25t-11 10v3q0 7 9 7h69q9 0 9 -7v-3q0 -4 -9 -6.5t-15.5 -8.5t-1.5 -20l152 -411l146 443q4 13 11 13h5
q7 0 10 -12l142 -447l147 415q5 13 -2.5 18.5t-17.5 8.5t-10 7v3q0 7 9 7h70z" />
    <glyph glyph-name="wacute.ss01" horiz-adv-x="744" 
d="M296 564q-11 -5 -15 3q-4 6 4 12l179 120q14 10 21 -3l5 -8q5 -10 -8 -17zM729 480q9 0 9 -7v-3q0 -4 -14 -10t-21 -25l-151 -419q-6 -16 -18 -16h-5q-16 0 -21 15l-133 412l-135 -412q-5 -15 -19 -15h-3q-14 0 -21 15l-162 420q-7 19 -18 25t-11 10v3q0 7 9 7h69
q9 0 9 -7v-3q0 -4 -9 -6.5t-15.5 -8.5t-1.5 -20l152 -411l146 443q4 13 11 13h5q7 0 10 -12l142 -447l147 415q5 13 -2.5 18.5t-17.5 8.5t-10 7v3q0 7 9 7h70z" />
    <glyph glyph-name="wcircumflex.ss01" horiz-adv-x="744" 
d="M256 566q-6 -4 -11.5 -2.5t-6 6.5t4.5 10l110 91q10 10 19 10h7q9 0 20 -10l110 -91q6 -4 5.5 -9.5t-5 -7t-12.5 2.5l-121 88zM729 480q9 0 9 -7v-3q0 -4 -14 -10t-21 -25l-151 -419q-6 -16 -18 -16h-5q-16 0 -21 15l-133 412l-135 -412q-5 -15 -19 -15h-3q-14 0 -21 15
l-162 420q-7 19 -18 25t-11 10v3q0 7 9 7h69q9 0 9 -7v-3q0 -4 -9 -6.5t-15.5 -8.5t-1.5 -20l152 -411l146 443q4 13 11 13h5q7 0 10 -12l142 -447l147 415q5 13 -2.5 18.5t-17.5 8.5t-10 7v3q0 7 9 7h70z" />
    <glyph glyph-name="wdieresis.ss01" horiz-adv-x="744" 
d="M303 600q-16 0 -25.5 9.5t-9.5 25.5q0 17 9.5 27t25.5 10q32 0 32 -37q0 -35 -32 -35zM454 600q-34 0 -34 35q0 37 34 37q15 0 24 -10t9 -27q0 -16 -9 -25.5t-24 -9.5zM729 480q9 0 9 -7v-3q0 -4 -14 -10t-21 -25l-151 -419q-6 -16 -18 -16h-5q-16 0 -21 15l-133 412
l-135 -412q-5 -15 -19 -15h-3q-14 0 -21 15l-162 420q-7 19 -18 25t-11 10v3q0 7 9 7h69q9 0 9 -7v-3q0 -4 -9 -6.5t-15.5 -8.5t-1.5 -20l152 -411l146 443q4 13 11 13h5q7 0 10 -12l142 -447l147 415q5 13 -2.5 18.5t-17.5 8.5t-10 7v3q0 7 9 7h70z" />
    <glyph glyph-name="wgrave.ss01" horiz-adv-x="744" 
d="M279 670q-13 7 -8 16l5 9q9 12 21 3l180 -120q7 -7 4 -13q-5 -8 -15 -2zM729 480q9 0 9 -7v-3q0 -4 -14 -10t-21 -25l-151 -419q-6 -16 -18 -16h-5q-16 0 -21 15l-133 412l-135 -412q-5 -15 -19 -15h-3q-14 0 -21 15l-162 420q-7 19 -18 25t-11 10v3q0 7 9 7h69q9 0 9 -7
v-3q0 -4 -9 -6.5t-15.5 -8.5t-1.5 -20l152 -411l146 443q4 13 11 13h5q7 0 10 -12l142 -447l147 415q5 13 -2.5 18.5t-17.5 8.5t-10 7v3q0 7 9 7h70z" />
    <glyph glyph-name="y.ss01" horiz-adv-x="497" 
d="M482 480q10 0 10 -7v-3q0 -5 -4 -7.5t-9.5 -4.5t-13 -10t-13.5 -22l-189 -425q-49 -110 -71 -143q-47 -66 -109 -67q-41 0 -69 24t-28 47q0 18 15 18q7 0 14 -10.5t13 -23.5t23 -23.5t42 -10.5q71 0 141 177l-186 438q-5 13 -13 21t-14 10t-10.5 4.5t-4.5 7.5v3q0 7 10 7
h73q9 0 9 -7v-3q0 -5 -8 -9.5t-12.5 -9.5t1.5 -23l169 -411l180 409q8 17 0 25t-20 11t-12 8v3q0 7 10 7h76z" />
    <glyph glyph-name="yacute.ss01" horiz-adv-x="497" 
d="M176 564q-10 -5 -15 3q-5 6 4 12l180 120q12 11 20 -3l5 -8q6 -9 -7 -17zM482 480q10 0 10 -7v-3q0 -5 -4 -7.5t-9.5 -4.5t-13 -10t-13.5 -22l-189 -425q-49 -110 -71 -143q-47 -66 -109 -67q-41 0 -69 24t-28 47q0 18 15 18q7 0 14 -10.5t13 -23.5t23 -23.5t42 -10.5
q71 0 141 177l-186 438q-5 13 -13 21t-14 10t-10.5 4.5t-4.5 7.5v3q0 7 10 7h73q9 0 9 -7v-3q0 -5 -8 -9.5t-12.5 -9.5t1.5 -23l169 -411l180 409q8 17 0 25t-20 11t-12 8v3q0 7 10 7h76z" />
    <glyph glyph-name="ycircumflex.ss01" horiz-adv-x="497" 
d="M136 566q-6 -4 -11.5 -2t-6 7t4.5 10l110 91q12 9 19 9h7q8 0 20 -9l110 -91q9 -8 4 -15t-16 0l-121 88zM482 480q10 0 10 -7v-3q0 -5 -4 -7.5t-9.5 -4.5t-13 -10t-13.5 -22l-189 -425q-49 -110 -71 -143q-47 -66 -109 -67q-41 0 -69 24t-28 47q0 18 15 18q7 0 14 -10.5
t13 -23.5t23 -23.5t42 -10.5q71 0 141 177l-186 438q-5 13 -13 21t-14 10t-10.5 4.5t-4.5 7.5v3q0 7 10 7h73q9 0 9 -7v-3q0 -5 -8 -9.5t-12.5 -9.5t1.5 -23l169 -411l180 409q8 17 0 25t-20 11t-12 8v3q0 7 10 7h76z" />
    <glyph glyph-name="ydieresis.ss01" horiz-adv-x="497" 
d="M183 600q-16 0 -25.5 9.5t-9.5 25.5q0 17 9.5 27t25.5 10q32 0 32 -37q0 -35 -32 -35zM334 600q-34 0 -34 35q0 37 34 37q15 0 24 -10t9 -27q0 -16 -9 -25.5t-24 -9.5zM482 480q10 0 10 -7v-3q0 -5 -4 -7.5t-9.5 -4.5t-13 -10t-13.5 -22l-189 -425q-49 -110 -71 -143
q-47 -66 -109 -67q-41 0 -69 24t-28 47q0 18 15 18q7 0 14 -10.5t13 -23.5t23 -23.5t42 -10.5q71 0 141 177l-186 438q-5 13 -13 21t-14 10t-10.5 4.5t-4.5 7.5v3q0 7 10 7h73q9 0 9 -7v-3q0 -5 -8 -9.5t-12.5 -9.5t1.5 -23l169 -411l180 409q8 17 0 25t-20 11t-12 8v3
q0 7 10 7h76z" />
    <glyph glyph-name="ygrave.ss01" horiz-adv-x="497" 
d="M159 670q-13 7 -8 17l6 8q7 13 20 3l180 -120q7 -7 4 -12q-5 -9 -15 -3zM482 480q10 0 10 -7v-3q0 -5 -4 -7.5t-9.5 -4.5t-13 -10t-13.5 -22l-189 -425q-49 -110 -71 -143q-47 -66 -109 -67q-41 0 -69 24t-28 47q0 18 15 18q7 0 14 -10.5t13 -23.5t23 -23.5t42 -10.5
q71 0 141 177l-186 438q-5 13 -13 21t-14 10t-10.5 4.5t-4.5 7.5v3q0 7 10 7h73q9 0 9 -7v-3q0 -5 -8 -9.5t-12.5 -9.5t1.5 -23l169 -411l180 409q8 17 0 25t-20 11t-12 8v3q0 7 10 7h76z" />
    <glyph glyph-name="uni1EF9.ss01" horiz-adv-x="497" 
d="M99 604q-11 0 -8 14q18 75 83 75q31 0 80 -32t67 -32q42 0 59 49q4 11 12 11h4q10 0 7 -13q-20 -71 -84 -71q-30 0 -76.5 32t-69.5 32q-43 0 -60 -52q-4 -13 -9 -13h-5zM482 480q10 0 10 -7v-3q0 -5 -4 -7.5t-9.5 -4.5t-13 -10t-13.5 -22l-189 -425q-49 -110 -71 -143
q-47 -66 -109 -67q-41 0 -69 24t-28 47q0 18 15 18q7 0 14 -10.5t13 -23.5t23 -23.5t42 -10.5q71 0 141 177l-186 438q-5 13 -13 21t-14 10t-10.5 4.5t-4.5 7.5v3q0 7 10 7h73q9 0 9 -7v-3q0 -5 -8 -9.5t-12.5 -9.5t1.5 -23l169 -411l180 409q8 17 0 25t-20 11t-12 8v3
q0 7 10 7h76z" />
    <glyph glyph-name="ampersand.ss01" horiz-adv-x="679" 
d="M666 20q10 0 10 -7v-3q0 -7 -10.5 -13.5t-27.5 -6.5q-37 0 -90 57l-46 50q-91 -107 -236 -107q-102 0 -163.5 51.5t-61.5 133.5q0 58 44.5 106.5t146.5 103.5q-51 57 -75 97t-24 90q0 65 42 106.5t110 41.5q62 0 101.5 -40.5t39.5 -101.5q0 -59 -42 -110t-111 -87
l228 -244q74 109 74 271q0 6 6.5 9t13.5 0t7 -10q0 -173 -84 -289l53 -56q38 -42 72 -42h23zM283 699q-53 0 -86.5 -35t-33.5 -90q0 -47 22.5 -85t71.5 -91q76 39 107.5 83t31.5 98q0 52 -31.5 86t-81.5 34zM267 11q134 0 217 104l-238 255q-94 -50 -134.5 -96t-40.5 -100
q0 -71 55 -117t141 -46z" />
    <glyph glyph-name="caroncomb.alt" horiz-adv-x="0" 
d="M-284 584l-2 3q-6 5 4 19q65 84 65 193q0 15 8 15h11q8 0 8 -15q0 -119 -77 -209q-10 -13 -17 -6z" />
    <glyph glyph-name="caron.alt" 
d="M110 584l-2 3q-6 5 4 19q65 84 65 193q0 15 8 15h11q8 0 8 -15q0 -119 -77 -209q-10 -13 -17 -6z" />
    <glyph glyph-name="uni0308.case" horiz-adv-x="0" 
d="M-404 807q-35 0 -35 36q0 17 9.5 27t25.5 10q32 0 32 -37q0 -36 -32 -36zM-253 807q-34 0 -34 36q0 37 34 37q15 0 24 -10t9 -27t-9 -26.5t-24 -9.5z" />
    <glyph glyph-name="uni0307.case" horiz-adv-x="0" 
d="M-143 793q-36 0 -36 37q0 38 36 38q33 0 33 -38q0 -37 -33 -37z" />
    <glyph glyph-name="gravecomb.case" horiz-adv-x="0" 
d="M-295 795l-203 72q-14 5 -10 15l3 9q6 13 20 7l198 -87q8 -4 6 -11q-3 -9 -14 -5z" />
    <glyph glyph-name="acutecomb.case" horiz-adv-x="0" 
d="M-285 789q-12 -2 -14 6q-2 6 6 11l202 77q14 6 20 -7l3 -10q3 -10 -11 -14z" />
    <glyph glyph-name="uni030B.case" horiz-adv-x="0" 
d="M-504 768q-8 5 2 16l119 148q9 10 16 4l9 -8q10 -8 -1 -19l-127 -136q-10 -13 -18 -5zM-344 767q-8 5 2 16l119 148q9 10 16 4l9 -8q10 -8 -1 -19l-126 -136q-11 -11 -19 -5z" />
    <glyph glyph-name="uni0302.case" horiz-adv-x="0" 
d="M-66 782q6 -5 5.5 -10.5t-5 -7t-12.5 3.5l-121 88l-120 -88q-6 -4 -11.5 -2.5t-6 6.5t4.5 10l110 91q13 10 20 10h7q6 0 19 -10z" />
    <glyph glyph-name="uni030C.case" horiz-adv-x="0" 
d="M-279 876q12 11 19 1q5 -6 -2 -13l-119 -107q-10 -9 -19 -9h-7q-8 0 -20 9l-118 107q-10 9 0 14q8 5 17 -2l124 -104z" />
    <glyph glyph-name="uni0306.case" horiz-adv-x="0" 
d="M-369 793q-54 0 -93 31.5t-47 76.5q-2 14 9 16q9 1 11 -7q10 -41 43 -67t77 -26t77.5 26t44.5 67q2 10 12 7t8 -16q-7 -45 -47 -76.5t-95 -31.5z" />
    </font>
</defs>
</svg>
